<?xml version="1.0" encoding="UTF-8"?>
<svg id="Capa_2" xmlns="http://www.w3.org/2000/svg" xmlns:xlink="http://www.w3.org/1999/xlink" viewBox="0 0 173.07 45.51">
  <defs>
    <style>
      .cls-1 {
        fill: url(#Degradado_sin_nombre_7-9);
      }

      .cls-2 {
        fill: url(#Degradado_sin_nombre_7-13);
      }

      .cls-3 {
        fill: url(#Degradado_sin_nombre_7-3);
      }

      .cls-4 {
        fill: url(#Degradado_sin_nombre_7-8);
      }

      .cls-5 {
        fill: url(#Degradado_sin_nombre_7-4);
      }

      .cls-6 {
        fill: url(#Degradado_sin_nombre_7);
      }

      .cls-7 {
        fill: url(#Degradado_sin_nombre_7-7);
      }

      .cls-8 {
        fill: url(#Degradado_sin_nombre_7-10);
      }

      .cls-9 {
        fill: url(#Degradado_sin_nombre_7-12);
      }

      .cls-10 {
        fill: url(#Degradado_sin_nombre_10);
      }

      .cls-11 {
        fill: url(#Degradado_sin_nombre_7-11);
      }

      .cls-12 {
        fill: url(#Degradado_sin_nombre_7-6);
      }

      .cls-13 {
        fill: url(#Degradado_sin_nombre_7-5);
      }

      .cls-14 {
        fill: url(#Degradado_sin_nombre_7-2);
      }
    </style>
    <linearGradient id="Degradado_sin_nombre_7" data-name="Degradado sin nombre 7" x1=".86" y1="17.77" x2="123.67" y2="-5.65" gradientUnits="userSpaceOnUse">
      <stop offset="0" stop-color="#e30c18"/>
      <stop offset=".51" stop-color="#f13e0c"/>
      <stop offset="1" stop-color="#ff6e00"/>
    </linearGradient>
    <linearGradient id="Degradado_sin_nombre_7-2" data-name="Degradado sin nombre 7" x1="1.74" y1="22.41" x2="124.56" y2="-1" xlink:href="#Degradado_sin_nombre_7"/>
    <linearGradient id="Degradado_sin_nombre_7-3" data-name="Degradado sin nombre 7" x1="2.71" y1="27.51" x2="125.53" y2="4.09" xlink:href="#Degradado_sin_nombre_7"/>
    <linearGradient id="Degradado_sin_nombre_7-4" data-name="Degradado sin nombre 7" x1="3.33" y1="30.73" x2="126.14" y2="7.31" xlink:href="#Degradado_sin_nombre_7"/>
    <linearGradient id="Degradado_sin_nombre_7-5" data-name="Degradado sin nombre 7" x1="5.25" y1="40.82" x2="128.07" y2="17.4" xlink:href="#Degradado_sin_nombre_7"/>
    <linearGradient id="Degradado_sin_nombre_7-6" data-name="Degradado sin nombre 7" x1="5.99" y1="44.72" x2="128.81" y2="21.3" xlink:href="#Degradado_sin_nombre_7"/>
    <linearGradient id="Degradado_sin_nombre_7-7" data-name="Degradado sin nombre 7" x1="6.8" y1="48.93" x2="129.62" y2="25.52" xlink:href="#Degradado_sin_nombre_7"/>
    <linearGradient id="Degradado_sin_nombre_7-8" data-name="Degradado sin nombre 7" x1="7.18" y1="50.94" x2="130" y2="27.53" xlink:href="#Degradado_sin_nombre_7"/>
    <linearGradient id="Degradado_sin_nombre_7-9" data-name="Degradado sin nombre 7" x1="7.78" y1="54.07" x2="130.59" y2="30.65" xlink:href="#Degradado_sin_nombre_7"/>
    <linearGradient id="Degradado_sin_nombre_7-10" data-name="Degradado sin nombre 7" x1="8.37" y1="57.2" x2="131.19" y2="33.78" xlink:href="#Degradado_sin_nombre_7"/>
    <linearGradient id="Degradado_sin_nombre_7-11" data-name="Degradado sin nombre 7" x1="8.97" y1="60.32" x2="131.79" y2="36.9" xlink:href="#Degradado_sin_nombre_7"/>
    <linearGradient id="Degradado_sin_nombre_7-12" data-name="Degradado sin nombre 7" x1="9.84" y1="64.89" x2="132.66" y2="41.48" xlink:href="#Degradado_sin_nombre_7"/>
    <linearGradient id="Degradado_sin_nombre_10" data-name="Degradado sin nombre 10" x1="2.11" y1="24.37" x2="124.93" y2=".95" gradientUnits="userSpaceOnUse">
      <stop offset="0" stop-color="#e30c18"/>
      <stop offset="1" stop-color="#ff6e00"/>
    </linearGradient>
    <linearGradient id="Degradado_sin_nombre_7-13" data-name="Degradado sin nombre 7" x1="3.81" y1="33.27" x2="126.63" y2="9.85" xlink:href="#Degradado_sin_nombre_7"/>
  </defs>
  <g id="Capa_1-2" data-name="Capa_1">
    <g>
      <path class="cls-6" d="M40.12,20.19c2.12,0,3.77-.55,4.98-1.66,1.2-1.11,1.8-2.51,1.8-4.23,0-1.19-.29-2.22-.88-3.07-.59-.85-1.57-1.83-2.96-2.93l-.98-.81c-.44-.37-.75-.69-.92-.98-.17-.29-.26-.62-.26-1.01,0-.44.16-.84.49-1.18.33-.35.83-.52,1.5-.52.87,0,1.66.15,2.39.46.73.31,1.41.66,2.05,1.07l.64-3.92c-.96-.46-1.93-.81-2.9-1.05-.97-.24-1.99-.36-3.04-.36-1.96,0-3.52.52-4.67,1.54-1.15,1.03-1.73,2.3-1.73,3.82,0,1.08.29,2,.87,2.78.58.78,1.49,1.72,2.74,2.81l1.21,1.1c.38.38.68.75.88,1.08.2.34.3.73.3,1.17,0,.56-.18,1.04-.55,1.46-.37.41-.91.62-1.64.62-.63,0-1.35-.14-2.14-.43-.79-.29-1.74-.78-2.86-1.47l-.61,4.01c.92.56,1.93.98,3.03,1.27,1.1.29,2.18.43,3.26.43Z"/>
      <polygon class="cls-14" points="58.23 6.9 61.57 20.19 64.71 20.19 71.73 7.31 72.29 20.19 77.26 20.19 76.32 0 70.99 0 64.09 12.82 60.89 0 55.41 0 48.75 20.19 53.85 20.19 58.23 6.9"/>
      <path class="cls-3" d="M94.94,0h-5.51l-10.24,20.19h5.3l1.92-4.03h6.31l.5,4.03h5.42l-3.7-20.19ZM87.86,12.91l3.52-7.73.95,7.73h-4.47Z"/>
      <path class="cls-5" d="M107.2,12.23h.62c.81,0,1.43.19,1.86.56s1.03,1.35,1.78,2.93l2.16,4.47h5.65l-2.52-5.15c-.53-1.11-1-1.92-1.41-2.44-.4-.52-.94-.94-1.61-1.26,1.48-.28,2.65-.92,3.52-1.93.87-1.01,1.3-2.27,1.3-3.79,0-1.82-.63-3.21-1.89-4.18-1.26-.97-3.26-1.45-5.98-1.45h-6.9l-2.93,20.19h5.15l1.18-7.96ZM108.44,3.79h1.69c.97,0,1.71.16,2.22.47.51.32.77.91.77,1.78,0,.77-.3,1.39-.9,1.86-.6.47-1.45.71-2.53.71h-2.01l.77-4.83Z"/>
      <polygon class="cls-13" points="32.56 25.31 29.51 45.51 34.69 45.51 37.06 29.82 43.6 29.82 44.22 25.31 32.56 25.31"/>
      <path class="cls-12" d="M58.63,37.91c-.4-.52-.94-.94-1.61-1.26,1.48-.28,2.65-.92,3.52-1.93.87-1.01,1.3-2.27,1.3-3.79,0-1.82-.63-3.21-1.89-4.18-1.26-.97-3.26-1.45-5.98-1.45h-6.9l-2.93,20.19h5.15l1.18-7.96h.62c.81,0,1.43.19,1.86.56s1.03,1.35,1.78,2.93l2.16,4.47h5.65l-2.52-5.15c-.53-1.11-1-1.92-1.41-2.44ZM55.49,33.22c-.6.47-1.45.71-2.53.71h-2.01l.77-4.83h1.69c.97,0,1.71.16,2.22.47.51.32.77.91.77,1.78,0,.77-.3,1.39-.9,1.86Z"/>
      <path class="cls-7" d="M73.12,25.31l-10.24,20.19h5.3l1.92-4.03h6.31l.5,4.03h5.42l-3.7-20.19h-5.51ZM71.55,38.22l3.52-7.73.95,7.73h-4.47Z"/>
      <polygon class="cls-4" points="84.55 45.51 89.73 45.51 92.75 25.31 87.57 25.31 84.55 45.51"/>
      <polygon class="cls-1" points="110.01 37.42 102.13 25.31 97.25 25.31 94.26 45.51 99.44 45.51 101.27 33.4 109.15 45.51 114.01 45.51 117.02 25.31 111.84 25.31 110.01 37.42"/>
      <polygon class="cls-8" points="118.53 45.51 123.72 45.51 126.74 25.31 121.55 25.31 118.53 45.51"/>
      <polygon class="cls-11" points="143.99 37.42 136.12 25.31 131.23 25.31 128.24 45.51 133.42 45.51 135.26 33.4 143.14 45.51 147.99 45.51 151.01 25.31 145.83 25.31 143.99 37.42"/>
      <path class="cls-9" d="M160.7,31.52c1.42-1.27,3.38-1.9,5.86-1.9,1.04,0,2.04.08,3,.23.96.15,1.9.37,2.83.64l.69-4.3c-.92-.25-1.9-.46-2.93-.62-1.03-.16-2.23-.25-3.59-.25-4.35,0-7.65,1.04-9.91,3.13-2.26,2.09-3.39,4.81-3.39,8.18,0,2.65.91,4.8,2.73,6.43,1.82,1.64,4.2,2.45,7.14,2.45,1.1,0,2.26-.13,3.49-.39,1.23-.26,2.57-.66,4.01-1.2l1.39-9.58h-7.93l-.55,3.55h3.49l-.4,2.6c-.75.23-1.33.38-1.73.46-.4.08-.88.12-1.41.12-1.44,0-2.62-.47-3.53-1.4-.91-.93-1.37-2.1-1.37-3.5,0-1.83.71-3.38,2.13-4.64Z"/>
      <path class="cls-10" d="M24.84,5.12c-1.42,0-2.39,1.16-2.56,2.56l-.38,2.56h-6.96c2.8-.04,5.06-2.32,5.06-5.12S17.7,0,14.87,0s-5.13,2.29-5.13,5.13,2.26,5.09,5.06,5.12H3.34c-1.41,0-2.29,1.15-2.56,2.56L0,17.93c-.13,1.45,1.15,2.56,2.56,2.56s2.36-1.15,2.56-2.56l.39-2.56h2.62l-4.11,27.18c-.02.1-.02.31-.02.31-.1,1.67,1.07,2.59,2.46,2.64,1.25.05,2.13-.8,2.53-1.96.08-.24.13-.49.17-.74l1.48-9.72.45-2.95h5.21s-1.16,7.69-1.16,7.69c-.14,1.57,1.15,2.56,2.56,2.56s2.39-1.16,2.56-2.56l1.54-10.25c.16-1.43-1.15-2.56-2.56-2.56l-2.23.15,1.48-9.79s5.44,0,5.57,0c1.58.02,2.36-1.14,2.56-2.56l.77-5.13c.14-1.42-1.15-2.56-2.56-2.56Z"/>
      <polygon class="cls-2" points="124.52 20.19 129.7 20.19 132.74 0 121.02 0 120.37 4.5 126.88 4.5 124.52 20.19"/>
    </g>
  </g>
</svg>