<?xml version="1.0" encoding="UTF-8"?>
<svg id="Capa_2" xmlns="http://www.w3.org/2000/svg" xmlns:xlink="http://www.w3.org/1999/xlink" viewBox="0 0 72.1 109.15">
  <defs>
    <style>
      .cls-1 {
        fill: url(#Degradado_sin_nombre_43-3);
      }

      .cls-2 {
        fill: url(#Degradado_sin_nombre_43-2);
      }

      .cls-3 {
        fill: url(#Degradado_sin_nombre_43);
      }

      .cls-4 {
        fill: url(#Degradado_sin_nombre_43-6);
      }

      .cls-5 {
        fill: url(#Degradado_sin_nombre_43-5);
      }

      .cls-6 {
        fill: url(#Degradado_sin_nombre_43-4);
      }
    </style>
    <linearGradient id="Degradado_sin_nombre_43" data-name="Degradado sin nombre 43" x1="-5.2" y1="28.42" x2="50.29" y2="89.41" gradientUnits="userSpaceOnUse">
      <stop offset="0" stop-color="#ff1500"/>
      <stop offset="1" stop-color="#ff6e00"/>
    </linearGradient>
    <linearGradient id="Degradado_sin_nombre_43-2" data-name="Degradado sin nombre 43" x1="2.15" y1="21.74" x2="57.63" y2="82.73" xlink:href="#Degradado_sin_nombre_43"/>
    <linearGradient id="Degradado_sin_nombre_43-3" data-name="Degradado sin nombre 43" x1="3.11" y1="20.86" x2="58.6" y2="81.85" xlink:href="#Degradado_sin_nombre_43"/>
    <linearGradient id="Degradado_sin_nombre_43-4" data-name="Degradado sin nombre 43" x1="5.58" y1="18.61" x2="61.07" y2="79.61" xlink:href="#Degradado_sin_nombre_43"/>
    <linearGradient id="Degradado_sin_nombre_43-5" data-name="Degradado sin nombre 43" x1="-10.26" y1="33.02" x2="45.23" y2="94.01" xlink:href="#Degradado_sin_nombre_43"/>
    <linearGradient id="Degradado_sin_nombre_43-6" data-name="Degradado sin nombre 43" x1="17.99" y1="7.33" x2="73.47" y2="68.32" xlink:href="#Degradado_sin_nombre_43"/>
  </defs>
  <g id="Capa_1-2" data-name="Capa_1">
    <g>
      <g id="Cuerpo">
        <path class="cls-3" d="M12.31,43.02l.88-5.8-1.5-1.36c-3.18-2.79-5.48-5.15-7.01-7.22-.43-.58-.8-1.19-1.13-1.82-.82,1.06-1.38,2.42-1.67,3.89L.02,43.02c-.31,3.47,2.75,6.14,6.14,6.14s5.66-2.76,6.15-6.14Z"/>
        <path class="cls-2" d="M47.54,65.17l.39-2.55h3.46c-1.13-1.6-3.12-2.64-5.21-2.64l-5.34.35,3.55-23.47s13.04,0,13.35.01c.03,0,.06,0,.09,0,3.73,0,5.57-2.77,6.05-6.14l1.84-12.3c.33-3.42-2.75-6.14-6.14-6.14s-5.73,2.78-6.15,6.14l-.92,6.15h-16.69c6.71-.09,12.13-5.56,12.13-12.29S42.45,0,35.66,0s-12.29,5.5-12.29,12.29,5.41,12.2,12.13,12.29h-11.12l.38.31c3.58,2.83,6.09,5.34,7.68,7.66,1.75,2.55,2.64,5.6,2.64,9.07,0,4.96-1.78,9.11-5.29,12.35-3.36,3.09-7.93,4.68-13.56,4.76l-6.55,43.34c-.04.24-.06.74-.06.74-.24,4.01,2.57,6.2,5.9,6.33.08,0,.17,0,.25,0,2.88,0,4.9-1.99,5.83-4.7.2-.58.32-1.18.41-1.79l3.54-23.31,1.07-7.09h12.5s-2.78,18.44-2.78,18.44c-.34,3.77,2.75,6.15,6.14,6.15s5.72-2.77,6.15-6.15l2.04-13.57h-4.92s-.04-.02-.06-.02l.53-3.44,1.31-8.51Z"/>
      </g>
      <g id="S">
        <path class="cls-1" d="M22.87,27.23l-2.35-1.94c-1.06-.88-1.8-1.66-2.21-2.35-.42-.69-.62-1.5-.62-2.42,0-1.06.39-2.01,1.18-2.84.52-.55,1.25-.9,2.14-1.09-.41-1.37-.62-2.81-.62-4.3,0-1.74.3-3.41.84-4.96-.28,0-.55-.02-.83-.02-4.7,0-8.44,1.23-11.21,3.7-2.77,2.47-4.15,5.52-4.15,9.17,0,2.58.69,4.81,2.08,6.68,1.38,1.87,3.57,4.12,6.57,6.75l2.91,2.63c.92.92,1.63,1.79,2.11,2.59.48.81.73,1.74.73,2.8,0,1.34-.44,2.5-1.31,3.49-.84.95-2.09,1.43-3.72,1.47-1.53,3.39-4.6,5.57-8.21,5.57-1.9,0-3.74-.57-5.27-1.6l-.17,1.09c2.21,1.34,4.64,2.35,7.26,3.04,2.63.69,5.23,1.04,7.82,1.04,5.07,0,9.05-1.33,11.93-3.98,2.88-2.65,4.32-6.03,4.32-10.14,0-2.86-.7-5.32-2.11-7.37-1.41-2.05-3.77-4.39-7.09-7.02Z"/>
      </g>
      <g id="G">
        <g id="relleno">
          <path class="cls-6" d="M49.2,74.14h8.37l-.97,6.23c-1.45.45-2.61.77-3.52.97l-1.47,9.79c-.05.39-.13.75-.22,1.12,1.68-.15,3.41-.4,5.21-.78,2.95-.62,6.16-1.58,9.62-2.87l3.32-22.97h-19.03l-1.31,8.51Z"/>
          <path class="cls-5" d="M35.62,75.27h-6.43s-.69,4.54-.69,4.54l-.49,3.21c.87,1.26,1.88,2.43,3.08,3.51.8.72,1.65,1.34,2.54,1.93l1.98-13.18Z"/>
          <path class="cls-4" d="M65.07,44.56c-2.47-.39-5.34-.59-8.61-.59-3.74,0-7.16.33-10.25.97l-1.83,12.14.52-.03c3.09-1.84,6.94-2.77,11.57-2.77,2.49,0,4.89.19,7.19.55,2.31.37,4.57.88,6.78,1.52l1.66-10.31c-2.21-.6-4.56-1.1-7.02-1.49Z"/>
        </g>
      </g>
    </g>
  </g>
</svg>