<?xml version="1.0" encoding="UTF-8"?>
<svg xmlns="http://www.w3.org/2000/svg" version="1.1" xmlns:xlink="http://www.w3.org/1999/xlink" viewBox="0 0 399 390.9">
  <defs>
    <style>
      .cls-1 {
        fill: #fff;
      }

      .cls-2 {
        fill: none;
      }

      .cls-3 {
        stroke: #000;
        stroke-miterlimit: 10;
      }

      .cls-4 {
        fill: #ff0006;
      }

      .cls-5 {
        clip-path: url(#clippath);
      }
    </style>
    <clipPath id="clippath">
      <rect class="cls-2" x="67" y="148.9" width="265" height="93"/>
    </clipPath>
  </defs>
  <!-- Generator: Adobe Illustrator 28.7.1, SVG Export Plug-In . SVG Version: 1.2.0 Build 142)  -->
  <g>
    <g id="Capa_1">
      <g>
        <circle class="cls-3" cx="199.5" cy="195.4" r="165.5"/>
        <g class="cls-5">
          <g>
            <path class="cls-4" d="M324.9,160.4c-.8,0-1.6-.1-2.4-.5-.6-.3-1.1-.7-1.5-1.3-.4-.5-.6-1.1-.7-1.8-.1-.7,0-1.3,0-2v-.3c.2-.7.5-1.4.9-2,.4-.7.9-1.3,1.5-1.8.6-.5,1.3-1,2.1-1.3.8-.3,1.7-.5,2.5-.5.8,0,1.6.1,2.3.5.6.3,1.1.7,1.5,1.3.4.5.6,1.1.7,1.8.1.7,0,1.3,0,2v.3c-.2.7-.5,1.3-.8,2-.4.7-.9,1.3-1.5,1.8-.6.5-1.3,1-2.1,1.3-.8.3-1.7.5-2.6.5M325.1,159.3c.9,0,1.8-.2,2.6-.6.8-.4,1.5-1,2-1.7.5-.7.9-1.5,1.1-2.3.2-.8.2-1.6,0-2.4-.2-.7-.7-1.3-1.3-1.7-.7-.4-1.5-.6-2.3-.6-.9,0-1.8.2-2.6.6-.8.4-1.5,1-2,1.7-.5.7-.9,1.5-1.1,2.4-.2.8-.2,1.6,0,2.3.2.7.7,1.3,1.2,1.7.7.4,1.5.7,2.3.6M323.1,157.7l1.3-6.2h1.5l-1.3,6.2h-1.5ZM324.2,155.8l.3-1.3h1.7c.3,0,.6,0,.9-.2.2-.2.3-.4.4-.7,0-.1,0-.2,0-.4,0-.1,0-.2-.1-.3-.1,0-.2-.1-.3-.2-.1,0-.3,0-.4,0h-1.7l.3-1.3h1.6c.7,0,1.3.1,1.9.6.2.2.3.5.4.8,0,.3,0,.6,0,.9-.1.7-.5,1.2-1,1.6-.6.4-1.4.6-2.1.6h-1.7ZM326.8,157.7l-1.1-2.4h1.6l1.2,2.4h-1.7Z"/>
            <path class="cls-4" d="M189.5,148.9h-26.6c-7.1,0-14,5.7-15.5,12.6l-6.8,31.9c-1.5,7,3,12.6,10.1,12.6h26.6c7.1,0,14-5.7,15.5-12.6l6.8-31.8c1.5-7-3-12.6-10.1-12.6M182,162.3l-6.4,30.3c-.1.5-.4,1-.8,1.3s-.9.5-1.5.6h-13.5c-.2,0-.5,0-.7-.1-.2,0-.4-.2-.5-.4-.1-.2-.2-.4-.3-.6,0-.2,0-.5,0-.7l6.4-30.3c.1-.5.4-1,.8-1.3.4-.3.9-.5,1.5-.6h13.5c.2,0,.5,0,.7.1.2,0,.4.2.6.4.1.2.2.4.3.6,0,.2,0,.5,0,.7"/>
            <path class="cls-4" d="M147.5,150.6l-25,54.5c-.1.3-.3.5-.6.7-.3.2-.6.3-.9.3h-13.6c-.3,0-.6,0-.9-.1-.6-.2-1.2-.5-1.6-1-.4-.5-.6-1.1-.6-1.8l-.7-26-3.3,7.2-8.6,18.8c-.4.8-1,1.5-1.7,2.1-.8.5-1.7.8-2.6.8h-13.6c-.2,0-.3,0-.5,0-.2,0-.3-.2-.4-.4-.1-.2-.2-.3-.2-.5,0,0-1.2-36.6-1.6-47.7,0-1.9-.7-3.8-1.9-5.4l-2.3-3h18.6c.4,0,.8,0,1.2.2.4.1.7.3,1,.6.3.3.5.6.7,1,.2.4.2.7.2,1.1l.3,8.8.6,17.2,8-17.5,4.8-10.4c.1-.3.3-.5.6-.7.3-.2.6-.3.9-.3h11.5c.2,0,.4,0,.6.2.2.1.3.3.4.5,0,.1,0,.2,0,.3l.9,27.9,3.2-7,8.7-19c.4-.8,1-1.5,1.7-2,.8-.5,1.7-.8,2.6-.8h12.9c.2,0,.4,0,.6.1.2,0,.3.2.4.4s.1.4.1.5c0,.2,0,.4-.2.5Z"/>
            <path class="cls-4" d="M257.4,161.7l-9.2,43c0,.4-.3.7-.6.9-.3.2-.7.4-1,.4h-14.7c-.2,0-.3,0-.5,0-.1,0-.3-.2-.4-.3-.1-.1-.2-.3-.2-.4,0-.2,0-.3,0-.5l8.9-42c0-.3,0-.5,0-.8,0-.3-.2-.5-.3-.7-.2-.2-.4-.4-.6-.5-.3-.1-.5-.2-.8-.2h-13.1c-.3,0-.7,0-1,.2-.4.2-.8.5-1.1.8-.3.3-.5.8-.6,1.2l-8.9,42c0,.4-.3.7-.6.9s-.7.4-1,.4h-14.7c-.2,0-.3,0-.5,0s-.3-.2-.4-.3c-.1-.1-.2-.3-.2-.4,0-.2,0-.3,0-.5l9.6-45.3c0-.2,0-.4.1-.6,0-.1,0-.2,0-.4,0-.2,0-.3,0-.5.3-2.1-.2-4.1-1.4-5.8h0s-2.3-3.1-2.3-3.1h45.3c1.4,0,2.7.2,4,.7,4.6,1.7,7.2,6.4,6.1,12"/>
            <path class="cls-4" d="M305.4,149h-45.3l2.3,3h0c.6.9,1.1,2,1.3,3,.2,1.1.2,2.2,0,3.3,0,.3-9.8,46.3-9.8,46.3,0,.2,0,.3,0,.5,0,.2.1.3.2.4.1.1.2.2.4.3.2,0,.3.1.5,0h14.6c.4,0,.7-.2,1-.4.3-.2.5-.6.6-.9l3.1-14.5c0-.4.3-.7.6-.9.3-.2.7-.4,1-.4h14.9c.2,0,.3,0,.5,0,.1,0,.3.2.4.3.1.1.2.3.2.4,0,.2,0,.3,0,.5l-3.1,14.5c0,.2,0,.3,0,.5,0,.2.1.3.2.4.1.1.2.2.4.3.2,0,.3.1.5,0h14.7c.4,0,.7-.2,1-.4.3-.2.5-.6.6-.9l9.2-43c1.5-7-3-12.6-10.1-12.6ZM298.1,161.8l-3.1,14.5c0,.4-.3.7-.6.9-.3.2-.7.4-1,.4h-14.9c-.2,0-.3,0-.5,0-.2,0-.3-.2-.4-.3-.1-.1-.2-.3-.2-.4,0-.2,0-.3,0-.5l3.1-14.5c0-.4.3-.7.6-.9.3-.2.7-.4,1-.4h14.9c.2,0,.3,0,.5,0,.2,0,.3.2.4.3.1.1.2.3.2.4,0,.2,0,.3,0,.5Z"/>
            <path class="cls-1" d="M213.3,236.6c-1.6,0-3.2-.2-4.6-.9-1.1-.5-2-1.4-2.5-2.5-.5-1.1-.6-2.4-.3-3.6h4.1c-.1.6,0,1.1.1,1.7.2.6.7,1,1.2,1.3.8.4,1.7.5,2.6.5.9,0,1.8-.1,2.6-.4.7-.2,1.3-.6,1.8-1.2.4-.5.7-1,.8-1.6,0-.3,0-.7,0-1-.1-.3-.3-.6-.6-.8-.5-.5-1.5-.7-2.8-.9h-1.8c-2-.3-3.5-1-4.5-2.1-1-1.1-1.3-2.6-.9-4.4.3-1.3.8-2.5,1.7-3.5.9-1,2-1.8,3.2-2.3,1.4-.5,2.8-.8,4.3-.8,1.4,0,2.8.2,4,.8,1,.5,1.8,1.4,2.2,2.4.4,1.2.5,2.4.2,3.6h-4.1c.1-.5,0-1.1,0-1.6-.2-.5-.5-.9-1-1.2-.6-.3-1.3-.5-2-.4-.7,0-1.5.1-2.1.4-.6.2-1.1.6-1.5,1.1-.4.4-.6.9-.7,1.5,0,.3,0,.6,0,.9,0,.3.2.6.4.8.4.5,1.1.8,2.1.9l1.8.2c1.3,0,2.6.4,3.8,1,1,.4,1.7,1.2,2.2,2.1.5,1,.6,2.2.3,3.2-.3,1.3-.9,2.5-1.8,3.5-1,1.1-2.2,1.9-3.5,2.4-1.5.6-3.1.9-4.8.8"/>
            <path class="cls-1" d="M243.2,224.6c-.1-.9-.4-1.8-1-2.6-.5-.7-1.2-1.3-2-1.7-.9-.4-1.9-.6-2.9-.6-1.2,0-2.4.3-3.5.8-1.2.6-2.2,1.4-2.9,2.4-.3.4-.5.8-.8,1.2l.8-3.9h-3.2l-4.6,21.7h4.1l1.7-8c.4.8,1,1.5,1.7,1.9,1,.5,2,.8,3.1.7,1.1,0,2.2-.2,3.2-.6,1-.4,1.9-1,2.7-1.8.8-.8,1.5-1.6,2.1-2.6.6-1,1-2.1,1.2-3.2v-.6c.4-1,.4-2.1.3-3.2M238.9,228.1c-.2.9-.6,1.8-1.1,2.6-.5.7-1.2,1.3-1.9,1.8-.7.4-1.6.6-2.4.6-.7,0-1.4-.2-2.1-.5-.6-.3-1.1-.9-1.4-1.5-.3-.7-.4-1.6-.1-2.3l.2-1.2c.2-.9.6-1.7,1.2-2.5.5-.7,1.2-1.2,2-1.6.7-.3,1.5-.5,2.3-.5.8,0,1.5.2,2.2.6.6.4,1,1,1.2,1.7.2.9.2,1.8,0,2.6"/>
            <path class="cls-1" d="M251.4,236.6c-1.2,0-2.5-.2-3.6-.7-.9-.4-1.7-1-2.3-1.8-.6-.8-1-1.7-1.1-2.6-.2-1-.1-2,0-3v-.6c.4-1.1.8-2.2,1.4-3.1.6-1,1.4-1.9,2.3-2.6,1.9-1.6,4.4-2.5,6.9-2.5,1.2,0,2.4.2,3.5.7.9.4,1.7,1,2.4,1.8.6.8,1,1.7,1.2,2.6.2,1,.2,2.1,0,3.1v.6c-.4,1.1-.8,2.1-1.3,3-.9,1.6-2.3,2.9-3.9,3.8-1.6.9-3.4,1.4-5.3,1.3ZM252.1,233.1c.9,0,1.9-.2,2.7-.7.8-.4,1.4-1,1.9-1.8.5-.8.9-1.6,1.1-2.6.2-.8.2-1.7,0-2.6-.2-.7-.6-1.3-1.2-1.8-.7-.5-1.5-.7-2.3-.7-.9,0-1.8.2-2.6.7-.8.4-1.5,1-2,1.8-.5.8-.9,1.7-1.1,2.6-.2.8-.2,1.7,0,2.6.2.7.6,1.3,1.2,1.8.7.5,1.5.7,2.4.7"/>
            <path class="cls-1" d="M262,236.1l3.4-15.9h3.2l-1.4,6.7h0c.5-2.3,1.3-4,2.6-5.2.6-.6,1.4-1,2.2-1.3.8-.3,1.7-.4,2.5-.4h.6l-.8,3.5h-1.1c-1.2,0-2.4.3-3.4,1.1-1,.8-1.6,1.9-1.8,3.2l-1.8,8.3h-4.1Z"/>
            <path class="cls-1" d="M280.7,230.4c0,.3-.1.6,0,.9,0,.3.2.6.3.9.2.2.5.4.8.5.3.1.6.1.9.1h2.5l-.7,3.5h-2.3c-1.2,0-2.4-.1-3.5-.6-.4-.2-.8-.4-1.1-.8-.3-.3-.5-.7-.6-1.2-.3-1.2-.2-2.5,0-3.7l1.5-6.9h-2.5l.6-3h2.5l1-4.5h3.8l-1,4.5h4.9l-.6,3h-4.9l-1.6,7.2Z"/>
            <path class="cls-1" d="M293,236.6c-2.2,0-3.8-.5-4.9-1.4-1-.9-1.4-2.2-1.1-3.8h3.7c0,.3,0,.6.1.8.1.3.3.5.5.7.4.4,1.3.7,2.4.7.8,0,1.7-.2,2.5-.5.3-.1.5-.3.8-.6.2-.2.3-.5.4-.8,0-.2,0-.5,0-.7,0-.2-.2-.4-.4-.6-.6-.4-1.4-.6-2.1-.6h-1.4c-1.7-.3-3-.8-3.8-1.6-.8-.8-1-1.9-.7-3.3.2-1,.7-2,1.4-2.7.7-.8,1.6-1.3,2.6-1.7,1.1-.4,2.3-.6,3.5-.6,2,0,3.5.4,4.5,1.3,1,.9,1.4,2.1,1.1,3.8h-3.7c0-.3,0-.5,0-.8,0-.2-.2-.5-.4-.6-.6-.4-1.3-.6-2.1-.6-.7,0-1.5.1-2.1.5-.2.1-.5.3-.6.5-.2.2-.3.5-.4.7,0,.2,0,.4,0,.6,0,.2.2.4.3.5.5.3,1.1.5,1.7.6h1.4c1.8.3,3.2.9,4.1,1.7.9.8,1.2,2,.9,3.4-.2,1-.7,2-1.4,2.7-.8.8-1.7,1.4-2.8,1.8-1.2.4-2.5.7-3.8.6"/>
          </g>
        </g>
      </g>
    </g>
  </g>
</svg>