<svg width="265" height="93" viewBox="0 0 265 93" fill="none" xmlns="http://www.w3.org/2000/svg">
<g clip-path="url(#clip0_468_1706)">
<path d="M257.908 11.4509C257.086 11.4748 256.27 11.3036 255.529 10.9518C254.919 10.6552 254.397 10.2082 254.013 9.65393C253.649 9.11691 253.409 8.50657 253.311 7.86691C253.209 7.2168 253.227 6.55356 253.367 5.91017L253.433 5.59071C253.585 4.88622 253.855 4.21156 254.231 3.59403C254.629 2.93339 255.128 2.33738 255.71 1.82698C256.318 1.2874 257.017 0.858173 257.776 0.559091C258.579 0.242322 259.437 0.0829567 260.302 0.0898733C261.111 0.0651852 261.914 0.225777 262.65 0.559091C263.257 0.845621 263.779 1.28237 264.165 1.82698C264.537 2.35568 264.785 2.95916 264.893 3.59403C265.003 4.25685 264.985 4.93414 264.842 5.59071L264.772 5.91017C264.618 6.59884 264.356 7.25923 263.994 7.86691C263.602 8.53422 263.108 9.13714 262.529 9.65393C261.92 10.2016 261.219 10.6407 260.458 10.9518C259.639 11.2891 258.759 11.4589 257.872 11.4509M258.094 10.4077C258.985 10.4157 259.863 10.1993 260.645 9.77872C261.426 9.37005 262.107 8.79762 262.64 8.10152C263.166 7.41335 263.531 6.61913 263.711 5.7754C263.904 4.99372 263.883 4.17541 263.65 3.40435C263.435 2.72778 262.993 2.14354 262.398 1.74711C261.716 1.32196 260.92 1.10974 260.115 1.13813C259.227 1.13054 258.351 1.33972 257.564 1.74711C256.781 2.14406 256.099 2.71056 255.569 3.40435C255.037 4.10612 254.67 4.91601 254.493 5.7754C254.307 6.54377 254.335 7.34756 254.574 8.10152C254.791 8.78134 255.23 9.37106 255.822 9.77872C256.499 10.2199 257.299 10.4399 258.11 10.4077M256.089 8.77041L257.418 2.5358H258.903L257.579 8.77041H256.089ZM257.195 6.89353L257.463 5.63563H259.19C259.498 5.65511 259.802 5.5706 260.054 5.39603C260.263 5.22134 260.403 4.97902 260.448 4.71217C260.486 4.59742 260.497 4.47554 260.479 4.35605C260.462 4.23656 260.416 4.12269 260.347 4.02332C260.245 3.93907 260.128 3.87542 260.001 3.83603C259.875 3.79663 259.742 3.78225 259.61 3.7937H257.882L258.15 2.5358H259.776C260.444 2.47604 261.11 2.67666 261.63 3.09487C261.829 3.3089 261.968 3.57142 262.031 3.85559C262.094 4.13975 262.079 4.43536 261.989 4.71217C261.869 5.36361 261.495 5.94259 260.948 6.32448C260.328 6.72383 259.597 6.92269 258.857 6.89353H257.195ZM259.786 8.77041L258.67 6.3744H260.236L261.453 8.77041H259.786Z" fill="#FF0006"/>
<path d="M122.492 3.30758e-06H95.8794C88.8083 3.30758e-06 81.9038 5.65558 80.4189 12.629L73.6458 44.4809C72.1609 51.4692 76.6763 57.1098 83.7474 57.1098H110.36C117.431 57.1098 124.341 51.4493 125.831 44.4759L132.604 12.629C134.089 5.6406 129.573 -0.00498837 122.502 3.30758e-06M114.997 13.4077L108.557 43.6972C108.434 44.2146 108.142 44.6778 107.727 45.0159C107.312 45.354 106.796 45.5483 106.259 45.5691H92.7328C92.4975 45.5765 92.2637 45.5296 92.0499 45.4322C91.8361 45.3348 91.6483 45.1895 91.5012 45.0078C91.3542 44.8261 91.252 44.6131 91.2027 44.3856C91.1535 44.1581 91.1585 43.9224 91.2175 43.6972L97.6573 13.4126C97.7829 12.8964 98.075 12.4346 98.4896 12.0969C98.9042 11.7592 99.4187 11.564 99.9554 11.5408H113.486C113.724 11.5268 113.961 11.5692 114.178 11.6646C114.395 11.76 114.586 11.9055 114.735 12.0889C114.883 12.2723 114.985 12.4883 115.031 12.7186C115.078 12.949 115.068 13.187 115.002 13.4126" fill="#FF0006"/>
<path d="M80.4844 1.63173L55.5133 56.1009C55.3784 56.3893 55.1655 56.6351 54.8981 56.8113C54.6307 56.9875 54.3192 57.0872 53.998 57.0993H40.4063C40.1031 57.1018 39.8008 57.0649 39.5073 56.9895C38.878 56.8354 38.319 56.4773 37.9198 55.9724C37.5206 55.4675 37.3042 54.8449 37.3052 54.2041L36.5728 28.2224L33.2999 35.4404L24.7489 54.2091C24.3712 55.0428 23.7654 55.7556 22.9997 56.2672C22.234 56.7787 21.3389 57.0687 20.4153 57.1043H6.84383C6.66979 57.1117 6.49651 57.0775 6.33875 57.0044C6.16135 56.9268 6.01033 56.8003 5.90374 56.6401C5.79716 56.4799 5.73951 56.2927 5.7377 56.1009C5.7377 56.1009 4.54571 19.467 4.18206 8.4304C4.14462 6.48846 3.49681 4.60614 2.32842 3.04438L0 -0.000548341H18.5566C18.953 -0.0193504 19.3491 0.0409496 19.7214 0.176754C20.0937 0.312558 20.4345 0.521083 20.7234 0.789888C21.0124 1.05869 21.2436 1.38227 21.4033 1.74131C21.5629 2.10035 21.6478 2.4875 21.6528 2.87965L21.9457 11.685L22.5114 28.8963L30.5169 11.4254L35.3 0.997788C35.4344 0.709121 35.6472 0.462963 35.9147 0.286708C36.1822 0.110452 36.4939 0.0110115 36.8152 -0.000548341H48.3411C48.5596 -0.0129157 48.7761 0.0451255 48.9583 0.164848C49.1405 0.284571 49.2784 0.459504 49.3513 0.663345C49.3985 0.773904 49.4226 0.892766 49.422 1.01276L50.3362 28.8713L53.5384 21.9129L62.2662 2.87965C62.6457 2.05058 63.2511 1.34214 64.0146 0.833515C64.7781 0.324889 65.6697 0.0361107 66.5897 -0.000548341H79.5349C79.7296 -0.00458258 79.9219 0.0432407 80.0915 0.137908C80.2612 0.232576 80.4019 0.370601 80.499 0.537516C80.5961 0.704431 80.646 0.894087 80.6434 1.0866C80.6409 1.27912 80.5859 1.46741 80.4844 1.63173Z" fill="#FF0006"/>
<path d="M190.414 12.7337L181.257 55.767C181.169 56.1305 180.964 56.4559 180.672 56.6937C180.381 56.9316 180.018 57.0688 179.641 57.0848H164.973C164.807 57.0916 164.642 57.0596 164.491 56.9913C164.341 56.923 164.208 56.8204 164.105 56.6919C164.002 56.5633 163.932 56.4125 163.899 56.2517C163.866 56.0909 163.873 55.9248 163.917 55.767L172.857 13.742C172.933 13.477 172.943 13.1981 172.888 12.9282C172.834 12.6583 172.715 12.4051 172.542 12.1893C172.369 11.9735 172.147 11.8013 171.893 11.6869C171.64 11.5724 171.363 11.5189 171.085 11.5307H157.952C157.604 11.5342 157.26 11.609 156.942 11.7503C156.521 11.9291 156.149 12.2028 155.854 12.5495C155.559 12.8962 155.351 13.3063 155.245 13.747L146.3 55.7869C146.213 56.1522 146.008 56.4793 145.715 56.7182C145.422 56.9571 145.058 57.0946 144.679 57.1097H141.361H130.017C129.851 57.1166 129.686 57.0846 129.535 57.0163C129.384 56.948 129.252 56.8454 129.149 56.7168C129.046 56.5883 128.975 56.4374 128.942 56.2767C128.91 56.1159 128.916 55.9498 128.961 55.7919L138.588 10.4824C138.633 10.2728 138.674 10.0681 138.704 9.85847C138.733 9.73504 138.755 9.61003 138.77 9.48409C138.795 9.32935 138.815 9.1796 138.84 9.02485C139.136 6.97057 138.628 4.88226 137.421 3.18459V3.15464L135.098 0.109712H180.358C181.735 0.0992419 183.104 0.332537 184.398 0.798564C189.045 2.51071 191.646 7.21287 190.459 12.7486" fill="#FF0006"/>
<path d="M238.397 0.100098H193.122L195.465 3.14502V3.17497C196.11 4.08193 196.563 5.10836 196.797 6.19261C197.03 7.27685 197.039 8.39655 196.824 9.48446C196.774 9.82888 187.005 55.7873 187.005 55.7873C186.96 55.9451 186.953 56.1113 186.984 56.2723C187.016 56.4333 187.086 56.5846 187.189 56.7136C187.292 56.8427 187.424 56.9459 187.574 57.0149C187.725 57.0838 187.89 57.1164 188.056 57.1101H202.703C203.082 57.0928 203.445 56.9538 203.737 56.7141C204.028 56.4745 204.233 56.1473 204.319 55.7823L207.4 41.3064C207.487 40.9411 207.693 40.614 207.986 40.3752C208.278 40.1363 208.642 39.9988 209.022 39.9836H223.967C224.133 39.9773 224.298 40.0099 224.449 40.0789C224.599 40.1478 224.731 40.251 224.834 40.3801C224.936 40.5091 225.006 40.6604 225.038 40.8214C225.07 40.9824 225.063 41.1486 225.018 41.3064L221.942 55.7823C221.897 55.9408 221.891 56.1076 221.924 56.269C221.957 56.4303 222.028 56.5817 222.131 56.7107C222.234 56.8397 222.367 56.9427 222.519 57.0112C222.67 57.0798 222.836 57.1119 223.002 57.1051H237.685C238.064 57.0883 238.427 56.9502 238.719 56.7116C239.012 56.473 239.218 56.1468 239.306 55.7823L248.499 12.734C250.014 5.74569 245.468 0.100098 238.397 0.100098ZM231.094 12.8538L228.013 27.3297C227.927 27.6946 227.722 28.0216 227.43 28.2605C227.138 28.4994 226.775 28.6371 226.396 28.6525H211.451C211.284 28.6605 211.118 28.629 210.966 28.5608C210.814 28.4926 210.681 28.3896 210.577 28.2603C210.473 28.131 210.402 27.9791 210.37 27.8173C210.337 27.6555 210.345 27.4883 210.39 27.3297L213.471 12.8538C213.559 12.4891 213.764 12.1627 214.057 11.9246C214.35 11.6866 214.714 11.5501 215.093 11.536H230.038C230.204 11.528 230.37 11.5593 230.521 11.6273C230.673 11.6952 230.805 11.7979 230.909 11.9267C231.012 12.0556 231.082 12.2069 231.115 12.3682C231.147 12.5294 231.14 12.6959 231.094 12.8538Z" fill="#FF0006"/>
<path d="M146.267 87.7091C144.679 87.7731 143.098 87.4617 141.656 86.8006C140.565 86.2824 139.697 85.3977 139.206 84.3047C138.74 83.1582 138.649 81.8957 138.948 80.6958H143.029C142.908 81.2462 142.949 81.8194 143.146 82.348C143.379 82.9186 143.821 83.3817 144.383 83.6458C145.21 84.0206 146.116 84.1919 147.025 84.145C147.927 84.1628 148.824 84.0138 149.671 83.7057C150.344 83.4607 150.95 83.0662 151.444 82.5527C151.868 82.0966 152.159 81.5362 152.288 80.9304C152.381 80.603 152.376 80.2558 152.273 79.9312C152.17 79.6067 151.973 79.319 151.707 79.1034C151.161 78.6442 150.222 78.3597 148.893 78.2399L147.05 78.0951C145.03 77.922 143.524 77.2848 142.535 76.1833C141.545 75.0818 141.243 73.6242 141.63 71.8106C141.889 70.5116 142.48 69.3 143.348 68.2914C144.221 67.2956 145.318 66.5145 146.55 66.0102C147.903 65.4609 149.355 65.1876 150.818 65.2066C152.215 65.1524 153.604 65.4441 154.858 66.0552C155.86 66.5654 156.647 67.4086 157.081 68.4362C157.518 69.5908 157.589 70.8499 157.283 72.0452H153.202C153.327 71.5074 153.299 70.946 153.121 70.4229C152.934 69.9204 152.577 69.4971 152.111 69.2249C151.491 68.8969 150.793 68.7417 150.09 68.7756C149.353 68.7576 148.621 68.8973 147.944 69.1849C147.37 69.4303 146.865 69.8108 146.474 70.2931C146.116 70.7298 145.866 71.2423 145.742 71.7906C145.666 72.0893 145.659 72.4011 145.722 72.7027C145.785 73.0044 145.916 73.2881 146.105 73.5327C146.489 74.0319 147.201 74.3164 148.242 74.3913L150.085 74.566C151.41 74.6386 152.707 74.9676 153.904 75.5344C154.866 75.9808 155.652 76.7305 156.136 77.6658C156.594 78.6864 156.687 79.8308 156.399 80.9104C156.126 82.2311 155.502 83.4561 154.591 84.4595C153.617 85.5159 152.406 86.3315 151.055 86.8405C149.534 87.4239 147.914 87.712 146.282 87.6891" fill="white"/>
<path d="M176.242 75.7139C176.12 74.7924 175.792 73.9092 175.283 73.1282C174.787 72.3903 174.102 71.796 173.298 71.4061C172.381 70.974 171.373 70.7635 170.358 70.7921C169.133 70.7857 167.922 71.0608 166.823 71.5958C165.668 72.1659 164.67 73.0033 163.913 74.0367C163.625 74.4124 163.367 74.8096 163.141 75.2247L163.979 71.2863H160.746L156.125 93.0001H160.206L161.898 85.0434C162.259 85.8388 162.866 86.501 163.63 86.9352C164.585 87.4488 165.66 87.7052 166.747 87.679C167.85 87.6851 168.942 87.4712 169.959 87.05C170.971 86.63 171.899 86.0369 172.702 85.2979C173.519 84.5424 174.211 83.6649 174.752 82.6973C175.31 81.696 175.712 80.6173 175.944 79.4976L176.076 78.8836C176.315 77.8441 176.365 76.7707 176.222 75.7139M171.924 79.2081C171.732 80.1454 171.354 81.0359 170.813 81.8287C170.315 82.5608 169.657 83.1732 168.888 83.6207C168.147 84.0481 167.302 84.2705 166.444 84.2647C165.722 84.2751 165.01 84.0941 164.383 83.7405C163.78 83.3973 163.304 82.8726 163.024 82.243C162.723 81.5001 162.671 80.6809 162.878 79.9069L163.125 78.7389C163.301 77.8396 163.696 76.9965 164.277 76.283C164.812 75.627 165.489 75.0967 166.257 74.7306C166.982 74.3865 167.776 74.2074 168.58 74.2064C169.354 74.1752 170.117 74.3962 170.752 74.8354C171.331 75.2686 171.744 75.8826 171.924 76.5775C172.142 77.4394 172.142 78.3412 171.924 79.2031" fill="white"/>
<path d="M184.356 87.7085C183.123 87.7434 181.898 87.5135 180.765 87.0346C179.84 86.6328 179.035 86.0038 178.426 85.2077C177.843 84.4368 177.454 83.5404 177.29 82.592C177.118 81.5849 177.144 80.5546 177.365 79.5571L177.497 78.9431C177.732 77.8404 178.159 76.7865 178.759 75.8283C179.378 74.8368 180.152 73.9488 181.052 73.1977C182.983 71.5816 185.437 70.7063 187.967 70.7318C189.167 70.7041 190.36 70.9269 191.467 71.3857C192.397 71.7814 193.209 72.4051 193.826 73.1977C194.418 73.9713 194.816 74.8729 194.988 75.8283C195.168 76.8615 195.143 77.9197 194.912 78.9431L194.78 79.5571C194.548 80.6284 194.136 81.654 193.563 82.592C192.615 84.1656 191.265 85.466 189.65 86.3637C188.034 87.2614 186.209 87.725 184.356 87.7085ZM185.093 84.2143C186.025 84.2305 186.944 84.005 187.76 83.5604C188.538 83.1229 189.2 82.5107 189.694 81.7734C190.216 80.9984 190.58 80.1303 190.765 79.2177C190.97 78.3677 190.97 77.482 190.765 76.632C190.585 75.917 190.158 75.2867 189.558 74.8499C188.87 74.3853 188.047 74.154 187.214 74.191C186.297 74.1803 185.393 74.4075 184.593 74.8499C183.805 75.2884 183.128 75.8977 182.613 76.632C182.07 77.4105 181.694 78.2904 181.507 79.2177C181.302 80.0575 181.302 80.9336 181.507 81.7734C181.682 82.488 182.103 83.1199 182.699 83.5604C183.401 84.028 184.238 84.2575 185.083 84.2143" fill="white"/>
<path d="M195.01 87.1549L198.389 71.2863H201.616L200.187 78.0051H200.101C200.586 75.7289 201.441 74.0051 202.667 72.8338C203.292 72.2487 204.029 71.7924 204.835 71.4916C205.64 71.1908 206.498 71.0515 207.359 71.0817H207.945L207.192 74.6158H206.071C204.836 74.5734 203.625 74.9622 202.652 75.714C201.693 76.5285 201.054 77.6506 200.848 78.8837L199.086 87.1549H195.01Z" fill="white"/>
<path d="M213.724 81.4543C213.627 81.7542 213.6 82.0718 213.643 82.3836C213.687 82.6955 213.801 82.9937 213.977 83.2563C214.192 83.4793 214.457 83.6499 214.751 83.7547C215.045 83.8595 215.359 83.8956 215.669 83.8603H218.169L217.431 87.3545H215.133C213.94 87.4019 212.749 87.2082 211.633 86.7854C211.218 86.6121 210.847 86.3484 210.549 86.0139C210.251 85.6795 210.033 85.2829 209.911 84.8536C209.637 83.6442 209.663 82.3871 209.987 81.1897L211.477 74.2663H208.951L209.593 71.2713H212.118L213.078 66.8037H216.896L215.936 71.2713H220.846L220.214 74.2663H215.295L213.724 81.4543Z" fill="white"/>
<path d="M225.951 87.6489C223.759 87.6489 222.139 87.1863 221.092 86.2612C220.045 85.3361 219.666 84.0549 219.955 82.4176H223.627C223.601 82.6959 223.642 82.9763 223.745 83.2364C223.849 83.4965 224.012 83.7289 224.223 83.9151C224.673 84.3644 225.491 84.589 226.663 84.589C227.511 84.6164 228.353 84.4345 229.113 84.0599C229.404 83.9241 229.661 83.7246 229.863 83.4764C230.065 83.2282 230.207 82.9378 230.279 82.6273C230.346 82.4037 230.345 82.1658 230.275 81.943C230.206 81.7202 230.072 81.5225 229.89 81.3744C229.257 80.9777 228.524 80.765 227.774 80.7604L226.395 80.6106C224.654 80.4176 223.39 79.9184 222.602 79.1131C221.819 78.2945 221.592 77.2063 221.86 75.8386C222.06 74.811 222.548 73.8598 223.269 73.0931C224.002 72.3387 224.903 71.7628 225.9 71.411C227.009 71.0218 228.178 70.8292 229.355 70.8419C231.315 70.8419 232.81 71.2712 233.84 72.1298C234.85 72.9883 235.239 74.2412 234.946 75.8985H231.279C231.322 75.6415 231.298 75.378 231.21 75.1327C231.122 74.8874 230.972 74.6682 230.774 74.4958C230.177 74.0548 229.436 73.8468 228.693 73.9118C227.959 73.8798 227.231 74.0528 226.592 74.411C226.348 74.546 226.135 74.7298 225.966 74.9506C225.797 75.1715 225.677 75.4246 225.612 75.6938C225.547 75.8986 225.543 76.1177 225.6 76.3248C225.657 76.532 225.774 76.7184 225.936 76.8619C226.455 77.2036 227.06 77.3954 227.683 77.4159L229.062 77.5657C230.9 77.7587 232.264 78.2745 233.153 79.1131C234.042 79.9517 234.335 81.0815 234.032 82.5025C233.822 83.5294 233.321 84.4762 232.587 85.2329C231.802 86.0351 230.841 86.6497 229.779 87.0299C228.561 87.4748 227.27 87.6932 225.971 87.6738" fill="white"/>
</g>
<defs>
<clipPath id="clip0_468_1706">
<rect width="265" height="93" fill="white"/>
</clipPath>
</defs>
</svg>
