<?xml version="1.0" encoding="utf-8"?>
<!-- Generator: Adobe Illustrator 25.0.0, SVG Export Plug-In . SVG Version: 6.00 Build 0)  -->
<svg version="1.1" id="Capa_1" xmlns="http://www.w3.org/2000/svg" xmlns:xlink="http://www.w3.org/1999/xlink" x="0px" y="0px"
	 viewBox="0 0 1080 1080" style="enable-background:new 0 0 1080 1080;" xml:space="preserve">
<style type="text/css">
	.st0{fill:#FFFFFF;}
</style>
<g>
	<g>
		<path d="M846.1,0c8.4,0,16.8,0,25.3,0c0.9,0.5,1.8,1.2,2.8,1.4c34.6,6.8,58.7,26.6,72.8,59c1.4,3.1,5.8,5.9,9.3,6.8
			c53.4,13.3,91,45.3,112,96.1c5.4,13.1,7.7,27.6,11.5,41.4c0,263.7,0,527.3,0,791c-0.6,1.6-1.4,3.2-1.7,4.9
			c-4,23.4-15.3,42.4-33.3,57.8c-14.4,12.2-31.5,17.5-49.2,21.7c-303.2,0-606.3,0-909.5,0c-0.9-0.5-1.8-1.2-2.8-1.4
			c-49.9-9.4-81.3-45.7-81.3-96.1c-0.2-254-0.3-508,0.1-762C2.2,150.8,46.9,91.1,113.4,70.8c12.8-3.9,23-7.7,27.2-21.7
			c1.5-5.1,5.8-9.5,9.2-14C165.2,15.3,186.7,5.7,210.3,0c8.4,0,16.8,0,25.3,0c0.9,0.5,1.8,1.2,2.8,1.4C272,8.1,296,26.8,310.3,58.2
			c1.2,2.6,6.4,4.9,9.7,4.9c41.3,0.3,82.6,0.1,123.9,0.3c5.7,0,8.3-1.7,11-6.9c4.6-8.9,10.1-17.7,16.5-25.4
			C486.1,13.4,506.5,5.3,528.2,0c8.4,0,16.8,0,25.3,0c0.9,0.5,1.8,1.2,2.8,1.4c33.6,6.7,57.5,25.5,71.9,56.8
			c1.2,2.6,6.4,4.9,9.7,4.9c41.3,0.3,82.6,0.1,123.9,0.3c5.7,0,8.3-1.7,11-6.9c4.6-8.9,10.1-17.7,16.5-25.4
			C804,13.4,824.4,5.3,846.1,0z M65.1,382.2c0,4.4,0,7.9,0,11.4c0,194.7,0,389.4,0,584.1c0,27.6,11.4,39,39,39
			c291.2,0,582.3,0,873.5,0c27.7,0,39.2-11.4,39.2-38.8c0-194.7,0-389.4,0-584.1c0-3.7,0-7.5,0-11.6
			C699.1,382.2,382.8,382.2,65.1,382.2z M65.5,317.8c317.4,0,633.9,0,950.5,0c0-35.8,0.7-70.9-0.4-105.9
			c-0.4-10.8-4.4-22.1-9.1-32.1c-10.7-22.7-28.2-38.5-53-47.4c0,8.7,0.9,16.2-0.2,23.4c-2,13.4-3,27.6-8.2,39.9
			c-17.3,41.3-58.2,62.3-103.8,55.4c-39-5.9-71-39.8-75.9-82c-1.6-13.7-0.3-27.8-0.3-42c-44.5,0-86.7,0-129.6,0
			c0,10.1,0.1,19.5,0,29c-0.4,24.7-7.6,47.2-24.8,65.4c-26,27.6-58,37.7-94.6,27.5c-38.3-10.7-61.5-36.7-68.1-76
			c-2.5-15-1.9-30.6-2.8-45.8c-42.7,0-84.9,0-127.6,0c0,9.9,1,19.1-0.2,28.1c-2,14.1-3.2,29.1-8.9,41.8
			c-18.5,41.2-58.6,61.2-103.6,54c-39.1-6.3-70.3-40-75.6-82.4c-1.5-11.6-1.2-23.5-1.8-35.4c-33.5,10.1-60.1,43.2-61.8,80.5
			C64.3,248.2,65.5,282.6,65.5,317.8z M254.5,127.3c0-10.5,0.2-21.1,0-31.6c-0.5-18.8-14.1-32.5-31.8-32.4
			c-17.2,0.2-30.8,13.7-31.2,31.8c-0.4,20.7-0.4,41.5,0,62.2c0.3,18.8,14.1,32.5,31.7,32.4c17.6-0.2,30.8-13.9,31.3-32.9
			C254.7,147,254.5,137.2,254.5,127.3z M572.4,126.7c0-10.5,0.3-21.1-0.1-31.6c-0.6-18.1-14.2-31.6-31.4-31.7
			c-17.2-0.1-31.1,13.4-31.5,31.5c-0.4,21.1-0.4,42.2,0,63.3c0.4,18.1,14.1,31.6,31.4,31.7c17.2,0.1,30.9-13.4,31.6-31.5
			C572.7,147.8,572.4,137.2,572.4,126.7z M827.2,126.6c0,10.5-0.3,21.1,0.1,31.6c0.6,18.1,14.2,31.6,31.5,31.6
			c17.2,0,31.1-13.5,31.4-31.6c0.4-21.1,0.4-42.2,0-63.3c-0.4-18.1-14.2-31.6-31.4-31.6c-17.2,0-30.9,13.5-31.5,31.6
			C826.9,105.5,827.2,116,827.2,126.6z"/>
		<path class="st0" d="M210.3,0c-23.7,5.7-45.1,15.3-60.5,35.1c-3.4,4.4-7.7,8.8-9.2,14c-4.2,14-14.4,17.8-27.2,21.7
			C46.9,91.1,2.2,150.8,2.1,220.5c-0.4,254-0.3,508-0.1,762c0,50.4,31.4,86.7,81.3,96.1c1,0.2,1.9,0.9,2.8,1.4
			c-28.8,0-57.5,0-86.3,0c0-360,0-720,0-1080C70,0,140.2,0,210.3,0z"/>
		<path class="st0" d="M1079.8,204.6c-3.7-13.8-6-28.3-11.5-41.4c-21-50.8-58.6-82.8-112-96.1c-3.5-0.9-7.9-3.7-9.3-6.8
			c-14.2-32.4-38.2-52.1-72.8-59c-1-0.2-1.9-0.9-2.8-1.4c69.5,0,138.9,0,208.4,0C1079.8,68.2,1079.8,136.4,1079.8,204.6z"/>
		<path class="st0" d="M528.2,0c-21.7,5.3-42.1,13.4-56.9,31.1c-6.4,7.7-11.9,16.4-16.5,25.4c-2.7,5.2-5.3,6.9-11,6.9
			c-41.3-0.2-82.6,0-123.9-0.3c-3.3,0-8.5-2.3-9.7-4.9C296,26.8,272,8.1,238.4,1.4c-1-0.2-1.9-0.9-2.8-1.4C333.1,0,430.7,0,528.2,0z
			"/>
		<path class="st0" d="M846.1,0c-21.7,5.3-42.1,13.4-56.9,31.1c-6.4,7.7-11.9,16.4-16.5,25.4c-2.7,5.2-5.3,6.9-11,6.9
			c-41.3-0.2-82.6,0-123.9-0.3c-3.3,0-8.5-2.3-9.7-4.9c-14.3-31.4-38.3-50.1-71.9-56.8c-1-0.2-1.9-0.9-2.8-1.4
			C651,0,748.6,0,846.1,0z"/>
		<path class="st0" d="M995.6,1080c17.7-4.2,34.9-9.5,49.2-21.7c18.1-15.3,29.4-34.3,33.3-57.8c0.3-1.7,1.1-3.3,1.7-4.9
			c0,28.1,0,56.2,0,84.4C1051.7,1080,1023.7,1080,995.6,1080z"/>
		<path class="st0" d="M65.1,382.2c317.7,0,634,0,951.6,0c0,4.1,0,7.8,0,11.6c0,194.7,0,389.4,0,584.1c0,27.4-11.5,38.8-39.2,38.8
			c-291.2,0-582.3,0-873.5,0c-27.5,0-38.9-11.5-39-39c0-194.7,0-389.4,0-584.1C65.1,390.1,65.1,386.6,65.1,382.2z M400.6,571.6
			c-2.6,3.1-3.8,4.6-5.2,6c-21.3,21.4-42.6,42.8-63.9,64.2c-10.6,10.6-15.1,23-8.8,37.3c6,13.8,17.6,19.2,32.2,19.2
			c10.2-0.1,20.4-0.4,30.5,0.2c46.1,2.8,74.3,50.4,54,90.8c-12.9,25.7-40.7,39.6-68.3,34.1c-29.3-5.9-48.7-28.5-51.3-60
			c-1.7-20.9-14.8-34.2-33-33.4c-18.7,0.8-30.8,15.7-30.1,37c2.1,64,55.5,118.1,119.4,120.8c54.8,2.4,104.7-29.7,124.3-80
			c19.9-51.1,5.3-108.4-37.8-143.6c-11.7-9.6-25.8-16.4-41.6-26.1c3.1-2,6.8-3.5,9.5-6.2c22.7-22.5,45.2-45.1,67.7-67.8
			c10.3-10.4,14.1-22.7,8.1-36.5c-5.8-13.3-17-19.1-31.2-19.1c-61.7,0-123.5-0.1-185.2,0.1c-19.5,0.1-33.5,13.8-33.3,31.9
			c0.2,18,14.2,31.1,33.9,31.3c32.6,0.2,65.2,0.1,97.8,0.1C391.9,571.6,395.2,571.6,400.6,571.6z M698,616.7c0,71,0,139.2,0,208
			c-4.9,0-9.1,0-13.3,0c-27,0-54-0.3-81,0.2c-18,0.3-31.4,14.6-31.1,31.8c0.2,16.8,13.4,30.2,30.8,31.2c2.4,0.1,4.9,0.1,7.4,0.1
			c79.6,0,159.3,0,238.9,0c2.8,0,5.6,0.1,8.4-0.1c17.3-1.2,30.3-15,30.1-31.9c-0.2-16.4-12.9-29.9-29.7-31.1
			c-5.2-0.4-10.5-0.2-15.8-0.2c-26.6,0-53.1,0-80.7,0c0-4.8,0-8.5,0-12.3c0-79.8,0-159.6,0-239.4c0-10.9,0.3-21.8-0.1-32.7
			c-0.9-19.6-16.3-34.7-34.3-31.3c-8.6,1.6-17.6,7.2-24,13.5c-39.6,38.8-78.6,78.3-117.8,117.6c-2.2,2.2-4.5,4.5-6.4,7
			c-14,18.2-5.6,43.5,16.4,49.7c13.3,3.8,23.9-1.2,33.2-10.6C651.4,663.6,673.9,641,698,616.7z"/>
		<path class="st0" d="M65.5,317.8c0-35.2-1.2-69.7,0.3-104c1.7-37.3,28.3-70.4,61.8-80.5c0.6,11.9,0.4,23.7,1.8,35.4
			c5.3,42.4,36.6,76.2,75.6,82.4c45,7.2,85.1-12.8,103.6-54c5.7-12.7,6.9-27.7,8.9-41.8c1.3-8.9,0.2-18.2,0.2-28.1
			c42.7,0,84.9,0,127.6,0c0.8,15.3,0.2,30.8,2.8,45.8c6.6,39.3,29.8,65.3,68.1,76c36.7,10.2,68.6,0,94.6-27.5
			c17.2-18.2,24.3-40.6,24.8-65.4c0.2-9.4,0-18.9,0-29c42.9,0,85.1,0,129.6,0c0,14.2-1.4,28.3,0.3,42c5,42.2,36.9,76.1,75.9,82
			c45.6,6.9,86.4-14.1,103.8-55.4c5.2-12.3,6.2-26.4,8.2-39.9c1.1-7.2,0.2-14.7,0.2-23.4c24.8,8.9,42.3,24.7,53,47.4
			c4.7,10,8.8,21.3,9.1,32.1c1.1,35,0.4,70.1,0.4,105.9C699.4,317.8,382.9,317.8,65.5,317.8z"/>
		<path class="st0" d="M254.5,127.3c0,9.8,0.2,19.7,0,29.5c-0.4,19-13.6,32.7-31.3,32.9c-17.6,0.2-31.4-13.6-31.7-32.4
			c-0.3-20.7-0.4-41.5,0-62.2c0.3-18.2,14-31.7,31.2-31.8c17.6-0.2,31.3,13.6,31.8,32.4C254.7,106.3,254.5,116.8,254.5,127.3z"/>
		<path class="st0" d="M572.4,126.7c0,10.5,0.3,21.1-0.1,31.6c-0.6,18.1-14.3,31.5-31.6,31.5c-17.2-0.1-31-13.5-31.4-31.7
			c-0.4-21.1-0.4-42.2,0-63.3c0.4-18.1,14.3-31.5,31.5-31.5c17.2,0.1,30.8,13.5,31.4,31.7C572.7,105.6,572.4,116.1,572.4,126.7z"/>
		<path class="st0" d="M827.2,126.6c0-10.5-0.3-21.1,0.1-31.6c0.6-18.1,14.2-31.6,31.5-31.6c17.2,0,31.1,13.5,31.4,31.6
			c0.4,21.1,0.4,42.2,0,63.3c-0.4,18.1-14.2,31.6-31.4,31.6c-17.2,0-30.9-13.5-31.5-31.6C826.9,147.7,827.2,137.1,827.2,126.6z"/>
		<path d="M400.6,571.6c-5.4,0-8.7,0-12.1,0c-32.6,0-65.2,0.1-97.8-0.1c-19.8-0.1-33.7-13.2-33.9-31.3
			c-0.2-18.1,13.8-31.8,33.3-31.9c61.7-0.2,123.5-0.1,185.2-0.1c14.2,0,25.4,5.8,31.2,19.1c6.1,13.8,2.2,26.1-8.1,36.5
			c-22.5,22.7-45,45.3-67.7,67.8c-2.7,2.7-6.4,4.2-9.5,6.2c15.8,9.8,29.8,16.5,41.6,26.1c43.1,35.2,57.7,92.5,37.8,143.6
			c-19.6,50.3-69.5,82.4-124.3,80C312.4,885,258.9,831,256.8,767c-0.7-21.3,11.4-36.3,30.1-37c18.1-0.8,31.3,12.6,33,33.4
			c2.5,31.5,21.9,54.2,51.3,60c27.5,5.5,55.3-8.4,68.3-34.1c20.3-40.4-7.9-88-54-90.8c-10.1-0.6-20.3-0.3-30.5-0.2
			c-14.6,0.1-26.2-5.4-32.2-19.2c-6.3-14.3-1.8-26.7,8.8-37.3c21.3-21.4,42.6-42.8,63.9-64.2C396.8,576.2,398,574.7,400.6,571.6z"/>
		<path d="M698,616.7c-24,24.2-46.5,46.9-69,69.6c-9.3,9.4-19.9,14.4-33.2,10.6c-22-6.3-30.4-31.5-16.4-49.7c1.9-2.5,4.2-4.8,6.4-7
			c39.2-39.3,78.1-78.8,117.8-117.6c6.4-6.3,15.4-11.9,24-13.5c18-3.4,33.4,11.7,34.3,31.3c0.5,10.9,0.1,21.8,0.1,32.7
			c0,79.8,0,159.6,0,239.4c0,3.8,0,7.5,0,12.3c27.6,0,54.1,0,80.7,0c5.3,0,10.5-0.2,15.8,0.2c16.8,1.2,29.6,14.7,29.7,31.1
			c0.2,16.8-12.8,30.6-30.1,31.9c-2.8,0.2-5.6,0.1-8.4,0.1c-79.6,0-159.3,0-238.9,0c-2.5,0-4.9,0.1-7.4-0.1
			c-17.5-1-30.6-14.3-30.8-31.2c-0.2-17.3,13.2-31.5,31.1-31.8c27-0.5,54-0.2,81-0.2c4.2,0,8.4,0,13.3,0
			C698,756,698,687.7,698,616.7z"/>
	</g>
</g>
</svg>
