<?xml version="1.0" encoding="utf-8"?>
<!-- Generator: Adobe Illustrator 25.0.0, SVG Export Plug-In . SVG Version: 6.00 Build 0)  -->
<svg version="1.1" id="Capa_1" xmlns="http://www.w3.org/2000/svg" xmlns:xlink="http://www.w3.org/1999/xlink" x="0px" y="0px"
	 viewBox="0 0 1080 1080" style="enable-background:new 0 0 1080 1080;" xml:space="preserve">
<style type="text/css">
	.st0{fill:#FFFFFF;}
</style>
<g>
	<g>
		<path class="st0" d="M549.3,0C726.1,0,903,0,1079.8,0c0,177.2,0,354.4,0,531.6c-0.8-1.5-1.7-3-2.3-4.6
			c-7.4-19.1-23.8-29.3-43.7-27.1c-18.5,2-32.2,16.4-34.7,36.7c-0.8,6.3-0.3,12.7-1.2,18.9c-4.7,33.7-6.8,68-14.9,100.8
			c-22.7,91.2-71,167.7-142,229c-107.6,93-232.7,128.4-372.6,107.2C362,976.3,272.1,926.7,200.9,845.6
			C93.4,723.2,60.1,581.4,98.6,423.6c23.4-95.9,76.2-174.5,151.7-237.3c65.9-54.9,141.8-88.6,227-100c22.9-3.1,46.2-3.2,69.1-5.8
			c21.5-2.4,35.7-20.2,34.7-41.8C580.1,18,567.1,7,549.3,0z M504.5,637.1c-2.7-4.1-3.5-5.8-4.7-7.1
			c-41.5-45.3-83.1-90.6-124.7-135.8c-15.4-16.8-30.6-33.9-46.5-50.3c-16.7-17.3-40.8-18.2-57.6-2.9c-17.2,15.7-17.4,41.1,0,60.2
			c65.5,71.5,131.1,142.8,196.8,214.1c22.8,24.8,45.4,25.2,69.5,1.2c168.7-168.6,337.3-337.1,506-505.7c3.2-3.2,6.5-6.4,9.2-10.1
			c18-24.1,4.6-58.3-24.9-63.9c-17.5-3.3-30.1,4.8-41.9,16.6C828.3,310.7,670.8,468.1,513.4,625.5
			C510.7,628.3,508.6,631.7,504.5,637.1z"/>
		<path d="M549.3,0c17.8,7,30.8,18,31.8,38.7c1,21.6-13.2,39.3-34.7,41.8c-23,2.6-46.2,2.7-69.1,5.8c-85.2,11.4-161,45.1-227,100
			C174.8,249.1,122,327.7,98.6,423.6c-38.5,157.8-5.2,299.6,102.3,422c71.2,81.1,161.1,130.7,267.5,146.8
			c139.9,21.2,265-14.2,372.6-107.2c71-61.4,119.3-137.8,142-229c8.2-32.8,10.3-67.1,14.9-100.8c0.9-6.2,0.4-12.7,1.2-18.9
			c2.5-20.3,16.3-34.6,34.7-36.7c19.9-2.2,36.3,8,43.7,27.1c0.6,1.6,1.5,3,2.3,4.6c0,13.4,0,26.7,0,40.1c-0.9,7.6-1.7,15.2-2.6,22.8
			C1064.3,710.6,1020,813.1,941.9,900c-83,92.3-185.8,149.9-308.2,171.6c-20.3,3.6-40.8,5.6-61.3,8.4c-21.1,0-42.1,0-63.2,0
			c-3.4-0.6-6.8-1.4-10.2-1.9c-23.5-3.4-47.4-5.3-70.6-10.4c-129-28.1-234.4-94.7-314.7-199.5C27.2,755.5-8.8,627.1,4.8,485.8
			c11-114.1,55.1-214.9,130.8-301C219.2,89.8,323.4,30.6,448,8.4c20.3-3.6,40.8-5.6,61.3-8.4C522.6,0,535.9,0,549.3,0z"/>
		<path class="st0" d="M509.3,0c-20.4,2.8-41,4.8-61.3,8.4C323.4,30.6,219.2,89.8,135.6,184.8C59.9,270.9,15.8,371.8,4.8,485.8
			C-8.8,627.1,27.2,755.5,113.7,868.2C194,973,299.4,1039.6,428.4,1067.7c23.2,5.1,47.1,7,70.6,10.4c3.4,0.5,6.8,1.3,10.2,1.9
			c-169.8,0-339.6,0-509.5,0c0-360,0-720,0-1080C169.6,0,339.4,0,509.3,0z"/>
		<path class="st0" d="M572.4,1080c20.4-2.8,41-4.8,61.3-8.4C756,1049.9,858.9,992.3,941.9,900c78.2-86.9,122.5-189.4,135.4-305.6
			c0.8-7.6,1.7-15.2,2.6-22.8c0,169.5,0,338.9,0,508.4C910.7,1080,741.6,1080,572.4,1080z"/>
		<path d="M504.5,637.1c4.1-5.4,6.1-8.8,8.8-11.5c157.4-157.5,315-314.8,472.4-472.3c11.8-11.8,24.4-19.9,41.9-16.6
			c29.6,5.6,43,39.8,24.9,63.9c-2.7,3.6-6,6.9-9.2,10.1C874.7,379.2,706,547.8,537.4,716.4c-24.1,24-46.6,23.7-69.5-1.2
			c-65.6-71.4-131.2-142.7-196.8-214.1c-17.4-19-17.2-44.5,0-60.2c16.8-15.2,40.9-14.3,57.6,2.9c15.8,16.4,31,33.5,46.5,50.3
			c41.6,45.3,83.2,90.5,124.7,135.8C501,631.2,501.8,632.9,504.5,637.1z"/>
	</g>
</g>
</svg>
