<?xml version="1.0" encoding="utf-8"?>
<!-- Generator: Adobe Illustrator 25.0.0, SVG Export Plug-In . SVG Version: 6.00 Build 0)  -->
<svg version="1.1" id="Capa_1" xmlns="http://www.w3.org/2000/svg" xmlns:xlink="http://www.w3.org/1999/xlink" x="0px" y="0px"
	 viewBox="0 0 1080 1080" style="enable-background:new 0 0 1080 1080;" xml:space="preserve">
<style type="text/css">
	.st0{fill:#FFFFFF;}
</style>
<path class="st0" d="M573.8,1080c-22.5,0-45,0-67.5,0c-6.9-0.9-13.8-1.8-20.7-2.6c-106.7-11.7-202.4-50.5-285.4-118.7
	C96.7,873.7,32.1,765.1,8.3,633c-3.5-19.6-5.6-39.5-8.3-59.3c0-22.5,0-45,0-67.5c0.6-2.7,1.5-5.4,1.7-8.1
	C8.9,405.9,37.3,320.8,89,244.2c86.6-128.5,206.1-208.1,359.1-236c19.3-3.5,38.8-5.5,58.2-8.2c22.5,0,45,0,67.5,0
	c18.4,2.4,36.8,4.3,55.1,7.4C730,24.6,819.3,66.9,896,134.9c94.4,83.7,153.4,187.7,175.7,312.1c3.5,19.6,5.6,39.5,8.3,59.3
	c0,22.5,0,45,0,67.5c-0.6,2.7-1.4,5.4-1.8,8.1c-4.3,27.7-6.9,55.8-13.2,83c-48.1,207.6-222.5,371.5-432,406.9
	C613.3,1075.1,593.5,1077.3,573.8,1080z M1016.7,540c0-262.8-214.2-476.9-476.9-476.7c-262.4,0.2-476,213.6-476.5,476.1
	s213.6,477,476.4,477.3C802.3,1017,1016.7,802.8,1016.7,540z"/>
<path class="st0" d="M508.4,444c0-30.2-0.1-60.4,0-90.7c0.1-20.5,13.1-34.8,31.5-34.8s31.7,14.2,31.7,34.6
	c0.1,54.8-0.1,109.6,0.3,164.5c0,5.2,2.7,11.6,6.3,15.3c56.6,57.2,113.6,114.1,170.5,170.9c8.7,8.7,14.3,18.4,12.2,31
	c-3.9,23.3-30.2,34.2-49.6,20.5c-3.1-2.2-5.9-5-8.6-7.7C642.9,687.7,583.2,627.7,523,568.1c-10.2-10.1-15.2-21-14.9-35.5
	C508.8,503.1,508.4,473.5,508.4,444z"/>
<path class="st0" d="M571.6,191.9c0,10.5,0.2,21-0.1,31.5c-0.5,18-14.1,31.6-31.3,31.7c-17.6,0.2-31.6-13.7-31.9-32.2
	c-0.3-20.7-0.3-41.4,0-62c0.2-18.5,14.2-32.4,31.8-32.3c17.6,0.1,31,14,31.4,32.7C571.8,171.6,571.6,181.7,571.6,191.9z"/>
<path class="st0" d="M191.2,571.6c-10.2,0-20.3,0.2-30.5,0c-18.4-0.5-32.3-14.5-32-32.1c0.3-17.1,14-30.8,31.9-31.1
	c21-0.3,42.1-0.4,63.1,0c17.9,0.3,31.5,14.3,31.5,31.5s-13.5,31.1-31.4,31.6C213,571.9,202.1,571.6,191.2,571.6z"/>
<path class="st0" d="M889.1,508.4c10.2,0,20.3-0.2,30.5,0.1c17.9,0.5,31.5,14.1,31.6,31.4c0.1,17.2-13.4,31.4-31.2,31.7
	c-21.4,0.4-42.8,0.4-64.1,0c-17.7-0.4-31.3-14.7-31.1-31.8c0.2-17.2,13.8-30.8,31.7-31.3C867.4,508.1,878.3,508.4,889.1,508.4z"/>
<path class="st0" d="M508.4,888.2c0-10.5-0.2-21,0.1-31.5c0.5-18,13.9-31.6,31.1-31.9c17.6-0.2,31.7,13.5,32,32
	c0.3,20.7,0.3,41.4,0,62c-0.3,18.6-14,32.5-31.7,32.4c-17.6-0.1-31.1-13.9-31.5-32.6C508.2,908.5,508.4,898.4,508.4,888.2z"/>
<path class="st0" d="M839.8,808.4c0,17.7-13.6,31.4-31.3,31.4c-17.6,0-31.7-14-31.7-31.3c0-17.1,14.5-31.7,31.6-31.7
	C825.8,776.8,839.8,790.9,839.8,808.4z"/>
<path class="st0" d="M240.2,271.3c0.1-17.7,13.8-31.2,31.6-31.1c17.6,0.1,31.6,14.2,31.4,31.6c-0.2,17.2-14.8,31.6-31.9,31.5
	C253.9,303,240.1,288.9,240.2,271.3z"/>
<path class="st0" d="M808.1,240.1c17.6-0.2,31.6,13.5,31.8,31c0.2,17.4-13.7,31.9-31,32.2c-16.8,0.3-31.8-14.3-32.1-31.3
	C776.4,254.9,790.8,240.3,808.1,240.1z"/>
<path class="st0" d="M240.1,808.9c-0.2-17.4,13.7-31.9,30.9-32.2c16.9-0.3,31.8,14.2,32.2,31.2c0.4,17.2-13.8,31.7-31.2,31.9
	C254.4,840.1,240.4,826.4,240.1,808.9z"/>
</svg>
