<?xml version="1.0" encoding="utf-8"?>
<!-- Generator: Adobe Illustrator 25.0.0, SVG Export Plug-In . SVG Version: 6.00 Build 0)  -->
<svg version="1.1" id="Capa_1" xmlns="http://www.w3.org/2000/svg" xmlns:xlink="http://www.w3.org/1999/xlink" x="0px" y="0px"
	 viewBox="0 0 1080 1080" style="enable-background:new 0 0 1080 1080;" xml:space="preserve">
<style type="text/css">
	.st0{fill:#FFFFFF;}
</style>
<g>
	<g>
		<path class="st0" d="M-137.6,1222.8c0-0.4-0.1-0.8-0.1-1.3c0-451.3,0-902.6,0-1354.2c451.7,0,903.4,0,1355.5,0
			c0,451.7,0,903.5,0,1355.5C766,1222.8,314.2,1222.8-137.6,1222.8z M540,304.7c-131.9,0.1-240,108.2-240.1,240.1
			c-0.1,131.8,107.7,240,239.7,240.5c132,0.5,241.2-108.6,240.8-240.7C780.1,412.4,671.9,304.6,540,304.7z M523.6,93.7
			c-4.5,0.4-7.4,0.8-10.3,0.9c-50.7,2.8-99.5,13.8-146.1,33.6C106.2,238.9,9.1,547.6,159.3,787.9c21.8,35,48.4,66.3,79.4,93.5
			c12.9,11.3,29.5,10.4,40.3-1.5c10.3-11.3,9.7-27.2-1.6-39.4c-3.3-3.5-7-6.7-10.5-10C171,734.9,128.6,619.3,150,486.1
			c25.7-159.9,120.4-265.6,273.6-318.3c31.3-10.7,63.6-15.7,98.6-17.2c-1.9,3-2.8,4.4-3.6,5.8c-9.3,14.9-8,29.2,3.6,39.2
			c11.5,9.9,26.9,9.3,39.3-2.8c17.2-16.6,34-33.4,50.6-50.6c11.3-11.7,13.6-26.4,3.9-37c-19.1-20.8-39.2-40.7-59.9-59.9
			c-9.2-8.4-23.5-6.8-33.1,0.9c-9.8,7.8-13.6,20.7-8.8,32.1C516.2,83.2,519.5,87.3,523.6,93.7z M556.9,996.2c4.5-0.4,7.4-0.5,10.3-1
			c30.9-5,62.4-7.2,92.4-15.4c304.5-84,431.1-443.2,246.4-699.5c-18.7-25.9-42-48.6-64.4-71.7c-11.9-12.3-29.4-10.5-40,1.1
			c-10.3,11.3-9.8,27.2,1.5,39.3c3.6,3.9,7.8,7.3,11.4,10.9c95.1,95.4,137.1,210.6,116,343.4C906.2,756.6,816.9,860.9,672,916.8
			c-35.8,13.8-73.4,20.3-113.7,22.2c2.4-3.6,3.8-5.6,5-7.8c7.9-13.6,6-27.7-5-37c-11.3-9.7-26.6-9.5-38.3,1.8
			c-18.1,17.4-35.9,35.1-53.2,53.5c-9.9,10.4-11.4,25.1-2.4,35c19.1,20.7,39.2,40.7,59.9,59.9c9.8,9,25.6,6.7,35.1-2.3
			c9.7-9,11.5-23.5,4.6-35.1C562.1,1003.8,559.8,1000.6,556.9,996.2z"/>
		<path d="M540,304.7c131.8-0.1,240,107.8,240.3,239.7c0.4,132.2-108.7,241.2-240.8,240.7c-132-0.5-239.8-108.7-239.7-240.5
			C300,412.8,408.1,304.8,540,304.7z M723.5,545.5c0.4-101.7-81.1-183.6-182.6-184c-101.5-0.4-183.6,81.1-184,182.6
			c-0.4,101.7,81.1,183.6,182.6,184C641,728.7,723.1,647.1,723.5,545.5z"/>
		<path d="M523.6,93.7c-4-6.4-7.4-10.5-9.4-15.3c-4.8-11.4-1-24.3,8.8-32.1c9.7-7.7,24-9.3,33.1-0.9c20.7,19.2,40.8,39,59.9,59.9
			c9.8,10.7,7.4,25.4-3.9,37c-16.6,17.2-33.4,34-50.6,50.6c-12.4,11.9-27.7,12.7-39.3,2.8c-11.5-9.9-12.9-24.2-3.6-39.2
			c0.9-1.4,1.8-2.8,3.6-5.8c-34.9,1.6-67.4,6.5-98.6,17.2c-153.1,52.7-247.8,158.4-273.6,318.3c-21.5,133.2,21,248.9,116.8,344.4
			c3.4,3.4,7.2,6.5,10.5,10c11.3,12.2,11.9,28.1,1.6,39.4c-10.8,11.8-27.4,12.8-40.3,1.5c-31-27.2-57.5-58.5-79.4-93.5
			c-150.1-240.5-53-549.1,207.8-659.8c46.7-19.8,95.5-30.9,146.1-33.6C516.2,94.5,519,94.1,523.6,93.7z"/>
		<path d="M556.9,996.2c3,4.4,5.3,7.5,7.2,10.7c6.9,11.7,5,26.1-4.6,35.1c-9.5,9-25.4,11.3-35.1,2.3c-20.7-19.1-40.8-39.2-59.9-59.9
			c-9.2-9.9-7.7-24.6,2.4-35c17.3-18.2,35.1-36,53.2-53.5c11.7-11.2,27-11.4,38.3-1.8c10.9,9.4,12.9,23.6,5,37
			c-1.3,2.1-2.8,4.1-5,7.8c40.3-1.9,77.9-8.4,113.7-22.2c144.8-55.9,234.2-160.1,258.4-313.4c21-132.8-20.8-248-116-343.4
			c-3.8-3.8-7.9-7.2-11.4-10.9c-11.3-12.2-11.8-28-1.5-39.3c10.7-11.8,28.1-13.4,40-1.1c22.3,23,45.7,45.7,64.4,71.7
			c184.7,256.3,58.2,615.5-246.4,699.5c-29.9,8.3-61.5,10.4-92.4,15.4C564.3,995.7,561.5,995.9,556.9,996.2z"/>
		<path class="st0" d="M723.5,545.5c-0.4,101.5-82.5,183-184,182.6c-101.5-0.4-183-82.5-182.6-184c0.4-101.5,82.5-183,184-182.6
			C642.5,361.9,723.9,444,723.5,545.5z M566.6,573.4C566.6,573.4,566.6,573.3,566.6,573.4c8.8-0.1,17.7,0.4,26.4-0.3
			c16.9-1.3,28.7-13.4,28.4-28.9c-0.4-14.9-11.8-26.5-28.2-27.6c-10-0.6-20.3,0.6-30.4-0.6c-6.4-0.8-13.6-3.3-18.2-7.4
			c-12.2-10.7-23.1-22.8-34.9-34.3c-14.1-13.6-30.2-14.3-42.2-2.5c-11.9,11.8-11.4,28.2,2.1,42.2c15.7,16.1,30.9,32.6,47.9,47.2
			c7.3,6.3,18.2,9,28,11.7C552.2,574.8,559.6,573.4,566.6,573.4z"/>
		<path d="M566.6,573.4c-7,0-14.4,1.4-21.1-0.4c-9.8-2.6-20.7-5.4-28-11.7c-16.9-14.6-32.3-31.1-47.9-47.2
			c-13.4-13.9-14.1-30.2-2.1-42.2c11.9-11.8,28.1-11,42.2,2.5c11.7,11.3,22.6,23.5,34.9,34.3c4.8,4.1,11.9,6.7,18.2,7.4
			c9.9,1.3,20.2-0.1,30.4,0.6c16.4,1.1,27.9,12.7,28.2,27.6c0.4,15.3-11.4,27.6-28.4,28.9C584.3,573.8,575.4,573.3,566.6,573.4
			C566.6,573.3,566.6,573.4,566.6,573.4z"/>
	</g>
</g>
</svg>
