<?xml version="1.0" encoding="utf-8"?>
<!-- Generator: Adobe Illustrator 25.0.0, SVG Export Plug-In . SVG Version: 6.00 Build 0)  -->
<svg version="1.1" id="Capa_1" xmlns="http://www.w3.org/2000/svg" xmlns:xlink="http://www.w3.org/1999/xlink" x="0px" y="0px"
	 viewBox="0 0 1080 1080" style="enable-background:new 0 0 1080 1080;" xml:space="preserve">
<style type="text/css">
	.st0{fill:#FFFFFF;}
</style>
<g>
	<g>
		<path class="st0" d="M480.9,1080c-160.3,0-320.5,0-480.9,0C0,720.2,0,360.5,0,0c238.3,0,476.7,0,715,0c-2.3,1.6-4.4,3.3-6.8,4.6
			C669.7,25.5,631,46.2,592.4,67.2c-112.8,61.4-188.6,153.4-226,276.3c-8.3,27.4-12.8,55.9-19.2,84.8c-2.9-0.7-7-1.6-10.9-2.8
			c-40.4-11.8-80.9-23.4-121.2-35.5c-6.5-1.9-9.7-1.6-12.7,5.3c-20.5,46.6-39.1,94-51.8,143.4C131,615.2,121.3,692.4,135,771.3
			c24.9,143.6,144,268.1,285.9,298.3C440.7,1073.8,460.9,1076.6,480.9,1080z"/>
		<path class="st0" d="M717.2,0C838.1,0,959,0,1080,0c0,360,0,720,0,1080c-161,0-322.1,0-483.1,0c2.7-0.6,5.3-1.6,8.1-1.8
			c54.3-4.8,105.6-20.2,152.4-47.9c111.9-66.4,177.2-163.8,190-294.1c7.4-74.8-5.7-146.1-42.4-212.5c-25.6-46.3-63-82.1-101.8-117.1
			c-64.7-58.4-98.9-132-102.7-218.9C697.8,124.5,711,62.5,717.2,0z"/>
		<path d="M717.2,0c-6.2,62.5-19.4,124.5-16.6,187.6c3.8,86.9,38,160.5,102.7,218.9c38.8,35,76.1,70.8,101.8,117.1
			c36.7,66.4,49.8,137.8,42.4,212.5c-12.8,130.2-78.1,227.7-190,294.1c-46.8,27.8-98.1,43.1-152.4,47.9c-2.7,0.2-5.4,1.2-8.1,1.8
			c-38.7,0-77.4,0-116,0c-20-3.4-40.1-6.2-60-10.4C279,1039.3,159.9,914.8,135,771.3c-13.7-78.9-3.9-156.1,15.6-232.6
			c12.6-49.4,31.2-96.8,51.8-143.4c3-6.9,6.3-7.2,12.7-5.3c40.3,12.1,80.8,23.8,121.2,35.5c3.9,1.1,8,2,10.9,2.8
			c6.4-28.9,10.9-57.4,19.2-84.8c37.4-122.9,113.3-214.8,226-276.3c38.5-21,77.2-41.7,115.8-62.6c2.4-1.3,4.5-3.1,6.8-4.6
			C715.7,0,716.4,0,717.2,0z M740.2,965.6c26.2-15.5,48.5-35,68.5-57.5c82.7-93.3,101.5-234.7,45.7-344.8
			c-21.2-42-53.9-74.1-88.5-104.8c-96.3-85.6-136.6-193.8-128.4-321.2c0.5-7.2,1.3-14.3,2.3-24.4C478.5,199.6,404.3,333,410,513
			c-56.8-16.5-111.9-32.6-167.6-48.8c-1.6,3.9-3,7-4.3,10.3c-24,62.2-40.1,126.2-45.1,193c-6.6,87.7,15.8,166.2,72,234.5
			c20.5,25,44.4,46.3,73.6,64.7c-41.1-95.2-13.7-181.6,24.8-267.8c22.8,6.6,44.6,12.8,66.9,19.2c0.9-3,1.6-4.9,2.1-6.9
			c14.9-67,50.4-120.3,108.6-156.7c33.3-20.8,68.8-38,103.3-56.7c0.4-0.2,1.2,0.4,2.4,0.8c-3.6,31.9-7.5,64-10.6,96.1
			c-4.6,47.4,9.9,87.9,45,120.6c5.4,5,11,9.8,16.4,14.9c40.7,37.9,61.3,84.6,62.3,140.3C760.4,903.6,753.6,935.1,740.2,965.6z
			 M398,775c-5.3,25.7-11.7,50-15.3,74.8c-10.7,74.7,32,142.6,103,160.9c22.7,5.8,47.3,5.7,71,5.6c58.2-0.1,110.6-37.3,130.8-91.4
			c17.4-46.8,12.7-110.9-38.4-153.1c-30.7-25.3-54.5-56.1-66.1-94.5c-6.4-21.2-9.3-43.5-13.9-65.7c-2.3,1.6-5.8,3.8-9,6.4
			c-45.4,37.2-68.6,85.1-69.5,143.8c-0.2,12.9,0,25.8,0,40C459.4,792.7,430.2,784.3,398,775z"/>
		<path class="st0" d="M740.2,965.6c13.4-30.5,20.2-62,19.6-95.2c-1.1-55.7-21.6-102.4-62.3-140.3c-5.4-5-11-9.8-16.4-14.9
			c-35.1-32.7-49.6-73.2-45-120.6c3.1-32.1,7.1-64.1,10.6-96.1c-1.2-0.4-2-1-2.4-0.8c-34.5,18.8-70,36-103.3,56.7
			c-58.3,36.3-93.7,89.7-108.6,156.7c-0.4,2-1.2,3.9-2.1,6.9c-22.2-6.4-44-12.6-66.9-19.2c-38.5,86.1-65.9,172.6-24.8,267.8
			c-29.2-18.4-53.1-39.7-73.6-64.7c-56.1-68.2-78.5-146.7-72-234.5c5-66.8,21.1-130.8,45.1-193c1.2-3.2,2.6-6.4,4.3-10.3
			C298,480.4,353.2,496.4,410,513c-5.7-179.9,68.5-313.4,229.8-400.1c-1,10.1-1.8,17.2-2.3,24.4c-8.2,127.5,32.1,235.7,128.4,321.2
			c34.6,30.7,67.2,62.9,88.5,104.8c55.8,110.2,37,251.5-45.7,344.8C788.7,930.6,766.4,950.1,740.2,965.6z"/>
		<path class="st0" d="M398,775c32.2,9.3,61.4,17.7,92.6,26.8c0-14.1-0.2-27,0-40c0.9-58.7,24-106.6,69.5-143.8
			c3.1-2.6,6.6-4.7,9-6.4c4.6,22.2,7.4,44.5,13.9,65.7c11.6,38.4,35.5,69.1,66.1,94.5c51.1,42.2,55.8,106.3,38.4,153.1
			c-20.1,54.1-72.6,91.3-130.8,91.4c-23.7,0.1-48.3,0.2-71-5.6c-71-18.3-113.8-86.2-103-160.9C386.4,825,392.7,800.7,398,775z"/>
	</g>
</g>
</svg>
