<?xml version="1.0" encoding="utf-8"?>
<!-- Generator: Adobe Illustrator 25.0.0, SVG Export Plug-In . SVG Version: 6.00 Build 0)  -->
<svg version="1.1" id="Capa_1" xmlns="http://www.w3.org/2000/svg" xmlns:xlink="http://www.w3.org/1999/xlink" x="0px" y="0px"
	 viewBox="0 0 1080 1080" style="enable-background:new 0 0 1080 1080;" xml:space="preserve">
<style type="text/css">
	.st0{fill:#FFFFFF;}
</style>
<g>
	<g>
		<path class="st0" d="M803.7,0c92.1,0,184.2,0,276.3,0c0,360,0,720,0,1080c-360,0-720,0-1080,0C0,720,0,360,0,0
			c263.7,0,527.3,0,791,0c-8.4,5.8-10,14.1-10,23.8c0.2,65.3,0,130.5,0.3,195.8c0,6.9-2,10.7-8.1,13.9c-37.8,20.1-75.4,40.7-113,61
			c-2.6,1.4-5.3,2.5-6.9,3.2c-9.1-18.1-17.5-35.3-26.5-52.3c-6.3-12.1-16.9-19.2-29.7-23.7c-24.2-8.5-68.5,15-75,38
			c-3.6,12.8-4.9,25.2,1.3,36.8c10.8,20.5,17.5,43.7,34.8,57.3c-6.7,20-13.1,38.4-19,57c-3.3,10.7,1.2,19,10.7,21.5
			c9,2.3,16.2-2.3,19.6-12.8c3-9.7,5.7-19.5,8.8-29.2c4.1-12.9,12-22.2,24.4-28.8c62.5-33.4,124.7-67.4,187.1-101.2
			c2.9-1.6,6-2.9,10.3-5.1c-1.7,22.7-11.5,38.9-28.5,50.6c-10.4,7.2-21.4,13.4-32.2,20c-38.7,23.5-77.4,47-116.2,70.4
			c-7.4,4.5-11.7,10.4-9.4,19.1c2.3,8.7,8.8,12.2,17.6,11.7c1,0,1.9,0.3,3.5,0.6c-4.3,12.9-8.3,25.5-12.6,38.1
			c-4.5,13.3-5.8,29.6-14.6,38.8c-9.1,9.5-25.5,12.1-38.8,17.7c-10,4.2-20.1,8.2-32.2,13.1c5.4-19.3,10.4-36.1,14.9-52.9
			c2.5-9.5-1.8-17.2-10.5-20c-8.4-2.7-16.5,1.7-19.8,11c-1.5,4.3-2.7,8.7-3.8,13.1c-8.6,35.3-23,69.1-22.7,106.5
			c0.2,30.5-2.7,61-4.5,91.4c-0.3,4.8-1.4,9.8-3.5,14.1c-21.2,45-42.8,89.8-64,134.9c-2.9,6.1-6.4,8.1-12.9,7.9
			c-13.7-0.4-27.4-0.4-41.1,0c-32.5,0.9-54.5,23.5-54.7,55.8c-0.1,14,0,28,0,40.5c-17.8-0.6-34.9-1.4-51.9-1.6
			c-30.2-0.3-60.5,1.2-90.7-0.4c-37.8-2-65.8,23.2-63.2,63.7c1,15.3,0.2,30.7,0.2,47c-10.6,0-20,0-29.4,0
			c-16.8,0-24.7,5.2-24.4,16.2c0.3,10.6,7.8,15.4,24.1,15.4c251.4,0,502.7,0,754.1,0c55.2,0,110.4,0,165.6,0
			c13.5,0,20.5-5.3,20.7-15.5c0.2-10.5-7-16-21.2-16.1c-11.5,0-23,0-35.6,0c0-4.9,0-8.7,0-12.4c0-33,0-66,0-98.9
			c0-97.2,0.1-194.4-0.1-291.6c-0.1-36.4-22.1-58.1-58.6-58.2c-26.7-0.1-53.4,0-80.2,0c-3.4,0-6.7-0.4-10.4-0.6
			c-0.2-2.9-0.5-4.9-0.5-7c0-87-0.1-174,0.2-261c0-4.5,2.1-9.5,4.4-13.5c13.7-23.5,18.7-48.3,11.7-74.7c-1.4-5.2-7.3-9.3-11.1-13.8
			c-1.8-2.2-4.8-4.2-5-6.6c-0.7-7.2-0.2-14.5-0.2-23c5.3,0,9.4,0,13.6,0c57.3,0,114.6-0.1,171.9,0.1c11.8,0,21.7-2.8,26.6-14.6
			c4.4-10.4,1.2-19.1-10.3-29.3c-13.7-12-27.4-24.1-41.4-36.5c2.6-2.4,4.5-4.3,6.6-6.2c12.9-11.4,25.9-22.7,38.7-34.2
			c7.4-6.7,10.3-14.9,6.9-24.7c-3.6-10.1-11.2-14.8-21.6-15.5c-3.2-0.2-6.3-0.1-9.5-0.1c-55.9,0-111.8,0-167.7,0c-4.1,0-8.3,0-9.2,0
			C811.9,14.4,807.8,7.2,803.7,0z"/>
		<path d="M803.7,0c4.1,7.2,8.2,14.4,13.6,23.9c1,0,5.1,0,9.2,0c55.9,0,111.8,0,167.7,0c3.2,0,6.3-0.1,9.5,0.1
			c10.4,0.7,18.1,5.4,21.6,15.5c3.5,9.8,0.5,18-6.9,24.7c-12.8,11.5-25.8,22.8-38.7,34.2c-2.1,1.8-4,3.8-6.6,6.2
			c14.1,12.4,27.8,24.4,41.4,36.5c11.5,10.1,14.7,18.8,10.3,29.3c-4.9,11.8-14.8,14.7-26.6,14.6c-57.3-0.1-114.6-0.1-171.9-0.1
			c-4.1,0-8.3,0-13.6,0c0,8.4-0.4,15.7,0.2,23c0.2,2.3,3.2,4.4,5,6.6c3.8,4.6,9.7,8.6,11.1,13.8c7,26.4,2,51.3-11.7,74.7
			c-2.4,4-4.4,9-4.4,13.5c-0.3,87-0.2,174-0.2,261c0,2.1,0.3,4.1,0.5,7c3.7,0.2,7.1,0.6,10.4,0.6c26.7,0,53.4,0,80.2,0
			c36.5,0.1,58.6,21.8,58.6,58.2c0.1,97.2,0.1,194.4,0.1,291.6c0,33,0,66,0,98.9c0,3.8,0,7.6,0,12.4c12.6,0,24.1,0,35.6,0
			c14.1,0,21.4,5.6,21.2,16.1c-0.2,10.1-7.3,15.5-20.7,15.5c-55.2,0-110.4,0-165.6,0c-251.4,0-502.7,0-754.1,0
			c-16.3,0-23.8-4.8-24.1-15.4c-0.3-11,7.5-16.2,24.4-16.2c9.4,0,18.8,0,29.4,0c0-16.3,0.8-31.7-0.2-47
			c-2.7-40.5,25.4-65.7,63.2-63.7c30.1,1.6,60.5,0.1,90.7,0.4c17.1,0.1,34.1,1,51.9,1.6c0-12.5-0.1-26.5,0-40.5
			c0.2-32.3,22.2-54.8,54.7-55.8c13.7-0.4,27.4-0.4,41.1,0c6.5,0.2,10-1.7,12.9-7.9c21.1-45.1,42.7-89.9,64-134.9
			c2-4.3,3.2-9.3,3.5-14.1c1.8-30.5,4.7-61,4.5-91.4c-0.3-37.4,14.1-71.2,22.7-106.5c1.1-4.4,2.3-8.8,3.8-13.1
			c3.3-9.3,11.4-13.7,19.8-11c8.7,2.8,13,10.5,10.5,20c-4.5,16.9-9.4,33.6-14.9,52.9c12-4.9,22.1-8.9,32.2-13.1
			c13.2-5.5,29.6-8.2,38.8-17.7c8.8-9.2,10.1-25.6,14.6-38.8c4.2-12.6,8.3-25.2,12.6-38.1c-1.6-0.3-2.6-0.7-3.5-0.6
			c-8.8,0.4-15.3-3-17.6-11.7c-2.3-8.7,2-14.6,9.4-19.1c38.8-23.4,77.5-46.9,116.2-70.4c10.8-6.6,21.8-12.8,32.2-20
			c17-11.8,26.8-28,28.5-50.6c-4.4,2.1-7.4,3.5-10.3,5.1c-62.3,33.8-124.5,67.8-187.1,101.2c-12.4,6.6-20.3,15.8-24.4,28.8
			c-3.1,9.7-5.8,19.5-8.8,29.2c-3.3,10.5-10.6,15.2-19.6,12.8c-9.5-2.5-14-10.7-10.7-21.5c5.8-18.6,12.3-37.1,19-57
			c-17.3-13.6-24-36.7-34.8-57.3c-6.1-11.6-4.8-24.1-1.3-36.8c6.5-23,50.7-46.5,75-38c12.8,4.5,23.3,11.6,29.7,23.7
			c8.9,17,17.4,34.3,26.5,52.3c1.6-0.7,4.3-1.8,6.9-3.2c37.7-20.4,75.2-40.9,113-61c6.1-3.3,8.2-7.1,8.1-13.9
			c-0.3-65.3,0-130.5-0.3-195.8c0-9.7,1.6-18,10-23.8C795.2,0,799.5,0,803.7,0z M551.5,1045.5c58.7,0,116.1,0,174.1,0
			c0-31.3-0.1-61.8,0.1-92.3c0.1-10.7,6.4-17.2,15.7-17.2c9.3,0,15.6,6.6,15.8,17.3c0.2,18.9,0.1,37.9,0.1,56.8
			c0,11.8,0,23.6,0,35.6c58.4,0,115.5,0,173.2,0c0.2-2.9,0.6-5.2,0.6-7.6c0-131.9,0.1-263.8,0-395.6c0-17.7-8.3-25.7-26-25.7
			c-39.4-0.1-78.7-0.1-118.1,0c-22.5,0-29.7,7.1-29.7,29.5c0,74,0,148,0,222c0,12.4-5.7,19.6-15.4,20c-10,0.3-16.2-7.2-16.2-20.1
			c-0.1-22.8,0-45.6,0-68.4c0-21.2-7.9-28.9-29.4-28.9c-38,0-75.9,0-113.9,0c-23.6,0-30.7,7.1-30.7,30.8c0,77.5,0,155,0,232.5
			C551.5,1038,551.5,1041.8,551.5,1045.5z M519.2,1045.7c0.3-2.6,0.6-4.6,0.6-6.6c0-47,0.2-93.9-0.1-140.9
			c-0.1-17.6-8.2-25.3-26.2-25.4c-40.4-0.2-80.7-0.2-121.1,0c-18.4,0.1-26.4,8.2-26.4,26.4c-0.1,45.9,0,91.8,0,137.7
			c0,3,0.4,6,0.6,8.8C404.6,1045.7,461.7,1045.7,519.2,1045.7z M780.5,584.6c0-82.1,0-163.5,0-245.4c-1.7,0.5-2.8,0.5-3.6,1
			c-31.8,19.2-63.7,38.3-95.3,57.9c-3.1,1.9-5.3,6.3-6.6,10c-11,32.5-21.5,65.1-32.7,97.6c-2.3,6.6-1.1,10.7,3.3,15.9
			c20.5,24,40.6,48.3,60.7,72.7c11.1,13.4,15.6,28.4,13.2,46c-4.5,32.6-8.1,65.2-12.2,98.6c6.2,1.5,11.8,2.9,18.2,4.6
			c0-33.2,0-65.4,0-97.6C725.6,609.2,743.4,589,780.5,584.6z M812.9,152.3c55.8,0,110.1,0,166.6,0c-11.4-10.1-21.1-18.6-30.7-27.2
			c-16.1-14.3-16.3-27-0.4-41.3c9.8-8.8,19.6-17.5,30.7-27.3c-3.2-0.6-4.5-1.1-5.7-1.1c-50.9,0-101.8,0.1-152.7-0.2
			c-7.1,0-8,3.3-7.9,9c0.2,18.9,0.1,37.8,0.1,56.8C812.9,131.5,812.9,141.9,812.9,152.3z M314.2,1045.8c0-19.5,0.3-38-0.1-56.5
			c-0.3-12.2-8.4-21.2-20.3-21.4c-44.2-0.5-88.4-0.4-132.7-0.1c-11,0.1-19.5,7.6-19.9,18c-0.9,19.8-0.2,39.6-0.2,59.9
			C198.8,1045.8,255.9,1045.8,314.2,1045.8z M455.4,838.9c0.9,1.1,1.8,2.2,2.7,3.4c3.5-2.9,7.8-5.2,10.5-8.7
			c26.2-34.3,51.2-69.6,78.4-103c19-23.3,32.5-47.9,34.5-78.1c0.3-3.8,1.3-7.6,2-11.4c5.7-32,11.5-63.9,17.6-97.8
			c-24.3,10-47,19.1-69.3,28.8c-2.3,1-3.9,6-4.1,9.3c-2,32.5-2.8,65.2-5.8,97.6c-1.3,14.3-5,29-10.9,42.1
			C493.2,760.9,474,799.8,455.4,838.9z M675.4,738.7c4.2-33.9,8.1-67.5,12.6-101.1c1.3-9.4-0.8-17.2-6.7-24.3
			c-10.1-12.1-20-24.3-30.1-36.4c-6.1-7.4-12.4-14.6-19.7-23c-3,16.4-5.2,31-8.6,45.2c-2.3,9.5-0.7,15.7,8.8,20
			c17.2,7.7,23.9,21.6,24.9,40.2c1.5,26.4,5.1,52.7,7.8,79.4C668.3,738.7,671.4,738.7,675.4,738.7z M620,304.4c0-0.3,0.1-1.8-0.5-3
			c-7.2-14.3-13.9-29-22.1-42.8c-4.7-7.9-13.3-8.5-21.6-5.3c-4.6,1.7-8.9,4.2-13.1,6.5c-11.7,6.5-14.7,15.2-8.9,27.2
			c5.2,10.7,10.8,21.2,16.2,31.8c4.7,9.2,11.8,13.8,22.2,11.6c15.1-3.2,27.2-13.7,27.8-23.8C620,306.2,620,305.8,620,304.4z
			 M578.3,738.6c20.2,0,36.8,0,54,0c-2.7-28.2-5.2-55.7-8.4-83.1c-0.4-3.4-4.8-6.3-8.8-11.2C607.8,678.9,607.9,713.2,578.3,738.6z
			 M502.8,841.1c6.7,1.3,11.4,2.3,15.9,3.2c0-8.3,0-15.2,0-24.3C512.8,827.8,508.4,833.7,502.8,841.1z"/>
		<path class="st0" d="M551.5,1045.5c0-3.7,0-7.5,0-11.3c0-77.5,0-155,0-232.5c0-23.7,7.1-30.8,30.7-30.8c38,0,75.9,0,113.9,0
			c21.6,0,29.4,7.7,29.4,28.9c0,22.8,0,45.6,0,68.4c0,12.9,6.2,20.4,16.2,20.1c9.6-0.3,15.4-7.6,15.4-20c0-74,0-148,0-222
			c0-22.4,7.2-29.5,29.7-29.5c39.4,0,78.7-0.1,118.1,0c17.7,0,25.9,8,26,25.7c0.1,131.9,0.1,263.8,0,395.6c0,2.4-0.4,4.7-0.6,7.6
			c-57.7,0-114.8,0-173.2,0c0-12,0-23.8,0-35.6c0-18.9,0.2-37.9-0.1-56.8c-0.1-10.7-6.5-17.3-15.8-17.3c-9.3,0-15.7,6.6-15.7,17.2
			c-0.2,30.5-0.1,61-0.1,92.3C667.7,1045.5,610.2,1045.5,551.5,1045.5z"/>
		<path class="st0" d="M519.2,1045.7c-57.5,0-114.6,0-172.6,0c-0.2-2.8-0.6-5.8-0.6-8.8c0-45.9-0.1-91.8,0-137.7
			c0-18.1,8.1-26.3,26.4-26.4c40.4-0.2,80.7-0.2,121.1,0c18,0.1,26.2,7.9,26.2,25.4c0.2,47,0.1,93.9,0.1,140.9
			C519.8,1041.1,519.4,1043.2,519.2,1045.7z"/>
		<path class="st0" d="M780.5,584.6c-37.1,4.4-54.9,24.5-54.9,61.2c0,32.2,0,64.4,0,97.6c-6.5-1.6-12.1-3-18.2-4.6
			c4.1-33.4,7.7-66.1,12.2-98.6c2.4-17.5-2.1-32.6-13.2-46c-20.1-24.3-40.2-48.7-60.7-72.7c-4.4-5.1-5.6-9.3-3.3-15.9
			c11.2-32.4,21.7-65.1,32.7-97.6c1.3-3.7,3.5-8.1,6.6-10c31.6-19.6,63.5-38.7,95.3-57.9c0.8-0.5,1.9-0.6,3.6-1
			C780.5,421.1,780.5,502.5,780.5,584.6z"/>
		<path class="st0" d="M812.9,152.3c0-10.5,0-20.8,0-31.2c0-18.9,0.1-37.8-0.1-56.8c-0.1-5.8,0.8-9.1,7.9-9
			c50.9,0.2,101.8,0.1,152.7,0.2c1.3,0,2.5,0.5,5.7,1.1c-11.1,9.8-21,18.5-30.7,27.3c-15.9,14.2-15.8,27,0.4,41.3
			c9.7,8.6,19.3,17.1,30.7,27.2C922.9,152.3,868.7,152.3,812.9,152.3z"/>
		<path class="st0" d="M314.2,1045.8c-58.4,0-115.4,0-173.3,0c0-20.3-0.6-40.2,0.2-59.9c0.4-10.4,8.9-17.9,19.9-18
			c44.2-0.4,88.4-0.4,132.7,0.1c11.9,0.1,20,9.2,20.3,21.4C314.6,1007.8,314.2,1026.4,314.2,1045.8z"/>
		<path class="st0" d="M455.4,838.9c18.6-39.2,37.9-78.1,55.5-117.7c5.8-13.1,9.6-27.8,10.9-42.1c3-32.4,3.8-65.1,5.8-97.6
			c0.2-3.3,1.8-8.3,4.1-9.3c22.4-9.8,45.1-18.9,69.3-28.8c-6.1,33.9-11.8,65.8-17.6,97.8c-0.7,3.8-1.7,7.6-2,11.4
			c-2,30.2-15.6,54.8-34.5,78.1c-27.2,33.4-52.2,68.7-78.4,103c-2.7,3.5-7,5.8-10.5,8.7C457.1,841.2,456.2,840.1,455.4,838.9z"/>
		<path class="st0" d="M675.4,738.7c-4,0-7,0-11,0c-2.7-26.6-6.3-52.9-7.8-79.4c-1.1-18.6-7.7-32.5-24.9-40.2
			c-9.5-4.2-11-10.5-8.8-20c3.4-14.2,5.5-28.8,8.6-45.2c7.2,8.4,13.5,15.6,19.7,23c10.1,12.1,20,24.3,30.1,36.4
			c5.9,7.1,8,14.9,6.7,24.3C683.4,671.2,679.5,704.8,675.4,738.7z"/>
		<path class="st0" d="M620,304.4c0,1.5,0,1.8,0,2.2c-0.7,10-12.7,20.5-27.8,23.8c-10.4,2.2-17.6-2.4-22.2-11.6
			c-5.4-10.6-11-21.1-16.2-31.8c-5.8-11.9-2.8-20.7,8.9-27.2c4.3-2.4,8.6-4.8,13.1-6.5c8.3-3.2,16.9-2.5,21.6,5.3
			c8.2,13.8,14.9,28.4,22.1,42.8C620.1,302.5,619.9,304.1,620,304.4z"/>
		<path class="st0" d="M578.3,738.6c29.6-25.4,29.5-59.6,36.8-94.3c4,4.9,8.5,7.8,8.8,11.2c3.2,27.4,5.6,54.9,8.4,83.1
			C615.2,738.6,598.6,738.6,578.3,738.6z"/>
		<path class="st0" d="M502.8,841.1c5.6-7.5,10-13.3,15.9-21.1c0,9.1,0,16,0,24.3C514.2,843.4,509.5,842.4,502.8,841.1z"/>
	</g>
</g>
</svg>
