<?xml version="1.0" encoding="utf-8"?>
<!-- Generator: Adobe Illustrator 25.0.0, SVG Export Plug-In . SVG Version: 6.00 Build 0)  -->
<svg version="1.1" id="Capa_1" xmlns="http://www.w3.org/2000/svg" xmlns:xlink="http://www.w3.org/1999/xlink" x="0px" y="0px"
	 viewBox="0 0 1080 1080" style="enable-background:new 0 0 1080 1080;" xml:space="preserve">
<style type="text/css">
	.st0{fill:#FFFFFF;}
</style>
<path class="st0" d="M1071,766c-5.2,10.3-13.7,12.9-24.8,12.9c-52.5-0.4-105.1-0.2-157.6-0.2c-3.7,0-7.4,0-12.4,0c0,4.7,0,8.4,0,12
	c0,41.1,0,82.3,0,123.4c0,18.3-5.8,24-24.3,24c-207.7,0-415.4,0-623.2,0c-19.2,0-24.8-5.5-24.8-24.5c0-40.8,0-81.6,0-122.4
	c0-3.7,0-7.5,0-12.6c-4.6,0-8.2,0-11.9,0c-52.9,0-105.8,0-158.6,0c-18.6,0-24.2-5.6-24.2-24c0-30.8-0.3-61.5,0-92.3
	c1.2-110.3,49.7-192.2,147.1-244.7c1.8-1,3.6-2,4.3-2.4c-10.1-15.7-21.7-30.5-29.8-47c-46.5-95.4,16.2-210.6,121.5-224.7
	c36.3-4.9,70,2.2,101.8,19.7c10.5,5.8,14,15,9.6,24.1c-4.5,9.4-14.8,13-25.5,7.2c-26.4-14.1-53.9-20.2-83.9-15.7
	c-56.9,8.5-101.5,59.2-103.6,118.9c-2.1,57.8,40.5,112.4,96.4,123.8c19.6,4,39.1,3.9,58.6-0.7c13-3.1,22.4,1.6,24.9,11.8
	c2.6,11-3.8,19.2-17.1,22.4c-38.1,9.2-74.5,5.3-109.8-12.1c-4.2-2.1-10.9-2.2-15.2-0.4c-88.7,38.6-136.8,106.6-143.3,203
	c-2.1,31.9-0.3,64.1-0.3,96.9c53.7,0,107.1,0,160.6,0c17.5-124.2,82.6-213.7,195.2-270.1c-45.6-50.2-64.2-108.7-51-175.6
	c9.1-46,32.7-84.3,69.9-113c79.9-61.6,187.7-55,257.9,14.7c69.2,68.7,81.9,188.5,2.3,273.7c112,56,176.9,146,195,270.3
	c53,0,106.1,0,159.4,0c0.3-0.4,1.2-0.9,1.2-1.4c-1-50.9,6.1-102.4-9.6-152.4c-21.9-69.8-66.7-118.9-134.4-146.7
	c-4.1-1.7-10.4-1.4-14.3,0.6c-35.5,17.6-72.3,21.5-110.8,12.2c-12.7-3.1-18.9-11-16.7-21.8c2.1-10.3,11.6-15.2,24.4-12.5
	c69.6,14.6,130.7-20.2,150.5-85.6c13.9-46.1-1.5-98.3-39.7-129c-40.6-32.6-85.4-37.6-133.1-16.3c-4.4,2-8.6,4.5-13.1,6.1
	c-9,3.4-17.9,0-22-8.1c-4.1-8.1-2.3-18,6.5-22.5c13.8-7,27.9-14.1,42.7-18c70.2-18.2,139.4,10.9,177.1,73.4
	c35.5,58.9,27.4,134.5-20.2,187.4c-1.6,1.8-3,3.7-4,4.8c18.2,12.2,37.2,22.9,53.9,36.4c56,45.4,88,104.4,96.5,176
	c0.3,2.7,1.2,5.3,1.9,7.9C1071,677.5,1071,721.8,1071,766z M840.5,902.4c0.1-2.9,0.4-5.2,0.4-7.6c0-39.4,1.3-78.8-0.3-118.1
	c-5.2-128.7-66.8-220.3-183.7-274.7c-6.3-2.9-11.2-2.9-17,0.9c-23.3,15-49,23.5-76.5,26.7c-44,5.1-85.1-3.6-123.2-26.5
	c-3.4-2-8.8-3.7-12-2.4c-39.7,15.6-74.8,38.5-104.3,69.5c-57.6,60.4-85,132.8-84.6,216c0.2,34.9,0,69.8,0,104.7c0,3.7,0,7.4,0,11.6
	C440,902.4,639.5,902.4,840.5,902.4z M538.7,495.8c86,1.9,158.9-69.5,160.7-157.5c1.8-86.4-69.3-159.4-157-161.1
	c-87.3-1.7-159.8,68.9-161.7,157.4C378.8,421.3,449.9,493.8,538.7,495.8z"/>
</svg>
