<?xml version="1.0" encoding="utf-8"?>
<!-- Generator: Adobe Illustrator 25.0.0, SVG Export Plug-In . SVG Version: 6.00 Build 0)  -->
<svg version="1.1" id="Capa_1" xmlns="http://www.w3.org/2000/svg" xmlns:xlink="http://www.w3.org/1999/xlink" x="0px" y="0px"
	 viewBox="0 0 1080 1080" style="enable-background:new 0 0 1080 1080;" xml:space="preserve">
<style type="text/css">
	.st0{fill:#FFFFFF;}
</style>
<g>
	<g>
		<path class="st0" d="M0,883.8C0,589.3,0,294.7,0,0c359.8,0,719.5,0,1080,0c0,294.5,0,589.1,0,883.8c-0.6-2-1.5-3.9-1.9-5.9
			c-9.6-57.8-40.3-100.6-92.5-126.7c-17.9-9-38.2-13.3-59.1-20.3c0-17.6,0-37.6,0-57.6c0-27.8-7.3-35.2-34.7-35.2
			c-105.5,0-210.9,0-316.4,0c-4.5,0-9,0-13.6,0c0-22.2,0-43.1,0-63.9c6.6-0.8,12.6-1.6,18.5-2.3c160.1-20.1,272.8-170.3,243.6-328.3
			C803.4,132.7,737.8,56.3,630.4,22.1c-106.2-33.8-202-8.7-283.3,67.7c-15.9,15-28.3,33.9-41.6,51.5c-7,9.2-5.3,18.8,2.5,24.1
			c8.2,5.6,16.9,3,24-7.2c0.8-1.2,1.5-2.4,2.3-3.5C394.3,68,477.1,29.4,581.3,42.8c159.3,20.6,257.2,190.1,198.3,339.7
			c-13.3,33.8-32.9,63.4-58.9,88.6c-0.9-0.6-1.3-0.8-1.4-1c-0.5-0.9-1.2-1.8-1.3-2.8c-5.5-32.4-26.1-52.1-55.2-63.8
			c-13.3-5.3-27.4-8.6-41-13.3c-4.5-1.6-8.4-4.7-13.5-7.6c7.3-6.1,12.9-10.4,18-15.2c25.3-23.7,45.3-51.3,47.6-86.6
			c1.8-27.1,1-55.1-3.8-81.8c-10.7-59.6-60.8-102-118.8-104.4c-59.6-2.5-112.3,34.7-127.9,93.9c-6.1,23-5.8,47.9-7.5,71.9
			c-2.5,35,11.1,64.4,32.9,90.8c9.4,11.3,18.6,22.8,27.9,34.1c0.6,0.4-3.2,3.3-7.4,4.8c-10,3.4-20.3,5.8-30.2,9.1
			c-34.4,11.6-60.4,31.4-66.9,69.7c-0.1,0.6-0.9,1-1.9,2.2c-18.4-17.6-33.6-37.6-45.6-59.9c-31.4-58.3-38-119.7-22.7-183.9
			c2.6-10.9-1.6-18.7-10.3-21c-9.6-2.5-17.8,2.2-19.9,13.4c-3.6,19.3-7.5,38.7-8.7,58.2c-7.5,123.9,72.9,242.2,191,280.6
			c24.1,7.8,49.5,11.9,75,17.9c0,19,0,39.6,0,61.5c-4.9,0-9.4,0-13.9,0c-109.3,0-218.7,0-328,0c-26.1,0-33.7,7.8-33.7,34.1
			c0,20.3,0,40.7,0,60.5c-1.7,0.7-2.3,1.1-3,1.3c-2.8,0.6-5.5,1-8.3,1.6C71.3,749.5,25.9,791.3,5.4,860.3C3.1,868,1.8,876,0,883.8z"
			/>
		<path d="M0,883.8c1.8-7.8,3.1-15.8,5.4-23.5c20.5-69,65.9-110.9,136.8-124.7c2.8-0.5,5.5-1,8.3-1.6c0.7-0.1,1.3-0.5,3-1.3
			c0-19.9,0-40.2,0-60.5c0-26.3,7.7-34.1,33.7-34.1c109.3,0,218.7,0,328,0c4.5,0,9,0,13.9,0c0-21.9,0-42.5,0-61.5
			c-25.5-6-50.9-10-75-17.9C335.9,520.4,255.5,402,263,278.1c1.2-19.5,5.1-38.9,8.7-58.2c2.1-11.2,10.3-15.9,19.9-13.4
			c8.7,2.3,12.9,10.1,10.3,21c-15.4,64.1-8.7,125.5,22.7,183.9c12,22.3,27.2,42.3,45.6,59.9c1.1-1.2,1.9-1.7,1.9-2.2
			c6.5-38.4,32.5-58.2,66.9-69.7c10-3.4,20.3-5.7,30.2-9.1c4.2-1.5,8-4.4,7.4-4.8c-9.3-11.4-18.5-22.8-27.9-34.1
			c-21.8-26.3-35.4-55.8-32.9-90.8c1.7-24.1,1.4-48.9,7.5-71.9c15.7-59.2,68.4-96.4,127.9-93.9c58,2.4,108,44.8,118.8,104.4
			c4.8,26.7,5.5,54.7,3.8,81.8c-2.3,35.3-22.3,62.9-47.6,86.6c-5.1,4.8-10.7,9.1-18,15.2c5.1,2.9,9,6.1,13.5,7.6
			c13.6,4.7,27.7,8,41,13.3c29.1,11.7,49.7,31.3,55.2,63.8c0.2,1,0.8,1.9,1.3,2.8c0.2,0.3,0.5,0.4,1.4,1
			c26-25.2,45.6-54.8,58.9-88.6c58.9-149.6-39-319.1-198.3-339.7C477.1,29.4,394.3,68,334.3,154.7c-0.8,1.2-1.5,2.4-2.3,3.5
			c-7,10.2-15.8,12.9-24,7.2c-7.8-5.3-9.5-14.9-2.5-24.1c13.3-17.6,25.7-36.5,41.6-51.5c81.2-76.4,177-101.6,283.3-67.7
			c107.4,34.2,173,110.5,193.5,221.5c29.2,158-83.5,308.2-243.6,328.3c-5.9,0.7-11.8,1.5-18.5,2.3c0,20.8,0,41.7,0,63.9
			c4.6,0,9.1,0,13.6,0c105.5,0,210.9,0,316.4,0c27.4,0,34.7,7.4,34.7,35.2c0,20,0,39.9,0,57.6c20.9,7,41.1,11.4,59.1,20.3
			c52.2,26.1,82.9,68.9,92.5,126.7c0.3,2,1.2,3.9,1.9,5.9c0,12.7,0,25.3,0,38c-0.6,1.6-1.6,3.1-1.8,4.7
			c-14.8,92.9-96.6,154.9-189.3,143.3c-70.6-8.8-128.3-62.2-143.5-132.9c-14.9-69.3,17.2-142.7,78.5-179.4
			c21.7-13,45.2-20.4,70.3-23.7c0-21.5,0-42.4,0-63.2c-111.3,0-221.8,0-332.5,0c0,21.5,0,42.1,0,63.1c4.8,0.8,9.3,1.6,13.8,2.3
			c89.3,14.5,153.4,105.6,136.7,194.3c-17.6,93.3-99.5,152.2-193.7,139c-108.9-15.3-175-140.8-126-239c5.2-10.4,13.4-14,22.1-9.9
			c8.6,4.1,10.1,12.5,6.7,23.4c-5,16.3-10.9,32.8-12.5,49.7c-3.2,33.2,6.3,63.6,27.3,91.5c8.6-25.2,23.4-44.4,43.4-59.4
			c-26.1-41.6-12.8-83.3,11.5-105.7c27.2-25,68.7-28.3,99.3-7.6c15.4,10.4,26.1,24.5,31.7,42.1c8.1,25.3,3.5,49-10.6,71.4
			c20.8,15.3,34.8,34.7,43.5,59.3c2.9-4.2,5.3-7.2,7.3-10.5c33.9-54.7,25.3-125.5-20.7-170.3c-46.6-45.4-117.5-52.3-171.6-16.7
			c-2.9,1.9-5.8,4.1-9,5.5c-7.9,3.6-14.6,1.3-19.4-5.6c-4.5-6.6-4-13.7,1.7-19.2c4.2-4.1,9.4-7.3,14.5-10.5
			c21.8-13.5,45.8-20.8,71.2-24c0-21.5,0-42.4,0-63.3c-114.7,0-228.8,0-343.1,0c0,21.4,0,42,0,62.9c4.2,0.8,7.9,1.6,11.7,2.3
			c88.2,14.4,150.7,97.8,139.8,186.5c-9.9,80.9-76.1,143.5-157.5,148.9C99,1076.5,24.6,1022,4.9,943.1C3.1,936,1.6,928.9,0,921.8
			C0,909.1,0,896.5,0,883.8z M559.8,542.6c33.2,0.1,80.2-13.5,120.4-39c5.7-3.6,7.9-7.4,7.9-14.3c0.5-37.6-18.6-51.4-50.8-61
			c-3-0.9-7.5,0.6-10.5,2.3c-19.8,11.3-39.6,22.7-59,34.6c-15.4,9.4-30.1,9.2-45.5-0.3c-19.1-11.8-38.6-22.9-58.1-34.1
			c-2.9-1.6-6.8-3.7-9.5-2.9c-28.9,8.2-51.8,20.8-52.4,57.7c-0.1,9.6,2.8,15.1,11.1,20C453.9,529.6,497.3,542.5,559.8,542.6z
			 M278.3,984.1c36.4-43.1,43.9-127.4-16.4-183c-55-50.7-141.5-47.5-192.7,7c-55.3,58.8-41.7,139.9-9,175.6c8.3-24,23-43.2,43-58.1
			c-26.3-41.1-13-83.1,11.4-105.5c27.1-24.9,67.9-28.5,98.4-8.5c15.8,10.4,26.9,24.6,32.6,42.6c8,25.2,3.8,49.1-10.5,71.5
			C255.8,941,269.8,960.3,278.3,984.1z M1020.2,984.3c44.4-53.2,34.9-138.8-19.3-185.7c-56.7-49-141.6-43.9-191.8,11.5
			c-52.8,58.3-39.2,138.9-7.1,173.4c8.4-23.7,22.7-42.9,42.3-57.4c-21.7-47-15.9-84.4,16.5-110c29.3-23.1,70.7-23.3,99.6-0.4
			c14.5,11.5,24.2,26.3,28.6,44.3c5.8,23.4,0.8,45.1-12.3,65.7C997.5,940.6,1011.3,960,1020.2,984.3z M447.1,256.1
			c0.4,6.6-0.5,16.7,1.7,26.2c8.9,39.5,34.1,66,69.8,83.1c17.9,8.6,36,8.2,53.9-0.1c31-14.4,53.8-37.4,65.5-69.4
			c5-13.7,4.8-29.2,6.2-39.2c-15.3-11.2-27.3-18.9-38.1-28.1c-5.8-5-10.9-6.7-18-4.6c-10.1,2.9-20.3,5.6-30.6,7.9
			c-18.7,4.1-36.1-2.9-53.7-7.4c-6.7-1.7-12.1-2.3-18.3,3C474.3,237.2,461.8,245.3,447.1,256.1z M545.7,1040
			c27.3-0.5,52.4-8,75.5-22.9c5.3-3.4,6.8-6.9,5.5-12.9c-4.5-21.6-15.4-39.1-33.5-51.7c-2.9-2-8.7-2.4-12-1
			c-23.9,10.7-47.4,10.8-71.4,0.2c-3.5-1.6-9.7-1-12.9,1.2c-17.5,12.1-27.8,29.2-32.9,49.8c-1.8,7.3,0.6,11.5,6.8,15.4
			C493.8,1032.3,518.7,1039.6,545.7,1040z M168.4,1039.9c27.8-0.4,53.3-7.9,76.7-23c5.4-3.5,6.8-7.3,5.5-13.1
			c-4.7-20.6-15-37.6-31.9-50.6c-5-3.8-9-4.7-15.1-1.7c-22.9,11.1-46.2,11.1-69,0c-6.1-3-10.2-2.1-15.1,1.8
			c-16.7,13.1-27.2,29.9-31.8,50.7c-1.4,6.2,0.3,9.6,5.4,12.9C116,1031.8,141.2,1039.2,168.4,1039.9z M910.3,1039.9
			c27.8-0.3,53.7-7.9,77.2-23.5c4.8-3.2,6.2-6.4,4.9-12.1c-4.5-21.2-15.3-38.2-32.4-51.5c-4.5-3.5-8.4-4.5-14.2-1.6
			c-23.2,11.4-46.8,11.4-70,0c-5.8-2.9-9.6-1.8-14.2,1.7c-16.7,12.6-26.9,29.2-32,49.4c-1.8,7.3,0.3,11.6,6.6,15.5
			C858.9,1031.9,883.5,1039.2,910.3,1039.9z M640.7,217.5c-2.7-50.9-46.7-91.9-96-91.5c-49.2,0.4-92.7,41.6-94.7,90.5
			c2.7-1.9,5.4-3,7-5.1c17.5-22,39.4-24.3,64.3-15.1c14.1,5.2,28.5,6.8,43.2,1.6c5.9-2.1,12.2-3.3,18.2-5
			c16.7-4.6,31.2-1.2,43.4,11.3C630.4,208.5,635.1,212.4,640.7,217.5z M545,830.4c-27.1,0.2-49.1,22.4-48.6,49.2
			c0.5,26.5,22.4,48.2,48.7,48.3c26.7,0.1,49.2-22.3,49.2-49C594.2,852.1,572.1,830.3,545,830.4z M217.7,878.9
			c-0.1-27.3-21.7-48.7-49.1-48.5c-26.7,0.2-48.2,21.7-48.4,48.3c-0.1,26.9,21.9,49.2,48.7,49.2C195.9,928,217.8,906,217.7,878.9z
			 M910.4,830.4c-27.3,0.2-48.5,21.9-48.1,49.4c0.3,26.6,22,48.1,48.5,48.2c26.8,0,49-22.2,48.9-49.1
			C959.7,851.9,937.6,830.2,910.4,830.4z M497,413.1c15.2,8.9,29.6,17.5,44.2,25.9c1.9,1.1,5.1,1.7,6.7,0.8
			c15.4-8.6,30.5-17.6,45.8-26.6c-4.8-6.4-8.6-11.4-12.8-16.9c-23.7,9.5-47.6,9.3-71.1,0.1C505.4,402,501.6,407,497,413.1z"/>
		<path class="st0" d="M0,921.8c1.6,7.1,3.1,14.2,4.9,21.3c19.7,78.9,94.1,133.4,174.8,128.1c81.3-5.3,147.5-67.9,157.5-148.9
			c10.9-88.8-51.6-172.1-139.8-186.5c-3.8-0.6-7.5-1.4-11.7-2.3c0-20.9,0-41.5,0-62.9c114.4,0,228.4,0,343.1,0c0,20.8,0,41.8,0,63.3
			c-25.4,3.2-49.4,10.5-71.2,24c-5.1,3.1-10.2,6.4-14.5,10.5c-5.8,5.6-6.2,12.6-1.7,19.2c4.7,6.8,11.4,9.2,19.4,5.6
			c3.2-1.4,6-3.6,9-5.5c54.1-35.7,125-28.8,171.6,16.7c46,44.9,54.6,115.6,20.7,170.3c-2,3.2-4.3,6.3-7.3,10.5
			c-8.7-24.6-22.7-44-43.5-59.3c14.1-22.3,18.7-46.1,10.6-71.4c-5.6-17.6-16.4-31.7-31.7-42.1c-30.6-20.8-72.2-17.4-99.3,7.6
			c-24.4,22.4-37.6,64.1-11.5,105.7c-19.9,15-34.7,34.2-43.4,59.4c-20.9-27.9-30.5-58.3-27.3-91.5c1.6-16.8,7.5-33.3,12.5-49.7
			c3.4-10.9,1.8-19.3-6.7-23.4c-8.7-4.2-16.9-0.5-22.1,9.9c-49.1,98.3,17.1,223.8,126,239c94.2,13.2,176.1-45.6,193.7-139
			c16.7-88.7-47.4-179.9-136.7-194.3c-4.5-0.7-8.9-1.5-13.8-2.3c0-21,0-41.6,0-63.1c110.8,0,221.2,0,332.5,0c0,20.8,0,41.7,0,63.2
			c-25.1,3.3-48.6,10.7-70.3,23.7c-61.3,36.7-93.4,110.1-78.5,179.4c15.2,70.7,72.9,124.1,143.5,132.9
			c92.7,11.6,174.5-50.4,189.3-143.3c0.3-1.6,1.2-3.2,1.8-4.7c0,52.7,0,105.5,0,158.2c-360,0-720,0-1080,0C0,1027.3,0,974.5,0,921.8
			z"/>
		<path class="st0" d="M559.8,542.6c-62.4-0.1-105.8-13-146.3-37.1c-8.3-4.9-11.2-10.3-11.1-20c0.5-36.9,23.5-49.5,52.4-57.7
			c2.7-0.8,6.6,1.3,9.5,2.9c19.5,11.2,39,22.4,58.1,34.1c15.4,9.5,30,9.7,45.5,0.3c19.5-11.9,39.2-23.3,59-34.6
			c3-1.7,7.5-3.3,10.5-2.3c32.2,9.7,51.3,23.4,50.8,61c-0.1,6.9-2.3,10.7-7.9,14.3C640,529,593,542.7,559.8,542.6z"/>
		<path class="st0" d="M278.3,984.1c-8.5-23.8-22.5-43.1-43.2-58.3c14.3-22.5,18.5-46.3,10.5-71.5c-5.7-18.1-16.8-32.2-32.6-42.6
			c-30.5-20.1-71.3-16.4-98.4,8.5c-24.4,22.4-37.7,64.4-11.4,105.5c-19.9,14.9-34.6,34.1-43,58.1c-32.7-35.7-46.2-116.7,9-175.6
			c51.2-54.5,137.7-57.7,192.7-7C322.2,856.7,314.6,941,278.3,984.1z"/>
		<path class="st0" d="M1020.2,984.3c-8.8-24.3-22.7-43.7-43.4-58.6c13.1-20.6,18.1-42.2,12.3-65.7c-4.4-18-14.1-32.8-28.6-44.3
			c-28.9-22.9-70.3-22.8-99.6,0.4c-32.4,25.6-38.1,63-16.5,110c-19.7,14.5-34,33.6-42.3,57.4c-32.2-34.5-45.8-115.1,7.1-173.4
			c50.2-55.4,135.1-60.5,191.8-11.5C1055.1,845.5,1064.6,931.1,1020.2,984.3z"/>
		<path class="st0" d="M447.1,256.1c14.7-10.8,27.2-19,38.4-28.7c6.2-5.4,11.6-4.8,18.3-3c17.6,4.5,35,11.5,53.7,7.4
			c10.3-2.3,20.5-4.9,30.6-7.9c7.1-2.1,12.2-0.3,18,4.6c10.8,9.2,22.8,16.9,38.1,28.1c-1.5,10-1.3,25.6-6.2,39.2
			c-11.6,32.1-34.4,55-65.5,69.4c-17.9,8.3-36,8.7-53.9,0.1c-35.8-17.2-60.9-43.6-69.8-83.1C446.6,272.9,447.5,262.8,447.1,256.1z"
			/>
		<path class="st0" d="M545.7,1040c-27.1-0.3-51.9-7.7-74.9-21.9c-6.2-3.9-8.6-8.1-6.8-15.4c5-20.6,15.4-37.7,32.9-49.8
			c3.2-2.2,9.4-2.8,12.9-1.2c24,10.7,47.5,10.6,71.4-0.2c3.3-1.5,9.1-1.1,12,1c18.1,12.6,29,30.1,33.5,51.7c1.3,6-0.2,9.5-5.5,12.9
			C598.2,1032,573,1039.5,545.7,1040z"/>
		<path class="st0" d="M168.4,1039.9c-27.2-0.7-52.4-8.1-75.4-23.1c-5.1-3.3-6.8-6.7-5.4-12.9c4.6-20.8,15.1-37.5,31.8-50.7
			c4.9-3.9,9-4.8,15.1-1.8c22.8,11.1,46.2,11.2,69,0c6.1-3,10.2-2.1,15.1,1.7c16.9,13,27.2,30,31.9,50.6c1.3,5.8-0.1,9.7-5.5,13.1
			C221.8,1032,196.2,1039.5,168.4,1039.9z"/>
		<path class="st0" d="M910.3,1039.9c-26.9-0.7-51.4-8-74-22.1c-6.3-3.9-8.5-8.3-6.6-15.5c5.1-20.1,15.3-36.7,32-49.4
			c4.6-3.5,8.4-4.6,14.2-1.7c23.2,11.4,46.8,11.4,70,0c5.8-2.9,9.7-1.9,14.2,1.6c17.1,13.2,27.9,30.2,32.4,51.5
			c1.2,5.8-0.1,9-4.9,12.1C964,1032,938.1,1039.6,910.3,1039.9z"/>
		<path class="st0" d="M640.7,217.5c-5.6-5.1-10.3-9-14.6-13.4c-12.2-12.5-26.7-15.9-43.4-11.3c-6.1,1.7-12.3,2.9-18.2,5
			c-14.7,5.2-29.1,3.6-43.2-1.6c-24.9-9.2-46.8-6.9-64.3,15.1c-1.6,2-4.3,3.2-7,5.1c2-48.9,45.5-90.1,94.7-90.5
			C594,125.6,638,166.6,640.7,217.5z"/>
		<path class="st0" d="M545,830.4c27.1-0.2,49.2,21.6,49.3,48.6c0,26.7-22.4,49.1-49.2,49c-26.3-0.1-48.2-21.8-48.7-48.3
			C495.9,852.8,517.9,830.6,545,830.4z"/>
		<path class="st0" d="M217.7,878.9c0.1,27.1-21.8,49.1-48.7,49.1c-26.9-0.1-48.9-22.3-48.7-49.2c0.1-26.6,21.7-48.1,48.4-48.3
			C196,830.2,217.6,851.6,217.7,878.9z"/>
		<path class="st0" d="M910.4,830.4c27.2-0.2,49.2,21.5,49.3,48.4c0.1,26.9-22.1,49.1-48.9,49.1c-26.5,0-48.2-21.5-48.5-48.2
			C862,852.3,883.2,830.6,910.4,830.4z"/>
		<path class="st0" d="M497,413.1c4.6-6,8.4-11,12.7-16.7c23.5,9.2,47.4,9.4,71.1-0.1c4.2,5.5,8,10.5,12.8,16.9
			c-15.3,8.9-30.4,18-45.8,26.6c-1.6,0.9-4.9,0.2-6.7-0.8C526.6,430.6,512.1,422,497,413.1z"/>
	</g>
</g>
</svg>
