<?xml version="1.0" encoding="utf-8"?>
<!-- Generator: Adobe Illustrator 25.0.0, SVG Export Plug-In . SVG Version: 6.00 Build 0)  -->
<svg version="1.1" id="Capa_1" xmlns="http://www.w3.org/2000/svg" xmlns:xlink="http://www.w3.org/1999/xlink" x="0px" y="0px"
	 viewBox="0 0 1080 1080" style="enable-background:new 0 0 1080 1080;" xml:space="preserve">
<style type="text/css">
	.st0{fill:#FFFFFF;}
</style>
<g>
	<g>
		<path class="st0" d="M78,1080c-26,0-52,0-78,0C0,720.2,0,360.4,0,0c234.1,0,468.3,0,702.5,0c-0.8,0.6-1.5,1.4-2.4,1.9
			c-17.2,7.9-24.6,21.1-21.1,37.7c3.3,15.4,16.1,25.2,34.2,25.5c10.2,0.2,20.4,0,30.6,0c4.6,0,9.1,0,13.7,0c0.2,0.9,0.4,1.9,0.7,2.8
			c-1.2,0.8-2.5,1.4-3.6,2.4c-12.3,11.1-24.2,22.5-36.7,33.2c-96,82.3-204.7,141.8-325.9,177.7c-38.6,11.4-78.6,17.8-118.1,26.3
			c-15.4,3.3-25.9,14.7-26.9,29.6c-1,14.9,8.2,29.1,22.9,32.7c6.9,1.7,14.7,1.7,21.9,0.6c56.8-8.4,112.2-22.5,166.1-42.1
			c128.2-46.6,242-116.5,340.9-210.5c1.9-1.8,4-3.2,7.4-5.9c0,17.2-0.4,32.6,0.1,48c0.7,21.9,18.3,36,39,32.1
			c15.7-3,25.8-16.3,25.9-34.9c0.1-38.7-0.5-77.3,0.3-116c0.4-19.9-6.5-33.9-25.4-41.3c78,0,156,0,234.1,0c0,360,0,720,0,1080
			c-24.6,0-49.2,0-73.7,0c0.5-0.5,0.9-1.1,1.5-1.4c17.7-7.9,26-21.3,22.8-36.8c-3.5-17.1-16.4-26.7-36.3-26.9
			c-7.3-0.1-14.6,0-22.9,0c0-6.1,0-11,0-15.8c0-223.2,0-446.4,0-669.6c0-4.6,0.1-9.2-0.3-13.7c-1.5-19.2-13.7-31.2-32.9-31.3
			c-55.5-0.3-111.1-0.3-166.6,0c-19.8,0.1-32.6,13.4-33.3,33.3c-0.1,3.5,0,7,0,10.5c0,224.3,0,448.5,0,672.8c0,4.4,0,8.8,0,13.1
			c-27.4,0-53.2,0-80,0c0-4.8,0-8.9,0-13.1c0-143.4-0.5-286.8,0.4-430.2c0.2-32.4-16.1-44.6-43.5-43.9c-48.8,1.2-97.7,1.3-146.6,0
			c-28.6-0.7-43.6,12.6-43.4,42.9c0.8,143.8,0.4,287.5,0.4,431.3c0,4.4,0,8.8,0,13c-27.6,0-53.4,0-80,0c0-5.3,0-9.8,0-14.3
			c0-163.4,0-326.9,0-490.3c0-4.9,0-9.9-0.8-14.7c-2.8-15.7-14.6-26.6-30.6-26.7c-56.9-0.3-113.9-0.3-170.8,0
			c-15.6,0.1-27.2,10.8-30,26.1c-0.9,5.1-1,10.5-1,15.7c-0.1,163.8,0,327.6,0,491.4c0,4.4,0,8.7,0,13.6c-10.3,0-18.7-0.4-27.1,0.1
			c-19.1,1.1-33,15.4-32.3,33.3C53.5,1065,63.8,1074.1,78,1080z"/>
		<path d="M78,1080c-14.3-5.9-24.5-15-25.2-31.6c-0.7-17.9,13.2-32.3,32.3-33.3c8.4-0.5,16.8-0.1,27.1-0.1c0-4.9,0-9.3,0-13.6
			c0-163.8,0-327.6,0-491.4c0-5.2,0.1-10.6,1-15.7c2.8-15.3,14.4-26,30-26.1c56.9-0.4,113.9-0.4,170.8,0c16,0.1,27.8,10.9,30.6,26.7
			c0.9,4.8,0.8,9.8,0.8,14.7c0,163.4,0,326.9,0,490.3c0,4.5,0,9,0,14.3c26.5,0,52.4,0,80,0c0-4.3,0-8.6,0-13
			c0-143.8,0.4-287.5-0.4-431.3c-0.2-30.3,14.8-43.6,43.4-42.9c48.8,1.3,97.7,1.2,146.6,0c27.4-0.7,43.7,11.5,43.5,43.9
			c-0.9,143.4-0.4,286.8-0.4,430.2c0,4.1,0,8.3,0,13.1c26.8,0,52.6,0,80,0c0-4.3,0-8.7,0-13.1c0-224.3,0-448.5,0-672.8
			c0-3.5-0.1-7,0-10.5c0.6-19.8,13.5-33.2,33.3-33.3c55.5-0.3,111.1-0.2,166.6,0c19.2,0.1,31.4,12.1,32.9,31.3
			c0.4,4.5,0.3,9.1,0.3,13.7c0,223.2,0,446.4,0,669.6c0,4.8,0,9.7,0,15.8c8.3,0,15.6-0.1,22.9,0c19.9,0.2,32.8,9.8,36.3,26.9
			c3.1,15.5-5.2,28.9-22.8,36.8c-0.6,0.3-1,0.9-1.5,1.4C696.8,1080,387.4,1080,78,1080z M906.1,1014.5c0-222.1,0-443.1,0-664.5
			c-34.4,0-68.2,0-101.8,0c0,222.1,0,443.3,0,664.5C838.6,1014.5,871.9,1014.5,906.1,1014.5z M279.7,1014.6c0-160.4,0-320.7,0-481.3
			c-34.1,0-68,0-101.7,0c0,160.9,0,320.9,0,481.3C212.2,1014.6,245.5,1014.6,279.7,1014.6z M592.9,593.2c-34.8,0-68.3,0-101.9,0
			c0,140.9,0,280.8,0,421c34.3,0,67.9,0,101.9,0C592.9,873.6,592.9,733.7,592.9,593.2z"/>
		<path d="M845.9,0c18.9,7.4,25.8,21.4,25.4,41.3c-0.8,38.7-0.1,77.3-0.3,116c-0.1,18.6-10.2,31.9-25.9,34.9
			c-20.8,3.9-38.3-10.3-39-32.1c-0.5-15.4-0.1-30.8-0.1-48c-3.3,2.6-5.5,4.1-7.4,5.9c-98.9,94-212.7,164-340.9,210.5
			c-53.9,19.6-109.3,33.7-166.1,42.1c-7.1,1.1-14.9,1.1-21.9-0.6c-14.6-3.7-23.9-17.8-22.9-32.7c1-14.9,11.5-26.2,26.9-29.6
			c39.4-8.6,79.5-14.9,118.1-26.3c121.1-35.9,229.8-95.5,325.9-177.7c12.5-10.7,24.5-22.2,36.7-33.2c1-0.9,2.4-1.6,3.6-2.4
			c-0.2-0.9-0.4-1.9-0.7-2.8c-4.6,0-9.1,0-13.7,0c-10.2,0-20.4,0.2-30.6,0c-18-0.4-30.9-10.1-34.2-25.5
			c-3.5-16.6,3.9-29.8,21.1-37.7c0.9-0.4,1.6-1.2,2.4-1.9C750.3,0,798.1,0,845.9,0z"/>
		<path class="st0" d="M906.1,1014.5c-34.2,0-67.5,0-101.8,0c0-221.2,0-442.4,0-664.5c33.6,0,67.4,0,101.8,0
			C906.1,571.4,906.1,792.4,906.1,1014.5z"/>
		<path class="st0" d="M279.7,1014.6c-34.2,0-67.5,0-101.7,0c0-160.3,0-320.4,0-481.3c33.7,0,67.5,0,101.7,0
			C279.7,693.9,279.7,854.2,279.7,1014.6z"/>
		<path class="st0" d="M592.9,593.2c0,140.4,0,280.4,0,421c-34.1,0-67.6,0-101.9,0c0-140.2,0-280.2,0-421
			C524.6,593.2,558.1,593.2,592.9,593.2z"/>
	</g>
</g>
</svg>
