<?xml version="1.0" encoding="utf-8"?>
<!-- Generator: Adobe Illustrator 25.0.0, SVG Export Plug-In . SVG Version: 6.00 Build 0)  -->
<svg version="1.1" id="Capa_1" xmlns="http://www.w3.org/2000/svg" xmlns:xlink="http://www.w3.org/1999/xlink" x="0px" y="0px"
	 viewBox="0 0 1080 1080" style="enable-background:new 0 0 1080 1080;" xml:space="preserve">
<style type="text/css">
	.st0{fill:#FFFFFF;}
</style>
<g>
	<g>
		<path class="st0" d="M0,1080C0,720.1,0,360.1,0,0c359.9,0,719.8,0,1080,0c0,359.9,0,719.9,0,1080C720.1,1080,360.1,1080,0,1080z
			 M286.9,303c-12.2,1.1-24.7,1.1-36.7,3.3C144.3,325.8,72.1,386.3,43.5,490c-28.5,103.4,2,192.9,84.1,261.8
			c19,16,27.4,30.5,24.5,53.9c-1.1,9.2,0.9,18.8,1.5,28.2c0.2,3.9,1.4,8.1,0.5,11.7c-5.4,20.2-0.9,37.8,14.3,51.9
			c4.8,4.4,5,7.5,3,13.3c-9,26.6,1.7,51.3,26.3,63.9c3.2,1.6,6.4,5.2,7.5,8.6c12.2,38.5,43.6,62.9,81.6,63
			c38.1,0,69.5-24.3,81.7-62.8c1-3.2,3.5-6.8,6.4-8.3c26.7-14,36.1-37,27.2-66.2c-0.9-2.9,0.5-8,2.8-10.2
			c10.9-10.6,18.2-23.2,16.7-38.3c-1.3-13.1-1.6-25.6,0.1-38.7c1.7-13.5,0.7-27.4,0.2-41.1c-0.3-7.1,2.1-11.1,8-15.3
			c66.9-47.4,104.4-112.3,109.7-193.9C548.9,426.6,432.1,303.7,286.9,303z M698.1,313.2c4.1,6.6,6.1,11.6,9.6,15.2
			c11.4,12,23.2,23.5,35,35.2c21.5,21.4,24.2,21.4,45.5,0c3.8-3.8,6.6-8.4,14-4.9c6.6,3.1,8.9,6.7,8.1,13.5
			c-0.5,4.2-0.1,8.4-0.1,12.6c0.3,13.8,6.2,19.9,20,20c16.2,0.1,32.4,0,48.5,0c30.9,0,32.7-1.6,32.6-32.7c0-6,0.2-10.2,7.2-13
			c6.6-2.6,10.3-1.1,14.3,3.7c2.9,3.5,6.3,6.6,9.7,9.7c9.7,9.2,17.9,9.3,27.5-0.1c11.8-11.5,23.4-23.3,35.1-35
			c21.4-21.4,21.4-23.8-0.1-45.5c-3.8-3.9-8.2-6.7-4.8-14.1c3.1-6.7,6.8-8.8,13.5-8c4.2,0.4,8.4,0.1,12.7,0.1
			c13.7-0.3,19.8-6.3,20-20.1c0.1-16.2,0-32.3,0-48.5c0-30.9-1.6-32.6-32.8-32.5c-6,0-10.2-0.4-13-7.3c-2.7-6.7-1-10.3,3.8-14.3
			c3.5-2.9,6.6-6.3,9.7-9.7c9.1-9.7,9.2-17.9-0.1-27.5c-11.5-11.8-23.3-23.4-35-35.1c-21.4-21.4-23.9-21.4-45.4,0.2
			c-4.4,4.4-7.8,7.4-15.1,4.3c-7-3-7.3-7.3-7.1-13.1c0.2-4.2,0.1-8.4,0-12.7c-0.3-13.7-6.3-19.8-20.1-19.9c-16.2-0.1-32.4,0-48.5,0
			c-30.9,0-32.7,1.6-32.4,32.8c0.1,6.9-1.7,10.4-8.3,13.4c-6.7,3-9.6-0.3-13.3-4.2c-3.1-3.3-6.4-6.6-9.7-9.7
			c-9.8-9.1-18-9.2-27.5,0.1c-11.8,11.5-23.4,23.3-35.1,35c-21.4,21.4-21.4,23.9,0.1,45.5c3.8,3.8,8.3,6.6,4.8,14.1
			c-3.1,6.7-6.8,8.8-13.5,8.1c-4.2-0.5-8.4-0.1-12.7-0.1c-13.8,0.3-19.8,6.2-19.9,20.1c-0.1,16.2,0,32.3,0,48.5
			c0,30.9,1.6,32.6,32.8,32.6c6,0,10.4,0.2,13,7.3c2.2,5.9,1.5,9.3-2.8,13.6C711.1,297.6,705,305.4,698.1,313.2z M449.9,800
			c3.6,1.5,6.4,2.7,9.4,3.7c84.4,29.9,169.2,30.8,254.2,2.7c6.3-2.1,11.3-4.2,17.8,2c22,21,53.2,24.1,78.9,9.3
			c25.8-14.9,38.7-44.3,31.5-73.9c-1.5-6.3,0.3-9.3,4.4-13.3c15-14.8,30.6-29.2,44-45.3c54.5-65.2,83.1-140.9,88.3-225.5
			c1.1-18.4,0.2-36.9,0.2-56.4c-13.2,1.3-23.8,2.4-34.2,3.4C945.9,539,896.8,657.2,820,707.5c-28-18.1-51.3-20.9-75-7.7
			c-28,15.6-38.5,40.4-35.4,72.4c-83,28.5-165.4,27.2-247.8-3C457.6,780.1,453.8,789.8,449.9,800z M245.1,262.3
			c10.6,5.3,19.9,10,29.8,15c26.3-49.4,60.9-90.7,105.3-123.2c45.1,33.5,107.5,5.2,110.1-55c59.6-17.7,119.9-19.2,181.1-5.8
			c2.6-11.7,4.8-21.8,7.1-32.2c-3.1-0.9-5-1.7-7-2.1c-61.3-12.8-122.2-11-182.6,5.5c-6.1,1.7-9.7,1.3-14.1-4.2
			c-20.6-26.4-54.2-34-83.1-19.5c-28.7,14.4-43.2,46.3-34.8,78.1c1.5,5.8,1.2,9-3.6,13.3c-19.1,17.1-38.3,34.1-55.8,52.8
			C276.3,207.5,259.5,233.5,245.1,262.3z"/>
		<path d="M286.9,303c145.2,0.6,262,123.6,252.6,268.3c-5.3,81.7-42.8,146.5-109.7,193.9c-5.9,4.2-8.2,8.3-8,15.3
			c0.5,13.7,1.5,27.6-0.2,41.1c-1.7,13.1-1.4,25.6-0.1,38.7c1.5,15.1-5.8,27.7-16.7,38.3c-2.2,2.2-3.7,7.3-2.8,10.2
			c8.9,29.2-0.5,52.2-27.2,66.2c-2.8,1.5-5.4,5.2-6.4,8.3c-12.1,38.5-43.6,62.8-81.7,62.8c-37.9,0-69.4-24.5-81.6-63
			c-1.1-3.4-4.3-6.9-7.5-8.6c-24.6-12.6-35.2-37.3-26.3-63.9c2-5.8,1.7-8.9-3-13.3c-15.3-14.1-19.7-31.7-14.3-51.9
			c1-3.6-0.2-7.8-0.5-11.7c-0.6-9.4-2.6-19-1.5-28.2c2.9-23.4-5.5-37.9-24.5-53.9C45.6,682.9,15.1,593.4,43.5,490
			c28.6-103.7,100.8-164.1,206.7-183.7C262.2,304.1,274.7,304.1,286.9,303z M388.2,809.4c0-12.3,1-24-0.2-35.4
			c-1.7-16.1,5.3-25,18.4-34.1c76-52.6,110.2-125.8,96.9-217.2C486.2,405.2,379,325.9,260.1,339.2C153.8,351.1,68.7,444,67.7,550.9
			c-0.7,82.7,34.6,146.9,104,191.9c10,6.5,14.8,13.9,14,25.9c-0.8,13.5-0.2,27.1-0.2,40.4c29,0,56.6,0,84.9,0c0-11.3,0-21.7,0-32.1
			c11.5,0,22.1,0,33.6,0c0,11.2,0,21.6,0,32.5C332.1,809.4,359.4,809.4,388.2,809.4z M286.9,877.5c26.7,0,53.4,0.1,80.2,0
			c13.3,0,21-6.4,21-16.9c0-10.5-7.8-16.8-21-16.8c-53.4-0.1-106.9-0.1-160.3,0c-13.3,0-21,6.4-21,16.9c0,10.5,7.7,16.8,21,16.8
			C233.5,877.5,260.2,877.5,286.9,877.5z M286.2,945c22.1,0,44.3,0.1,66.4,0c13.2-0.1,18.8-5.4,18.7-17.2
			c-0.1-11.3-5.7-16.5-18.3-16.5c-43.9-0.1-87.9-0.1-131.8,0c-13.2,0-18.8,5.3-18.7,17.2c0.1,11.3,5.7,16.5,18.3,16.5
			C242.6,945,264.4,945,286.2,945z M333.1,978.7c-16,0-31.1,0-46.2,0c-15.3,0-30.6,0-46.2,0c6,20,24.8,33.5,45.7,33.7
			C307.7,1012.7,326.9,999.2,333.1,978.7z"/>
		<path d="M698.1,313.2c6.8-7.8,13-15.6,20-22.6c4.4-4.3,5-7.7,2.8-13.6c-2.6-7.1-7-7.3-13-7.3c-31.2,0-32.8-1.6-32.8-32.6
			c0-16.2-0.1-32.3,0-48.5c0.1-13.8,6.2-19.8,19.9-20.1c4.2-0.1,8.5-0.4,12.7,0.1c6.8,0.7,10.4-1.4,13.5-8.1
			c3.5-7.4-1-10.2-4.8-14.1c-21.5-21.6-21.5-24.1-0.1-45.5c11.7-11.7,23.3-23.5,35.1-35c9.6-9.3,17.7-9.3,27.5-0.1
			c3.3,3.1,6.6,6.4,9.7,9.7c3.7,3.9,6.5,7.2,13.3,4.2c6.6-3,8.4-6.5,8.3-13.4c-0.2-31.2,1.5-32.8,32.4-32.8c16.2,0,32.4-0.1,48.5,0
			c13.8,0.1,19.9,6.2,20.1,19.9c0.1,4.2,0.2,8.4,0,12.7c-0.3,5.9,0.1,10.1,7.1,13.1c7.3,3.1,10.7,0.1,15.1-4.3
			c21.5-21.6,24.1-21.6,45.4-0.2c11.7,11.7,23.5,23.3,35,35.1c9.4,9.6,9.3,17.8,0.1,27.5c-3.1,3.3-6.2,6.7-9.7,9.7
			c-4.7,4-6.5,7.6-3.8,14.3c2.8,6.9,7,7.3,13,7.3c31.2,0,32.8,1.6,32.8,32.5c0,16.2,0.1,32.3,0,48.5c-0.1,13.8-6.2,19.8-20,20.1
			c-4.2,0.1-8.5,0.4-12.7-0.1c-6.7-0.7-10.4,1.3-13.5,8c-3.4,7.4,1,10.2,4.8,14.1c21.5,21.7,21.5,24.1,0.1,45.5
			c-11.7,11.7-23.3,23.5-35.1,35c-9.6,9.4-17.8,9.2-27.5,0.1c-3.3-3.1-6.8-6.2-9.7-9.7c-4-4.8-7.7-6.3-14.3-3.7c-7,2.8-7.2,7-7.2,13
			c0,31.1-1.7,32.7-32.6,32.7c-16.2,0-32.4,0.1-48.5,0c-13.8-0.1-19.8-6.2-20-20c-0.1-4.2-0.4-8.5,0.1-12.6
			c0.8-6.8-1.5-10.4-8.1-13.5c-7.5-3.5-10.2,1-14,4.9c-21.3,21.4-24,21.4-45.5,0c-11.7-11.7-23.6-23.2-35-35.2
			C704.3,324.8,702.2,319.8,698.1,313.2z M877.7,370.7c0-6.3,0-11.5,0-16.8c0.1-13.1,3.4-17,15.7-21.4c9.2-3.3,18.2-7.4,27-11.6
			c8-3.8,15.2-3.2,21.2,3.2c4.5,4.8,8.3,10.4,11.7,14.8c10.2-9.8,18-17.1,27.5-26.2c-4.4-3.5-8.8-6.5-12.5-10.2
			c-9.6-9.4-10-14.3-4.4-26.1c4-8.5,7.7-17.3,10.7-26.3c3.2-9.7,9.3-14.4,19.5-14.1c5.9,0.1,11.8,0,18,0c0-11.7,0-22.3,0-33.8
			c-5.8,0-11,0-16.2,0c-13.3-0.1-17.2-3.2-21.6-15.5c-3.2-8.9-6.8-17.7-11.1-26.1c-4.7-9.2-3.7-16.9,3.8-23.7
			c4.4-4,9.2-7.5,13.3-10.7c-9.2-9.8-16.5-17.6-25.9-27.6c-3.5,4.5-6.3,9.1-9.9,12.8c-9.7,9.9-14.6,10.3-27,4.3
			c-7.9-3.8-15.9-7.5-24.3-10c-10.7-3.2-15.9-9.5-15.4-20.7c0.2-5.8,0-11.6,0-17.3c-12,0-22.4,0-33.8,0c0,5.7,0,10.9,0,16.1
			c-0.1,13.8-3.1,17.4-16.2,22.1c-8.6,3.1-17.1,6.5-25.1,10.7c-9.1,4.7-17,4.1-23.7-3.6c-4.1-4.7-7.5-10-10.6-14.3
			c-10.6,10.1-18.2,17.4-28.3,27c4.6,3.4,9.3,6,13,9.7c10.1,9.8,10.5,14.6,4.5,27c-3.9,8.2-7.6,16.6-10.3,25.3
			c-3.3,10.2-9.6,15-20.2,14.6c-5.8-0.2-11.7,0-17.3,0c0,12.1,0,22.8,0,33.8c5.7,0,10.6,0,15.6,0c13.9,0.1,17.7,3.1,22.3,16
			c3,8.6,6.4,17.1,10.7,25.1c5.1,9.6,3.9,17.6-4,24.5c-4.5,3.9-9.6,7-12.5,9.1c9.7,10.7,16.9,18.6,25.4,28
			c3.7-4.4,6.8-8.6,10.5-12.4c9.3-9.4,14.2-9.7,26.2-4.1c8.5,4,17.4,7.6,26.3,10.6c9.2,3.2,13.9,8.9,13.8,18.7c-0.1,6.2,0,12.4,0,19
			C855.6,370.7,866,370.7,877.7,370.7z"/>
		<path d="M449.9,800c3.9-10.2,7.7-19.9,11.9-30.8c82.4,30.3,164.8,31.5,247.8,3c-3.1-31.9,7.4-56.8,35.4-72.4
			c23.8-13.2,47.1-10.5,75,7.7c76.8-50.3,125.9-168.5,124.4-300.8c10.4-1,20.9-2.1,34.2-3.4c0,19.5,1,38-0.2,56.4
			c-5.2,84.6-33.8,160.3-88.3,225.5c-13.5,16.1-29.1,30.5-44,45.3c-4.1,4-6,7-4.4,13.3c7.2,29.6-5.7,59-31.5,73.9
			c-25.7,14.8-56.9,11.7-78.9-9.3c-6.5-6.2-11.5-4.1-17.8-2c-85.1,28.1-169.8,27.2-254.2-2.7C456.3,802.7,453.5,801.5,449.9,800z
			 M810.2,758.9c-0.2-18.3-15.5-33.4-33.9-33.3c-18.3,0.1-33.5,15.2-33.6,33.6c-0.1,18.7,15.6,34.2,34.4,33.9
			C795.4,792.7,810.4,777.2,810.2,758.9z"/>
		<path d="M245.1,262.3c14.4-28.8,31.2-54.7,52.4-77.3c17.5-18.6,36.8-35.7,55.8-52.8c4.8-4.3,5.2-7.5,3.6-13.3
			c-8.4-31.8,6.1-63.7,34.8-78.1c28.9-14.5,62.5-6.9,83.1,19.5c4.3,5.6,8,5.9,14.1,4.2c60.4-16.5,121.3-18.3,182.6-5.5
			c2,0.4,4,1.2,7,2.1c-2.3,10.4-4.5,20.5-7.1,32.2C610.3,79.8,550,81.3,490.4,99c-2.6,60.2-65,88.5-110.1,55
			c-44.5,32.5-79,73.8-105.3,123.2C265,272.3,255.7,267.6,245.1,262.3z M455.7,101.6c0.3-18.3-14.7-33.8-32.9-34.2
			c-18.4-0.4-34,14.4-34.5,32.7c-0.5,18.8,14.7,34.6,33.5,34.8C440,134.9,455.4,119.9,455.7,101.6z"/>
		<path class="st0" d="M388.2,809.4c-28.8,0-56.1,0-84.1,0c0-10.9,0-21.3,0-32.5c-11.4,0-22.1,0-33.6,0c0,10.4,0,20.8,0,32.1
			c-28.3,0-55.8,0-84.9,0c0-13.2-0.6-26.8,0.2-40.4c0.7-12-4.1-19.4-14-25.9c-69.4-45-104.7-109.3-104-191.9
			c0.9-106.9,86.1-199.9,192.4-211.7c118.9-13.3,226.1,66,243.2,183.5c13.3,91.5-20.9,164.7-96.9,217.2c-13.1,9.1-20.1,18-18.4,34.1
			C389.2,785.5,388.2,797.1,388.2,809.4z M303.8,741.9c0-4.6,0-8.4,0-12.2c0-77.7,0.1-155.3-0.1-233c0-6.8,1-11,8-14.7
			c20.6-10.9,29.9-34.4,23.9-56.5c-6-22.2-26-37.6-48.9-37.5c-22.9,0.1-42.8,15.5-48.7,37.9c-5.9,22.2,3.7,45.5,24.4,56.3
			c6.6,3.5,7.7,7.4,7.7,13.9c-0.2,78-0.1,156-0.1,234c0,3.8,0,7.5,0,11.8C281.5,741.9,291.9,741.9,303.8,741.9z M236.3,725.1
			c0-41.3-0.6-81.3,0.3-121.3c0.3-14.6-3.1-26.1-14.9-34.8c-5.8-4.3-6.7-8.9-4.5-16.2c6.7-22-3.5-45.6-23.3-56.8
			c-20-11.4-44.8-8-61.1,8.4c-16,16.1-19.3,40.4-8.2,60.2c11.2,20,34.5,30,56.6,24.1c12.6-3.3,21.2,3.4,21.2,16.7
			c0.1,36.2,0,72.3,0,108.5c0,3.7,0,7.4,0,11.1C214.4,725.1,224.8,725.1,236.3,725.1z M371.3,725.2c0-40.8,0-80.4,0-120.1
			c0-12.7,8.9-19.7,20.6-16.5c22.2,6,45.5-3.5,57-23.4c11.5-19.9,8.2-44.8-8.2-61.1c-16.4-16.3-41.2-19.5-61.1-7.9
			c-19.8,11.6-29.6,34.8-22.9,57c2,6.7,1.5,11.3-4.1,15.3c-12.7,9.1-15.7,21.5-15.3,36.7c0.9,36.1,0.3,72.3,0.3,108.5
			c0,3.7,0,7.4,0,11.5C349.3,725.2,359.7,725.2,371.3,725.2z"/>
		<path class="st0" d="M286.9,877.5c-26.7,0-53.4,0.1-80.2,0c-13.3,0-21-6.3-21-16.8c0-10.5,7.7-16.9,21-16.9
			c53.4-0.1,106.9-0.1,160.3,0c13.3,0,21,6.3,21,16.8c0,10.5-7.7,16.8-21,16.9C340.4,877.5,313.7,877.5,286.9,877.5z"/>
		<path class="st0" d="M286.2,945c-21.8,0-43.6,0.1-65.4,0c-12.6-0.1-18.1-5.2-18.3-16.5c-0.1-11.8,5.5-17.2,18.7-17.2
			c43.9-0.1,87.9-0.1,131.8,0c12.6,0,18.2,5.2,18.3,16.5c0.1,11.8-5.5,17.1-18.7,17.2C330.5,945,308.3,945,286.2,945z"/>
		<path class="st0" d="M333.1,978.7c-6.2,20.5-25.5,33.9-46.7,33.7c-20.8-0.2-39.6-13.7-45.7-33.7c15.6,0,30.9,0,46.2,0
			C302,978.7,317.1,978.7,333.1,978.7z"/>
		<path class="st0" d="M877.7,370.7c-11.7,0-22.1,0-33.8,0c0-6.6,0-12.8,0-19c0.1-9.7-4.7-15.5-13.8-18.7
			c-8.9-3.1-17.7-6.6-26.3-10.6c-12-5.7-16.9-5.3-26.2,4.1c-3.7,3.7-6.8,8-10.5,12.4c-8.5-9.4-15.7-17.3-25.4-28
			c2.9-2.1,8-5.2,12.5-9.1c8-6.9,9.1-14.9,4-24.5c-4.3-8-7.7-16.5-10.7-25.1c-4.6-12.9-8.3-15.9-22.3-16c-4.9,0-9.8,0-15.6,0
			c0-11,0-21.7,0-33.8c5.6,0,11.4-0.2,17.3,0c10.6,0.3,17-4.4,20.2-14.6c2.8-8.6,6.4-17.1,10.3-25.3c5.9-12.4,5.6-17.1-4.5-27
			c-3.7-3.6-8.4-6.3-13-9.7c10.1-9.6,17.6-16.8,28.3-27c3.2,4.3,6.5,9.7,10.6,14.3c6.7,7.6,14.6,8.3,23.7,3.6
			c8.1-4.2,16.6-7.7,25.1-10.7c13.2-4.7,16.1-8.3,16.2-22.1c0-5.2,0-10.4,0-16.1c11.4,0,21.8,0,33.8,0c0,5.7,0.2,11.5,0,17.3
			c-0.4,11.1,4.7,17.5,15.4,20.7c8.3,2.5,16.4,6.2,24.3,10c12.5,6,17.3,5.7,27-4.3c3.7-3.7,6.5-8.3,9.9-12.8
			c9.4,10,16.7,17.8,25.9,27.6c-4,3.2-8.9,6.7-13.3,10.7c-7.5,6.8-8.5,14.5-3.8,23.7c4.3,8.4,7.9,17.2,11.1,26.1
			c4.4,12.3,8.3,15.4,21.6,15.5c5.2,0,10.4,0,16.2,0c0,11.4,0,22.1,0,33.8c-6.3,0-12.2,0.1-18,0c-10.2-0.3-16.3,4.5-19.5,14.1
			c-3,8.9-6.7,17.7-10.7,26.3c-5.6,11.8-5.2,16.7,4.4,26.1c3.7,3.7,8.1,6.7,12.5,10.2c-9.5,9-17.2,16.4-27.5,26.2
			c-3.4-4.4-7.1-10-11.7-14.8c-6-6.4-13.2-7-21.2-3.2c-8.9,4.2-17.8,8.3-27,11.6c-12.3,4.4-15.6,8.3-15.7,21.4
			C877.7,359.2,877.7,364.4,877.7,370.7z M945.2,219.5c0.1-46.6-37.8-84.6-84.4-84.6c-46.1,0-84,37.6-84.4,83.6
			c-0.3,46.6,37.4,84.9,83.9,85.1C906.9,303.8,945.1,265.9,945.2,219.5z"/>
		<path class="st0" d="M810.2,758.9c0.2,18.3-14.8,33.8-33.1,34.1c-18.7,0.3-34.4-15.1-34.4-33.9c0.1-18.3,15.3-33.5,33.6-33.6
			C794.6,725.5,810,740.6,810.2,758.9z"/>
		<path class="st0" d="M455.7,101.6c-0.3,18.3-15.7,33.3-34,33.2c-18.7-0.1-34-16-33.5-34.8c0.5-18.3,16.1-33.1,34.5-32.7
			C441,67.8,456,83.3,455.7,101.6z"/>
		<path d="M303.8,741.9c-11.9,0-22.3,0-33.8,0c0-4.3,0-8,0-11.8c0-78-0.1-156,0.1-234c0-6.5-1.1-10.4-7.7-13.9
			c-20.7-10.8-30.2-34.1-24.4-56.3c5.9-22.3,25.8-37.8,48.7-37.9c22.9-0.1,42.9,15.3,48.9,37.5c6,22.1-3.3,45.6-23.9,56.5
			c-7.1,3.7-8.1,8-8,14.7c0.2,77.7,0.1,155.3,0.1,233C303.8,733.6,303.8,737.4,303.8,741.9z M287,421.8c-9.1-0.1-16.8,7.5-16.9,16.7
			c-0.1,9.1,7.5,16.8,16.7,16.9c9.1,0.1,16.8-7.6,16.9-16.7C303.8,429.6,296.2,421.9,287,421.8z"/>
		<path d="M236.3,725.1c-11.4,0-21.9,0-33.8,0c0-3.7,0-7.4,0-11.1c0-36.2,0-72.3,0-108.5c0-13.4-8.6-20.1-21.2-16.7
			c-22.1,5.8-45.4-4.1-56.6-24.1c-11.1-19.8-7.8-44,8.2-60.2c16.3-16.4,41-19.8,61.1-8.4c19.8,11.2,30,34.9,23.3,56.8
			c-2.2,7.3-1.2,11.9,4.5,16.2c11.7,8.7,15.2,20.2,14.9,34.8C235.7,643.8,236.3,683.8,236.3,725.1z M168.9,556.7
			c9.1-0.1,16.7-7.9,16.6-17c-0.1-9.1-7.8-16.7-17-16.6c-9.2,0.1-16.7,7.8-16.6,17C152.1,549.2,159.8,556.8,168.9,556.7z"/>
		<path d="M371.3,725.2c-11.6,0-22,0-33.8,0c0-4,0-7.7,0-11.5c0-36.2,0.6-72.3-0.3-108.5c-0.4-15.2,2.6-27.6,15.3-36.7
			c5.6-4,6.1-8.6,4.1-15.3c-6.7-22.2,3.1-45.4,22.9-57c19.9-11.6,44.7-8.4,61.1,7.9c16.4,16.3,19.7,41.1,8.2,61.1
			c-11.5,19.9-34.7,29.4-57,23.4c-11.7-3.2-20.6,3.8-20.6,16.5C371.3,644.7,371.3,684.4,371.3,725.2z M404.7,523.1
			c-9.1,0.2-16.6,8-16.4,17.2c0.2,9.1,8,16.6,17.1,16.4c9.1-0.2,16.6-8.1,16.4-17.2C421.7,530.4,413.8,522.9,404.7,523.1z"/>
		<path d="M945.2,219.5c-0.1,46.5-38.3,84.3-84.9,84.1c-46.4-0.2-84.2-38.5-83.9-85.1c0.3-46,38.2-83.6,84.4-83.6
			C907.4,134.9,945.3,172.9,945.2,219.5z M911.5,218.9c-0.2-27.6-22.8-50.2-50.4-50.3c-28-0.1-51,22.9-50.8,50.9
			c0.1,27.5,22.9,50.2,50.4,50.3C888.6,269.9,911.6,246.9,911.5,218.9z"/>
		<path class="st0" d="M287,421.8c9.1,0.1,16.8,7.8,16.7,16.9c-0.1,9.1-7.8,16.8-16.9,16.7c-9.1-0.1-16.7-7.8-16.7-16.9
			C270.2,429.4,277.9,421.8,287,421.8z"/>
		<path class="st0" d="M168.9,556.7c-9.1,0.1-16.9-7.5-17-16.6c-0.1-9.1,7.5-16.9,16.6-17c9.1-0.1,16.9,7.5,17,16.6
			C185.6,548.8,178,556.6,168.9,556.7z"/>
		<path class="st0" d="M404.7,523.1c9.1-0.2,17,7.3,17.2,16.4c0.2,9.1-7.3,17-16.4,17.2c-9.1,0.2-16.9-7.3-17.1-16.4
			C388.1,531.1,395.6,523.3,404.7,523.1z"/>
		<path class="st0" d="M911.5,218.9c0.2,28-22.8,51-50.8,50.9c-27.5-0.1-50.3-22.8-50.4-50.3c-0.2-28,22.8-51,50.8-50.9
			C888.6,168.7,911.3,191.3,911.5,218.9z"/>
	</g>
</g>
</svg>
