<?xml version="1.0" encoding="utf-8"?>
<!-- Generator: Adobe Illustrator 25.0.0, SVG Export Plug-In . SVG Version: 6.00 Build 0)  -->
<svg version="1.1" id="Capa_1" xmlns="http://www.w3.org/2000/svg" xmlns:xlink="http://www.w3.org/1999/xlink" x="0px" y="0px"
	 viewBox="0 0 1080 1080" style="enable-background:new 0 0 1080 1080;" xml:space="preserve">
<style type="text/css">
	.st0{fill:#FFFFFF;}
</style>
<g>
	<g>
		<path class="st0" d="M90.3,1080c-30.2,0-60.3,0-90.5,0c0-359.8,0-719.6,0-1080c219.6,0,439.3,0,658.9,0
			c-18.2,8.4-24.6,22.8-23.4,42.4c1.1,17.5,0.1,35.1,0.3,52.6c0.2,19.6,13.5,33.6,31.5,33.6c18,0,31.3-14,31.5-33.6
			c0.2-17.5-0.8-35.1,0.3-52.6c1.2-19.6-5.2-34-23.4-42.4c134.7,0,269.5,0,404.2,0c0,360,0,720,0,1080c-70.9,0-141.8,0-212.6,0
			c1.6-0.6,3.2-1.4,4.9-1.7c40.9-6.8,73.3-39.2,77.5-80.3c1.6-15.7-1-31.8-1.7-49c0,0,2.3-1,4.5-1.8c59.7-22.5,80.9-93.4,42.9-145
			c-4.8-6.5-2.8-10.1,1.1-15.3c24-32.3,24.1-77.9-0.2-110.1c-5.1-6.8-4.1-10.7,0.4-17.1c17.1-23.9,22.2-50.6,14.1-79
			c-12.5-43.7-47.5-70-93.5-70.3c-40.7-0.3-81.4-0.1-122.1-0.1c-19.3,0-38.5,0-57.6,0c-0.3-1.4-0.7-2.1-0.5-2.7
			c0.5-2.1,1.1-4.1,1.7-6.1c17-60.6,25.3-122.4,23.1-185.4c-1.8-51.1-26.4-88.4-71.8-111.8c-26-13.5-54.1-13-82.3-12.5
			c-18.9,0.3-30.2,9-35,27.2c-3.9,14.6-7.5,29.2-10.8,43.9c-15.9,71.1-47.3,134.2-97.1,187.5c-22.5,24.1-48.3,43.9-80.2,54.3
			c-4.8,1.5-8,2.6-11-3.3c-19.3-38.2-51.2-54.7-93.3-54.4c-57.5,0.4-115.1,0.1-172.6,0.1c-29.6,0-40.3,10.9-40.3,40.8
			c0,183.2,0.2,366.3-0.3,549.5C66.8,1057.1,72.1,1071.6,90.3,1080z M433.3,116.4c2.7,6.7,3.8,14.8,8.3,19.7
			c16.1,17.6,32.8,34.7,50.5,50.7c11.8,10.7,30,8.5,41.1-2.6c10.8-10.9,13.3-28.8,3-40.3c-16.4-18.2-33.9-35.5-52-52.1
			c-8.9-8.2-20.9-8-31.7-2.8C441.5,94.2,435.6,103.3,433.3,116.4z M899.6,121.7c-0.7-18.1-6.7-27.9-18.7-33.2
			c-12.3-5.4-24.4-3.8-34.2,5.6C831.3,109,816,124,801.3,139.6c-12.8,13.5-12.4,32.2-0.2,44.5c12.5,12.7,31.3,12.7,45.2-0.6
			c14.7-14.1,29.3-28.3,43-43.4C894.9,134.1,897.6,125.5,899.6,121.7z"/>
		<path d="M90.3,1080c-18.2-8.4-23.5-22.9-23.4-42.5c0.5-183.2,0.3-366.3,0.3-549.5c0-29.9,10.8-40.8,40.3-40.8
			c57.5,0,115.1,0.3,172.6-0.1c42-0.3,74,16.2,93.3,54.4c3,5.9,6.3,4.8,11,3.3c32-10.4,57.7-30.2,80.2-54.3
			c49.8-53.3,81.2-116.4,97.1-187.5c3.3-14.7,7-29.4,10.8-43.9c4.8-18.2,16.1-26.8,35-27.2c28.1-0.5,56.2-1,82.3,12.5
			c45.4,23.5,70,60.8,71.8,111.8c2.2,62.9-6.1,124.8-23.1,185.4c-0.6,2-1.2,4-1.7,6.1c-0.1,0.6,0.2,1.3,0.5,2.7
			c19.1,0,38.4,0,57.6,0c40.7,0,81.4-0.3,122.1,0.1c46,0.4,81,26.6,93.5,70.3c8.1,28.4,3,55.1-14.1,79c-4.5,6.3-5.6,10.3-0.4,17.1
			c24.3,32.1,24.1,77.8,0.2,110.1c-3.8,5.2-5.8,8.8-1.1,15.3c37.9,51.6,16.7,122.5-42.9,145c-2.2,0.8-4.5,1.8-4.5,1.8
			c0.7,17.2,3.4,33.3,1.7,49c-4.2,41-36.6,73.5-77.5,80.3c-1.7,0.3-3.2,1.1-4.9,1.7c-100.4,0-200.7,0-301.1,0c-3-0.7-6.1-1.4-9.1-2
			c-20.2-3.9-40.9-6.3-60.5-12.1c-38.2-11.3-75.9-24.3-113.6-37.1c-7.1-2.4-10.3-1.3-14,5.3c-8.4,15-20.5,26.7-36,34.3
			c-9.6,4.7-19.9,7.8-29.9,11.7C232.1,1080,161.2,1080,90.3,1080z M382.9,766.1c0,62.2,0.1,124.5-0.2,186.7c0,7.3,2.1,10.4,8.9,12.6
			c35.3,11.4,70.6,23.2,105.8,35.1c27.1,9.1,54.8,15.6,83.4,15.8c91.6,0.5,183.2,0.4,274.7,0.4c18.4,0,32-13.2,32.6-30.5
			c0.6-17.2-12.1-30.8-30.5-32.6c-20.3-2-33.2-15-32.5-32.8c0.7-18.3,14.7-30.4,35.8-30.5c18.6-0.1,37.2,0.1,55.8-0.1
			c20.5-0.2,34.6-13.3,34.6-31.7c0-18.4-14.2-31.4-34.8-31.5c-18.9-0.1-37.9,0.1-56.8-0.1c-20.5-0.2-34.6-13.3-34.6-31.7
			c0.1-18.4,14.2-31.3,34.8-31.5c18.9-0.1,37.9,0.1,56.8-0.1c20.4-0.2,34.6-13.3,34.5-31.8c-0.1-18.4-14.3-31.3-34.9-31.4
			c-18.6-0.1-37.2,0-55.8-0.1c-21.3-0.1-35.7-13-35.5-31.8c0.1-18.8,14.4-31.3,36-31.4c20-0.1,40,0.4,60-0.3
			c17.4-0.6,30.4-14.8,30.2-31.7c-0.1-16.4-12.9-29.9-29.7-31.2c-3.5-0.3-7-0.2-10.5-0.2c-101.4,0-202.8,0-304.2-0.1
			c-20.4,0-34.6-13.4-34.4-31.9c0.2-18,14.2-31.1,33.9-31.3c17.5-0.2,35.1-0.4,52.6,0.1c7,0.2,10.5-1.7,12.9-8.6
			c20.6-61.3,29.2-124.4,26.1-188.8c-1.4-29.4-23.3-51.7-52.1-56.8c-16.8-3-17.3-3-20.9,13.7c-18.4,84.5-54.7,159.8-113.9,223.3
			c-33.6,36-72.5,64.2-121.4,75.7c-7.8,1.8-6.8,6.4-6.8,11.6C382.9,642.4,382.9,704.3,382.9,766.1z M131,510.6
			c0,169.3,0,337.4,0,506.2c4.5,0,8.3,0,12.1,0c45.6,0,91.2,0,136.8,0c28.9,0,39.9-11.1,39.9-40.1c0-141.9,0-283.9,0-425.8
			c0-3.2,0.1-6.3-0.1-9.5c-1-17.1-13.3-30.4-30.2-30.5C236.9,510.3,184.4,510.6,131,510.6z"/>
		<path d="M675.6,0c18.2,8.4,24.6,22.8,23.4,42.4c-1.1,17.5-0.1,35.1-0.3,52.6c-0.2,19.6-13.5,33.6-31.5,33.6
			c-18,0-31.3-14-31.5-33.6c-0.2-17.5,0.8-35.1-0.3-52.6c-1.2-19.6,5.2-34,23.4-42.4C664.4,0,670,0,675.6,0z"/>
		<path class="st0" d="M302.9,1080c10-3.8,20.3-7,29.9-11.7c15.5-7.5,27.6-19.3,36-34.3c3.7-6.6,6.9-7.7,14-5.3
			c37.7,12.8,75.4,25.8,113.6,37.1c19.7,5.8,40.3,8.2,60.5,12.1c3.1,0.6,6.1,1.3,9.1,2C478.4,1080,390.7,1080,302.9,1080z"/>
		<path d="M433.3,116.4c2.3-13,8.3-22.2,19.2-27.4c10.9-5.2,22.8-5.4,31.7,2.8c18.1,16.6,35.6,33.9,52,52.1
			c10.3,11.5,7.8,29.4-3,40.3c-11.1,11.2-29.3,13.4-41.1,2.6c-17.6-16-34.3-33.1-50.5-50.7C437.1,131.1,436,123,433.3,116.4z"/>
		<path d="M899.6,121.7c-2,3.7-4.8,12.4-10.3,18.5c-13.6,15.1-28.3,29.3-43,43.4c-13.9,13.3-32.7,13.2-45.2,0.6
			c-12.2-12.4-12.6-31.1,0.2-44.5C816,124,831.3,109,846.8,94.2c9.8-9.4,21.9-11,34.2-5.6C892.9,93.8,899,103.6,899.6,121.7z"/>
		<path class="st0" d="M382.9,766.1c0-61.9,0-123.7,0-185.6c0-5.2-1-9.7,6.8-11.6c48.9-11.5,87.8-39.7,121.4-75.7
			c59.2-63.4,95.5-138.8,113.9-223.3c3.6-16.6,4.1-16.7,20.9-13.7c28.7,5.2,50.7,27.5,52.1,56.8c3,64.4-5.5,127.5-26.1,188.8
			c-2.3,7-5.9,8.8-12.9,8.6c-17.5-0.5-35.1-0.3-52.6-0.1c-19.8,0.2-33.8,13.2-33.9,31.3c-0.2,18.5,14,31.9,34.4,31.9
			c101.4,0.1,202.8,0,304.2,0.1c3.5,0,7-0.1,10.5,0.2c16.8,1.3,29.5,14.8,29.7,31.2c0.2,16.9-12.9,31.1-30.2,31.7
			c-20,0.6-40,0.2-60,0.3c-21.5,0.1-35.8,12.6-36,31.4c-0.1,18.8,14.2,31.7,35.5,31.8c18.6,0.1,37.2-0.1,55.8,0.1
			c20.6,0.1,34.8,13,34.9,31.4c0.1,18.4-14.1,31.6-34.5,31.8c-18.9,0.1-37.9-0.1-56.8,0.1c-20.6,0.1-34.7,13.1-34.8,31.5
			c-0.1,18.4,14.1,31.6,34.6,31.7c18.9,0.1,37.9-0.1,56.8,0.1c20.5,0.1,34.7,13.1,34.8,31.5c0,18.4-14.1,31.5-34.6,31.7
			c-18.6,0.1-37.2,0-55.8,0.1c-21,0.1-35.1,12.2-35.8,30.5c-0.6,17.8,12.2,30.8,32.5,32.8c18.3,1.8,31,15.5,30.5,32.6
			c-0.6,17.2-14.2,30.5-32.6,30.5c-91.6,0.1-183.2,0.2-274.7-0.4c-28.6-0.2-56.3-6.7-83.4-15.8c-35.2-11.9-70.4-23.7-105.8-35.1
			c-6.9-2.2-9-5.3-8.9-12.6C383.1,890.6,382.9,828.4,382.9,766.1z"/>
		<path class="st0" d="M131,510.6c53.4,0,105.9-0.3,158.5,0.2c16.9,0.1,29.2,13.5,30.2,30.5c0.2,3.2,0.1,6.3,0.1,9.5
			c0,141.9,0,283.9,0,425.8c0,29-11,40.1-39.9,40.1c-45.6,0-91.2,0-136.8,0c-3.8,0-7.6,0-12.1,0C131,847.9,131,679.9,131,510.6z
			 M256.5,921.9c0.1-17.2-14.2-31.6-31.4-31.7c-17.2-0.1-31.5,14.3-31.6,31.5c-0.1,17.2,14.2,31.6,31.4,31.7
			C242.1,953.4,256.5,939.1,256.5,921.9z"/>
		<path d="M256.5,921.9c-0.1,17.2-14.4,31.5-31.6,31.5c-17.2-0.1-31.5-14.5-31.4-31.7c0.1-17.2,14.4-31.5,31.6-31.5
			C242.3,890.3,256.6,904.7,256.5,921.9z"/>
	</g>
</g>
</svg>
