<?xml version="1.0" encoding="utf-8"?>
<!-- Generator: Adobe Illustrator 25.0.0, SVG Export Plug-In . SVG Version: 6.00 Build 0)  -->
<svg version="1.1" id="Capa_1" xmlns="http://www.w3.org/2000/svg" xmlns:xlink="http://www.w3.org/1999/xlink" x="0px" y="0px"
	 viewBox="0 0 1080 524.7" style="enable-background:new 0 0 1080 524.7;" xml:space="preserve">
<style type="text/css">
	.st0{fill:#ABABAB;}
	.st1{fill:#E30C18;}
	.st2{fill:#FF6E00;}
</style>
<g>
	<g>
		<g>
			<path class="st0" d="M589.2,102.3c-5-9.8-13.4-17.4-24.1-21.4l0,0C561.9,65.1,553.3,50.6,541,40c-13.1-11.1-29.9-17.3-47.2-17.3
				c-15,0-29.2,4.4-41.4,13c-12.2-8.4-26.5-13-41.4-13c-15.8,0-30.9,5.1-43.7,14.5c-1.1,0.8-2.3,1.7-3.3,2.7
				c-7.1-2.3-14.5-3.3-22.1-3.3c-23.2,0-44.9,11.1-58.5,29.6c-15.4,3.8-29.2,12.5-39.3,24.9c-10.4,12.9-16.2,29.2-16.2,45.8
				c0,8,1.3,15.8,3.8,23.3c-0.4,1.1-0.9,2.1-1.2,3.1c-1.7,4.8-2.5,9.9-2.5,15c0,6.3,1.3,12.5,3.8,18.2l0.7,1.3l0,0l4.2,6.8
				c6.2,8.6,15.3,14.7,25.5,17.3c5.1,11.1,12.9,20.9,22.6,28.3c6.7,5.1,14.1,8.8,22.1,11.3c2.7,4,4.2,8.6,4.2,13.4v16.9l4.4-0.9
				c10-2,19.8-6.3,28.1-12.3l0.9-0.7c0.1-0.1,0.1-0.1,0.3-0.3c0,0,1.2-0.8,1.2-0.9c5.4-4.2,10-9.1,13.9-14.6c0-0.1,0.1-0.1,0.1-0.3
				c0.3-0.5,0.7-0.9,0.9-1.3l0,0c2.7-3.5,6.2-6.3,10.3-7.9c2.8-1.1,5.8-1.7,8.8-1.7h31.2c9.6,0,17.4-7.8,17.4-17.4
				c0-5.6,4.6-10.2,10.2-10.2h27.6c10.3,0,20.4-3.6,28.3-10l-6.7-4c-6.2,4.3-13.7,6.7-21.7,6.7h-53.7v7.4h11.9
				c-2,2.8-3.2,6.4-3.2,10.2c0,5.6-4.6,10.2-10.2,10.2h-31.2c-3.9,0-7.6,0.7-11.3,2.1c3.2-7.5,6.6-16.3,6.8-16.9l-6.8-2.5
				c-0.1,0.1-7.1,18.8-10.4,24.5v0.1c-0.8,1.3-1.5,2.7-2.3,3.9c-0.3,0.4-0.7,0.9-0.9,1.3c-0.4,0.5-0.7,0.9-1.1,1.6
				c-3.6,5.1-8,9.6-13,13.4l-2.4,1.7c-6.2,4.4-13,7.6-20.4,9.6v-7.8c0-6.8-2.1-13.3-6.3-18.8l-0.7-0.9l-1.2-0.4
				c-7.5-2.1-14.6-5.8-20.9-10.4c-7.5-5.6-13.8-12.9-18.2-21h13.9l0.1-7.4l-18.1-0.5c-0.5-0.1-0.9-0.1-1.5-0.3
				c-11.4-2.4-21.3-10-26.4-20.6c-2.4-5.1-3.8-10.6-3.8-16.3c0-2.7,0.3-5.4,0.8-7.9c1.2,2.3,2.5,4.6,4,6.7l6.3-3.6l-7.4-14.5
				c-2.5-7.1-3.8-14.5-3.8-22c0-30.4,21.4-57.2,51-63.8l15.3-1.6l-0.4-7.2h-0.5c-2,0-4.2,0.1-6.2,0.3c12.3-13,29.5-20.6,47.6-20.6
				c5.4,0,10.7,0.7,15.9,2c-2,2.3-4,4.6-5.8,7l5.6,4.6l9.6-10.7c1.5-1.2,2.8-2.4,4.3-3.6c11.4-8.6,24.9-13.1,39.3-13.1
				c12.7,0,24.8,3.6,35.4,10.3c-3.5,2.9-6.6,6.3-9.5,9.9l5.4,4.8l12.5-12.2c11.4-8.4,24.8-13,39-13c30,0,55.7,20.1,63.2,48.6
				l2.1,15.9l7.2-0.5c0-1.5-0.1-3.1-0.3-4.6c7,3.6,12.6,9.1,16.2,15.9"/>
			<path class="st0" d="M308.6,294.3V275c0-4.2-1.2-8.2-3.3-11.7c-7.9-2.5-15.3-6.4-22-11.4c-9.8-7.4-17.7-17.1-22.9-28.1
				c-10.3-2.8-19.4-9.1-25.7-17.8l-0.1-0.1l-4.3-7.2l-0.5-1.2c-2.7-6-4-12.5-4-19c0-5.4,0.9-10.7,2.7-15.7c0.3-0.8,0.7-1.7,0.9-2.5
				c-2.4-7.5-3.6-15.3-3.6-23.2c0-17.1,5.9-33.8,16.7-47c10.2-12.5,24.2-21.4,39.7-25.3c14.1-18.8,36.3-29.9,59.8-29.9
				c7.4,0,14.6,1.1,21.6,3.2c0.8-0.7,1.7-1.3,2.5-2c13-9.8,28.5-14.9,44.9-14.9c14.9,0,29.2,4.3,41.4,12.6
				c12.3-8.2,26.5-12.6,41.4-12.6c17.7,0,35,6.3,48.4,17.8c12.3,10.4,20.9,24.7,24.5,40.3h0.1l0.1,0.7c10.4,4.3,18.9,12.1,24.1,22
				l-3.6,1.9c-4.8-9.4-13-16.6-22.8-20.5h-1.1l-0.3-1.6C560,66.3,551.6,52.2,539.7,42c-12.7-10.9-29.1-16.9-45.8-16.9
				c-14.5,0-28.4,4.3-40.3,12.6l-1.2,0.8l-1.2-0.8c-11.8-8.2-25.7-12.6-40.3-12.6c-15.4,0-30.1,4.8-42.5,14.1
				c-1.1,0.8-2.1,1.7-3.2,2.5l-0.8,0.7l-1.1-0.4c-7-2.1-14.2-3.3-21.4-3.3c-22.4,0-43.7,10.7-56.9,28.8l-0.4,0.4l-0.7,0.1
				c-14.9,3.6-28.5,12.2-38.2,24.1c-10.2,12.6-15.8,28.4-15.8,44.6c0,7.8,1.2,15.4,3.8,22.6l0.3,0.8l-0.3,0.7
				c-0.4,0.9-0.8,2-1.2,2.9c-1.6,4.6-2.4,9.5-2.4,14.3c0,6,1.2,11.8,3.6,17.4l0.5,1.2l4,6.7c5.9,8.2,14.6,14.1,24.2,16.5l0.9,0.3
				l0.4,0.9c4.8,10.9,12.5,20.4,22.1,27.5c6.6,5,13.7,8.6,21.4,11l0.7,0.3l0.4,0.5c2.9,4.3,4.4,9.4,4.4,14.6v14.5l2-0.4
				c9.8-2,19.3-6.2,27.3-12.1l1.2-0.9c0,0,0.3-0.1,0.5-0.4l0.7-0.5c5.2-4,9.8-8.8,13.5-14.2l0.1-0.3c0.3-0.5,0.7-0.9,0.9-1.3
				c2.9-3.9,6.7-6.8,11.1-8.6c3.1-1.2,6.3-1.9,9.6-1.9h31.2c8.6,0,15.4-7,15.4-15.4c0-6.7,5.5-12.2,12.2-12.2h27.6
				c8.8,0,17.6-2.8,24.8-7.8l-3.1-1.9c-6.4,4.2-13.9,6.4-21.7,6.4h-51.7v3.3h13.8l-2.3,3.2c-1.9,2.7-2.9,5.8-2.9,9
				c0,6.7-5.5,12.2-12.2,12.2h-31.2c-3.6,0-7.2,0.7-10.6,2l-4.4,1.7l1.9-4.4c2.4-5.6,4.8-11.8,6-14.9l-3.1-1.2
				c-1.9,5-7.1,18.2-9.9,23c-0.8,1.5-1.6,2.8-2.4,4.2c-0.3,0.5-0.7,0.9-0.9,1.5c-0.4,0.5-0.7,0.9-1.1,1.5
				c-3.9,5.4-8.3,9.9-13.4,13.9l-2.4,1.9c-6.4,4.6-13.5,7.9-21,9.9l-2.5,0.7v-10.4c0-6.4-2-12.5-5.9-17.6l-0.3-0.4l-0.5-0.1
				c-7.8-2.3-15-5.9-21.6-10.9c-7.6-5.8-14.2-13.3-18.8-21.7l-1.6-2.9h15.4v-3.3l-16.3-0.5c-0.5-0.1-1.1-0.1-1.6-0.3
				c-12.1-2.5-22.4-10.6-27.7-21.7c-2.5-5.4-3.9-11.3-3.9-17.3c0-2.8,0.3-5.6,0.9-8.4l1.2-5.5l2.5,5c0.9,1.7,1.9,3.3,2.8,5l2.9-1.7
				l-6.6-13c-2.5-7.2-3.9-14.9-3.9-22.6c0-31.2,22.1-58.9,52.5-65.8h0.3l13.4-1.5l-0.1-3.5c-1.5,0-3.1,0.1-4.6,0.3l-5.2,0.4l3.6-3.8
				c12.7-13.5,30.5-21.2,49-21.2c5.6,0,11.1,0.7,16.5,2l3.3,0.8l-2.3,2.5c-1.6,1.7-3.1,3.5-4.4,5.2l2.7,2.1l8.6-9.5
				c1.5-1.3,2.9-2.5,4.4-3.6c11.8-8.8,25.7-13.5,40.5-13.5c13,0,25.6,3.8,36.4,10.7l2.3,1.5l-2,1.7c-2.9,2.5-5.6,5.2-8,8.2l2.5,2.3
				l11.4-11c11.7-8.7,25.6-13.4,40.2-13.4c30.7,0,57.5,20.6,65.2,50.1v0.3l1.9,14.1l3.5-0.3c0-0.8-0.1-1.7-0.1-2.5l-0.3-3.6l3.2,1.6
				c7.4,3.8,13.3,9.5,17,16.7l-3.6,1.9c-2.9-5.5-7.1-10-12.2-13.3c0,0.3,0,0.7,0,0.9v1.9l-11.1,0.8L555.1,79
				c-7.4-27.7-32.6-47-61.2-47c-13.7,0-26.8,4.3-37.8,12.5l-13.8,13.4l-8.2-7.4l1.2-1.5c2.3-2.9,5-5.8,7.6-8.3
				c-9.6-5.6-20.6-8.7-32-8.7c-13.8,0-26.9,4.4-38,12.7c-1.3,1.1-2.8,2.1-4.2,3.3l-10.9,12.1l-8.6-7l1.1-1.6
				c1.2-1.6,2.4-3.1,3.6-4.6c-4-0.8-8-1.2-12.2-1.2c-15.7,0-30.8,5.9-42.5,16.3c0.3,0,0.7,0,0.9,0h2.4l0.5,11.1l-17,1.7
				c-28.5,6.4-49.3,32.4-49.3,61.9c0,7.2,1.2,14.5,3.6,21.2l8.2,16.1l-9.5,5.6l-1.1-1.6c-0.4-0.5-0.7-1.1-1.1-1.7c0,0.5,0,1.2,0,1.7
				c0,5.5,1.2,10.6,3.5,15.5c4.8,10,14.2,17.3,24.9,19.6c0.4,0.1,0.8,0.1,1.3,0.3l20,0.5l-0.1,11.3h-12.5
				c4.2,6.7,9.6,12.7,15.9,17.4c6.2,4.6,13,8,20.2,10.2l1.9,0.5l1.1,1.5c4.3,5.8,6.7,12.7,6.7,20v5.1c6.2-2,11.9-4.8,17.1-8.6
				l2.4-1.7c4.7-3.8,9-8,12.5-13c0.4-0.5,0.7-1.1,1.1-1.6c0.3-0.4,0.5-0.8,0.8-1.2c0.8-1.2,1.5-2.4,2.3-3.9l0.1-0.1
				c3.3-5.6,10.3-24,10.3-24.2l0.7-1.9l10.6,4l-0.7,1.9c0,0.1-2.4,6.3-5.1,13c2.5-0.5,5.1-0.9,7.8-0.9h31.2c4.6,0,8.2-3.6,8.2-8.2
				c0-2.8,0.7-5.6,1.7-8.2h-10.4v-11.4h55.7c7.4,0,14.5-2.3,20.5-6.4l1.1-0.8l10.2,6.2l-2.3,1.7c-8.3,6.7-18.9,10.4-29.6,10.4h-27.6
				c-4.6,0-8.2,3.6-8.2,8.2c0,10.7-8.7,19.4-19.4,19.4h-31.2c-2.8,0-5.6,0.5-8.2,1.6c-3.8,1.5-7,4-9.4,7.2c-0.3,0.4-0.5,0.8-0.8,1.2
				l-0.3,0.3c-4,5.6-8.8,10.7-14.3,15l0,0c-0.3,0.3-0.7,0.5-1.2,0.9l-1.3,0.9c-8.6,6.2-18.6,10.6-28.9,12.7L308.6,294.3z"/>
		</g>
		<g>
			<g>
				<path class="st1" d="M773.2,85.8c5,5.8,9.9,11.7,15.1,17.8c5.5-5,10.9-9.8,16.2-14.5c3.3-2.9,7-3.2,10-0.7
					c3.2,2.5,3.8,7.2,0.7,10c-7.5,7.1-15.3,14.1-23,20.8c-3.2,2.7-6.8,2.1-9.8-1.2c-3.6-3.9-7.1-7.9-11-12.3
					c-9.9,9.9-18.8,20.5-26.5,32.4c5.2,2.8,10.2,5.5,15.3,8.3c7.6,4.3,8.6,12.6,1.7,18c-10.9,8.6-21.7,17-32.7,25.3
					c-5.4,4.2-11.5,3.3-15.1-1.5c-3.5-4.7-2.1-10.7,2.8-14.7c6.7-5.2,13.3-10.3,20.8-16.2c-5.1-2.7-9.6-5.2-14.3-7.4
					c-0.8-0.4-2.8,0.7-3.6,1.7c-5.6,6.4-10.7,13.3-16.6,19.4c-5.1,5.2-10.9,9.8-16.3,14.7c-3.9,3.5-7.8,6.8-11.7,10.2
					c-3.3,2.9-8.3,3.3-11.7,1.2c-4-2.7-6.2-8.2-4-12.2c1.6-2.9,4.2-5.2,6.6-7.6c3.3-3.3,7-6.6,10.6-9.6c13.1-10.9,23.8-24,34.3-37.2
					c4.3-5.4,6.6-12.2,10.3-18c7.6-11.7,16.6-22.2,27.7-31.3c-2.3-2.4-4.4-5.1-7-7.4c-0.8-0.8-2.4-1.1-3.8-1.1
					c-6.7,0-13.4,0.1-20.1,0.1c-5.1,0-7.8-2.5-7.9-6.8c0-4.3,2.8-7.1,7.6-7.2c8-0.3,16.1-0.3,24.1-0.5c3.3-0.1,6,1.1,8.3,3.5
					c7.1,7.6,14.5,15.3,21.7,22.8C772.5,85,772.8,85.4,773.2,85.8z"/>
			</g>
			<g>
				<path class="st1" d="M773.2,85.8c-0.4-0.4-0.7-0.8-1.1-1.1c-1.5-4.3-3.8-8.4-4.2-12.9c-0.7-8,5-15.1,12.6-17.4
					c7.5-2.3,16.1,0.7,20.5,7.2c4.3,6.3,3.9,15.5-0.8,21.4c-5.2,6.6-13.7,8.7-21.3,5.5C777.1,87.7,775.1,86.8,773.2,85.8z"/>
			</g>
		</g>
		<g>
			<g>
				<path class="st0" d="M400.6,142.5c-3.1,0.8-5.6,1.5-8.8,2.3c4.7,4,5.2,8.6,4.4,13.9c-1.5,9.9-2.4,19.8-3.5,29.7
					c-0.7,6.4-5.6,10.9-11.4,10.2c-6.2-0.7-10-5.9-9.2-12.6c0.8-6.3,1.5-12.6,2.3-19.4c-4.8,0.8-9.1,1.6-13.9,2.4
					c1.2,4.6,2.3,8.6,3.2,12.7c2.3,9-1.6,14.2-10.9,14.7c-13.5,0.7-27.2,1.5-40.7,2.1c-6,0.3-11-4.2-11.3-9.9
					c-0.3-6,4-10.4,10.2-10.9c9.6-0.5,19.4-1.1,29.6-1.6c-1.7-6.7-3.2-13.3-5.1-19.7c-2.7-9,0.3-16.1,7.4-21.2
					c14.3-10.4,29.9-18.8,46.5-24.9c11.3-4.2,21.4,2.3,23.3,14.1c3.2,20.9,6.4,41.7,9.6,62.6c0.1,1.1,0.3,2.1,0.3,3.3
					c0.1,4.4-2.4,7.4-6.4,7.8c-4,0.4-7.2-1.9-7.9-6.2c-2-12.3-3.9-24.7-5.8-37C401.9,151.1,401.3,147.2,400.6,142.5z"/>
			</g>
			<g>
				<path class="st0" d="M428.9,129.1c-10.3-0.1-18.4-8.3-18.2-18.6c0.1-10.3,8.3-18.4,18.8-18.4c10.2,0,18.4,8.4,18.4,18.8
					C447.5,121.2,439.3,129.2,428.9,129.1z"/>
			</g>
		</g>
		<g>
			<g>
				<path class="st2" d="M601,143.6c-11.9,0.8-23.4,1.3-34.7,6.6c3.3,3.5,6.3,7.1,9.9,10c10.9,8.8,9.8,18.1-3.5,23.8
					c-7.6,3.3-14.7,7.8-22.1,11.8c-10.6,5.8-16.9,2.5-18.6-9.6c-11.9,3.2-23.8,6.4-35.8,9.6c-2.4,0.7-4.8,1.3-7.2,2
					c-6.7,1.6-12.2-1.3-13.7-7.4c-1.3-5.6,2.1-11,8.4-12.7c11.1-3.1,22.2-6.2,33.4-9c3.2-0.8,4.8-2.4,5.6-5.5
					c2.3-8,5.1-15.8,7.2-23.8c2.1-8,7.1-13.1,14.5-16.1c15.4-6.3,31.3-10.4,47.7-12.9c10.9-1.6,19,4.2,20.8,15
					c3.5,21,6.6,42.2,9.6,63.4c0.8,5.5-1.7,9-6.3,9.5c-4.2,0.4-7.4-2.3-8.2-7.5C605.7,175.2,603.4,159.7,601,143.6z M554.8,170
					c-3.2-3.3-6.3-6.6-9.4-9.6c-1.6,5.5-3.3,11.1-5.4,17.7C545.8,174.9,550.7,172.2,554.8,170z"/>
			</g>
			<g>
				<path class="st2" d="M632.1,101c10.4,0,18.5,8.2,18.5,18.5c0,10.4-8.3,18.6-19,18.5c-9.9-0.1-18.1-8.4-18.1-18.6
					S621.8,101,632.1,101z"/>
			</g>
		</g>
	</g>
	<g>
		<g>
			<path class="st0" d="M64.2,408v16.7c-7.4-7.1-15.4-10.7-24.2-10.7c-4.7,0-8.3,1.1-11.1,3.2c-2.7,2.1-4.2,5.1-4.2,8.7
				c0,2.3,0.4,4.4,1.1,6.2s2.3,3.8,4.8,6c2.4,2.3,6.2,4.8,11.1,7.6c7.4,4.3,12.9,8,16.6,11.3c3.8,3.2,6.4,6.7,7.8,10
				c1.5,3.5,2.1,7.6,2.1,12.6c0,5.1-1.2,9.6-3.8,13.7c-2.5,4-6,7.4-10.6,9.6c-4.6,2.3-9.8,3.6-15.7,3.6c-9.9,0-19.3-3.2-27.9-9.5
				v-18.8c3.6,4.8,7.9,8.6,12.7,11.3s9.9,3.9,15.3,3.9c4.3,0,7.9-1.3,10.9-3.9s4.3-5.8,4.3-9.8c0-2.7-0.5-5-1.5-7s-3.1-4.4-6.3-7
				c-3.2-2.7-8.2-5.9-14.7-9.8c-7.6-4.4-13.1-9-16.3-13.5c-3.2-4.6-4.8-10-4.8-16.3c0-4.8,1.3-9.2,4-13.1c2.7-3.9,6.3-7,10.9-9.2
				c4.6-2.3,9.8-3.3,15.7-3.3C48.9,400.8,56.8,403.2,64.2,408z"/>
		</g>
		<g>
			<path class="st0" d="M169,402.1h13.8v103.4h-14.9v-80.5L136,465h-2.7l-50.5-63h17.6l34.4,42.5L169,402.1z"/>
		</g>
		<g>
			<path class="st0" d="M280.2,505.6L266.4,475l-43.9,0.3l5.8-13.5h32.2l-26.8-60.3h15.5l46.2,104h-15.1V505.6z"/>
		</g>
		<g>
			<path class="st0" d="M368.2,477.8c-4.8-7.2-8.3-12.1-10.6-14.6s-5.1-5-8.4-7.1c5.8-2.3,10-5.5,13-9.9c2.9-4.4,4.4-9.6,4.4-15.7
				c0-5.2-1.2-9.9-3.8-14.3c-2.4-4.4-6-7.9-10.9-10.6c-4.8-2.7-10.4-4-17-4h-28.7v45.7h14.9v-32.6h12.6c5.6,0,9.9,1.3,12.9,4.2
				c2.9,2.8,4.6,6.7,4.6,11.8c0,6.4-1.9,10.7-5.5,13.1c-3.6,2.4-8.3,3.6-14.6,3.6v13.3c3.1,0.8,4.7,1.2,8.4,3.8
				c3.8,2.5,7.9,7.9,12.9,15.7l16.5,25.6h17.7L368.2,477.8z"/>
		</g>
		<g>
			<path class="st2" d="M425.8,415.1v90.4h-14.9v-90.4h-35.5v-13h86.4v13H425.8z"/>
		</g>
		<g>
			<path class="st1" d="M490.6,505.6h-14.9V402.1l14.9-0.1V505.6z"/>
		</g>
		<g>
			<path class="st1" d="M526.8,463.5c0,0,5.8,7.4,10.4,14.6l18.2,27.6h-17.7l-16.3-25.5c-4.8-7.6-11.3-16.7-11.3-16.7H526.8z"/>
		</g>
		<g>
			<polygon class="st1" points="604.9,424.2 641.5,505.6 656.6,505.6 610.4,401.5 600,401.5 555.5,505.6 570.7,505.6 			"/>
		</g>
		<g>
			<path class="st1" d="M668,505.6V402.1h14.9v103.4H668z"/>
		</g>
		<g>
			<path class="st1" d="M788.6,507.7l-68.7-79.6v79.6h-14.2V404.3h12.2l70.7,81.9V507.7z"/>
		</g>
		<g>
			<path class="st1" d="M824.1,504.8V401.3H839v103.4H824.1z"/>
		</g>
		<g>
			<path class="st1" d="M943.2,401.3h14.3v103.4h-12.9l-49.3-57.2l-21.4-24.8v-21.6l30.7,35.6l38.6,44.6v-36V401.3z"/>
		</g>
		<g>
			<path class="st1" d="M1031.3,413.1c-7.4,0-14.2,1.7-20.2,5.2c-6.2,3.5-11,8.3-14.6,14.3c-3.6,6-5.4,12.9-5.4,20.4
				c0,7.5,1.7,14.3,5.2,20.5c3.5,6,8.3,10.9,14.6,14.3c6.2,3.5,13.3,5.2,21,5.2c3.9,0,7.2-0.3,10.2-0.9c2.9-0.5,7.4-1.7,13.1-3.6
				V467h-19.8v-13h34.7v43.7c-12.3,5.6-24.9,8.4-37.9,8.4c-12.5,0-22.9-2.5-31.3-7.6c-8.4-5.1-14.9-11.7-18.9-19.6
				c-4.2-8-6.2-16.3-6.2-24.9c0-9.8,2.3-18.8,7-26.9c4.7-8.3,11.3-14.9,19.8-19.7c8.6-4.8,18.2-7.4,29.2-7.4c6,0,11.7,0.7,17,1.9
				c5.4,1.2,11.8,3.6,19.3,7V424c-5.8-3.3-11.9-6-18.2-7.9C1043.3,414.1,1037.2,413.1,1031.3,413.1z"/>
		</g>
	</g>
</g>
</svg>
