<?xml version="1.0" encoding="utf-8"?>
<!-- Generator: Adobe Illustrator 25.0.0, SVG Export Plug-In . SVG Version: 6.00 Build 0)  -->
<svg version="1.1" id="Capa_1" xmlns="http://www.w3.org/2000/svg" xmlns:xlink="http://www.w3.org/1999/xlink" x="0px" y="0px"
	 viewBox="0 0 1080 1080" style="enable-background:new 0 0 1080 1080;" xml:space="preserve">
<style type="text/css">
	.st0{fill:#ABABAB;}
	.st1{fill:#E30C18;}
	.st2{fill:#FF6E00;}
</style>
<rect width="1080" height="1080"/>
<g>
	<g>
		<g>
			<path class="st0" d="M589.5,381.7c-3.7-7.3-10-13-18-16c0,0,0,0,0,0c-2.4-11.8-8.8-22.6-18-30.5c-9.8-8.3-22.3-12.9-35.2-12.9
				c-11.2,0-21.8,3.3-30.9,9.7c-9.1-6.3-19.8-9.7-30.9-9.7c-11.8,0-23.1,3.8-32.6,10.8c-0.8,0.6-1.7,1.3-2.5,2
				c-5.3-1.7-10.8-2.5-16.5-2.5c-17.3,0-33.5,8.3-43.7,22.1c-11.5,2.8-21.8,9.3-29.3,18.6c-7.8,9.6-12.1,21.8-12.1,34.2
				c0,6,1,11.8,2.8,17.4c-0.3,0.8-0.7,1.6-0.9,2.3c-1.3,3.6-1.9,7.4-1.9,11.2c0,4.7,1,9.3,2.8,13.6l0.5,1c0,0,0,0,0,0l3.1,5.1
				c4.6,6.4,11.4,11,19,12.9c3.8,8.3,9.6,15.6,16.9,21.1c5,3.8,10.5,6.6,16.5,8.4c2,3,3.1,6.4,3.1,10v12.6l3.3-0.7
				c7.5-1.5,14.8-4.7,21-9.2l0.7-0.5c0.1-0.1,0.1-0.1,0.2-0.2c0,0,0.9-0.6,0.9-0.7c4-3.1,7.5-6.8,10.4-10.9c0-0.1,0.1-0.1,0.1-0.2
				c0.2-0.4,0.5-0.7,0.7-1l0,0c2-2.6,4.6-4.7,7.7-5.9c2.1-0.8,4.3-1.3,6.6-1.3h23.3c7.2,0,13-5.8,13-13c0-4.2,3.4-7.6,7.6-7.6h20.6
				c7.7,0,15.2-2.7,21.1-7.5l-5-3c-4.6,3.2-10.2,5-16.2,5h-40.1v5.5h8.9c-1.5,2.1-2.4,4.8-2.4,7.6c0,4.2-3.4,7.6-7.6,7.6h-23.3
				c-2.9,0-5.7,0.5-8.4,1.6c2.4-5.6,4.9-12.2,5.1-12.6l-5.1-1.9c-0.1,0.1-5.3,14-7.8,18.3l0,0.1c-0.6,1-1.1,2-1.7,2.9
				c-0.2,0.3-0.5,0.7-0.7,1c-0.3,0.4-0.5,0.7-0.8,1.2c-2.7,3.8-6,7.2-9.7,10l-1.8,1.3c-4.6,3.3-9.7,5.7-15.2,7.2v-5.8
				c0-5.1-1.6-9.9-4.7-14l-0.5-0.7l-0.9-0.3c-5.6-1.6-10.9-4.3-15.6-7.8c-5.6-4.2-10.3-9.6-13.6-15.7h10.4l0.1-5.5l-13.5-0.4
				c-0.4-0.1-0.7-0.1-1.1-0.2c-8.5-1.8-15.9-7.5-19.7-15.4c-1.8-3.8-2.8-7.9-2.8-12.2c0-2,0.2-4,0.6-5.9c0.9,1.7,1.9,3.4,3,5
				l4.7-2.7l-5.5-10.8c-1.9-5.3-2.8-10.8-2.8-16.4c0-22.7,16-42.7,38.1-47.6l11.4-1.2l-0.3-5.4H374c-1.5,0-3.1,0.1-4.6,0.2
				c9.2-9.7,22-15.4,35.5-15.4c4,0,8,0.5,11.9,1.5c-1.5,1.7-3,3.4-4.3,5.2l4.2,3.4l7.2-8c1.1-0.9,2.1-1.8,3.2-2.7
				c8.5-6.4,18.6-9.8,29.3-9.8c9.5,0,18.5,2.7,26.4,7.7c-2.6,2.2-4.9,4.7-7.1,7.4l4,3.6l9.3-9.1c8.5-6.3,18.5-9.7,29.1-9.7
				c22.4,0,41.6,15,47.2,36.3l1.6,11.9l5.4-0.4c0-1.1-0.1-2.3-0.2-3.4c5.2,2.7,9.4,6.8,12.1,11.9"/>
			<path class="st0" d="M380,525v-14.4c0-3.1-0.9-6.1-2.5-8.7c-5.9-1.9-11.4-4.8-16.4-8.5c-7.3-5.5-13.2-12.8-17.1-21
				c-7.7-2.1-14.5-6.8-19.2-13.3l-0.1-0.1l-3.2-5.4l-0.4-0.9c-2-4.5-3-9.3-3-14.2c0-4,0.7-8,2-11.7c0.2-0.6,0.5-1.3,0.7-1.9
				c-1.8-5.6-2.7-11.4-2.7-17.3c0-12.8,4.4-25.2,12.5-35.1c7.6-9.3,18.1-16,29.6-18.9c10.5-14,27.1-22.3,44.6-22.3
				c5.5,0,10.9,0.8,16.1,2.4c0.6-0.5,1.3-1,1.9-1.5c9.7-7.3,21.3-11.1,33.5-11.1c11.1,0,21.8,3.2,30.9,9.4
				c9.2-6.1,19.8-9.4,30.9-9.4c13.2,0,26.1,4.7,36.1,13.3c9.2,7.8,15.6,18.4,18.3,30.1h0.1l0.1,0.5c7.8,3.2,14.1,9,18,16.4l-2.7,1.4
				c-3.6-7-9.7-12.4-17-15.3h-0.8l-0.2-1.2c-2.3-11.5-8.6-22-17.5-29.6c-9.5-8.1-21.7-12.6-34.2-12.6c-10.8,0-21.2,3.2-30.1,9.4
				l-0.9,0.6l-0.9-0.6c-8.8-6.1-19.2-9.4-30.1-9.4c-11.5,0-22.5,3.6-31.7,10.5c-0.8,0.6-1.6,1.3-2.4,1.9l-0.6,0.5l-0.8-0.3
				c-5.2-1.6-10.6-2.5-16-2.5c-16.7,0-32.6,8-42.5,21.5L362,356l-0.5,0.1c-11.1,2.7-21.3,9.1-28.5,18c-7.6,9.4-11.8,21.2-11.8,33.3
				c0,5.8,0.9,11.5,2.8,16.9l0.2,0.6l-0.2,0.5c-0.3,0.7-0.6,1.5-0.9,2.2c-1.2,3.4-1.8,7.1-1.8,10.7c0,4.5,0.9,8.8,2.7,13l0.4,0.9
				l3,5c4.4,6.1,10.9,10.5,18.1,12.3l0.7,0.2l0.3,0.7c3.6,8.1,9.3,15.2,16.5,20.5c4.9,3.7,10.2,6.4,16,8.2l0.5,0.2l0.3,0.4
				c2.2,3.2,3.3,7,3.3,10.9v10.8l1.5-0.3c7.3-1.5,14.4-4.6,20.4-9l0.9-0.7c0,0,0.2-0.1,0.4-0.3l0.5-0.4c3.9-3,7.3-6.6,10.1-10.6
				l0.1-0.2c0.2-0.4,0.5-0.7,0.7-1c2.2-2.9,5-5.1,8.3-6.4c2.3-0.9,4.7-1.4,7.2-1.4h23.3c6.4,0,11.5-5.2,11.5-11.5
				c0-5,4.1-9.1,9.1-9.1h20.6c6.6,0,13.1-2.1,18.5-5.8l-2.3-1.4c-4.8,3.1-10.4,4.8-16.2,4.8h-38.6v2.5h10.3l-1.7,2.4
				c-1.4,2-2.2,4.3-2.2,6.7c0,5-4.1,9.1-9.1,9.1h-23.3c-2.7,0-5.4,0.5-7.9,1.5l-3.3,1.3l1.4-3.3c1.8-4.2,3.6-8.8,4.5-11.1l-2.3-0.9
				c-1.4,3.7-5.3,13.6-7.4,17.2c-0.6,1.1-1.2,2.1-1.8,3.1c-0.2,0.4-0.5,0.7-0.7,1.1c-0.3,0.4-0.5,0.7-0.8,1.1
				c-2.9,4-6.2,7.4-10,10.4l-1.8,1.4c-4.8,3.4-10.1,5.9-15.7,7.4l-1.9,0.5v-7.8c0-4.8-1.5-9.3-4.4-13.1l-0.2-0.3l-0.4-0.1
				c-5.8-1.7-11.2-4.4-16.1-8.1c-5.7-4.3-10.6-9.9-14-16.2l-1.2-2.2h11.5l0-2.5l-12.2-0.4c-0.4-0.1-0.8-0.1-1.2-0.2
				c-9-1.9-16.7-7.9-20.7-16.2c-1.9-4-2.9-8.4-2.9-12.9c0-2.1,0.2-4.2,0.7-6.3l0.9-4.1l1.9,3.7c0.7,1.3,1.4,2.5,2.1,3.7l2.2-1.3
				l-4.9-9.7c-1.9-5.4-2.9-11.1-2.9-16.9c0-23.3,16.5-44,39.2-49.1l0.2,0l10-1.1l-0.1-2.6c-1.1,0-2.3,0.1-3.4,0.2l-3.9,0.3l2.7-2.8
				c9.5-10.1,22.8-15.8,36.6-15.8c4.2,0,8.3,0.5,12.3,1.5l2.5,0.6l-1.7,1.9c-1.2,1.3-2.3,2.6-3.3,3.9l2,1.6l6.4-7.1
				c1.1-1,2.2-1.9,3.3-2.7c8.8-6.6,19.2-10.1,30.2-10.1c9.7,0,19.1,2.8,27.2,8l1.7,1.1l-1.5,1.3c-2.2,1.9-4.2,3.9-6,6.1l1.9,1.7
				l8.5-8.2c8.7-6.5,19.1-10,30-10c22.9,0,42.9,15.4,48.7,37.4l0,0.2l1.4,10.5l2.6-0.2c0-0.6-0.1-1.3-0.1-1.9l-0.2-2.7l2.4,1.2
				c5.5,2.8,9.9,7.1,12.7,12.5l-2.7,1.4c-2.2-4.1-5.3-7.5-9.1-9.9c0,0.2,0,0.5,0,0.7l0,1.4l-8.3,0.6l-1.8-13.2
				c-5.5-20.7-24.3-35.1-45.7-35.1c-10.2,0-20,3.2-28.2,9.3l-10.3,10l-6.1-5.5l0.9-1.1c1.7-2.2,3.7-4.3,5.7-6.2
				c-7.2-4.2-15.4-6.5-23.9-6.5c-10.3,0-20.1,3.3-28.4,9.5c-1,0.8-2.1,1.6-3.1,2.5l-8.1,9l-6.4-5.2l0.8-1.2c0.9-1.2,1.8-2.3,2.7-3.4
				c-3-0.6-6-0.9-9.1-0.9c-11.7,0-23,4.4-31.7,12.2c0.2,0,0.5,0,0.7,0h1.8l0.4,8.3l-12.7,1.3c-21.3,4.8-36.8,24.2-36.8,46.2
				c0,5.4,0.9,10.8,2.7,15.8l6.1,12l-7.1,4.2l-0.8-1.2c-0.3-0.4-0.5-0.8-0.8-1.3c0,0.4,0,0.9,0,1.3c0,4.1,0.9,7.9,2.6,11.6
				c3.6,7.5,10.6,12.9,18.6,14.6c0.3,0.1,0.6,0.1,1,0.2l14.9,0.4l-0.1,8.4h-9.3c3.1,5,7.2,9.5,11.9,13c4.6,3.4,9.7,6,15.1,7.6
				l1.4,0.4l0.8,1.1c3.2,4.3,5,9.5,5,14.9v3.8c4.6-1.5,8.9-3.6,12.8-6.4l1.8-1.3c3.5-2.8,6.7-6,9.3-9.7c0.3-0.4,0.5-0.8,0.8-1.2
				c0.2-0.3,0.4-0.6,0.6-0.9c0.6-0.9,1.1-1.8,1.7-2.9l0.1-0.1c2.5-4.2,7.7-17.9,7.7-18.1l0.5-1.4l7.9,3l-0.5,1.4
				c0,0.1-1.8,4.7-3.8,9.7c1.9-0.4,3.8-0.7,5.8-0.7h23.3c3.4,0,6.1-2.7,6.1-6.1c0-2.1,0.5-4.2,1.3-6.1h-7.8v-8.5h41.6
				c5.5,0,10.8-1.7,15.3-4.8l0.8-0.6l7.6,4.6l-1.7,1.3c-6.2,5-14.1,7.8-22.1,7.8H477c-3.4,0-6.1,2.7-6.1,6.1c0,8-6.5,14.5-14.5,14.5
				h-23.3c-2.1,0-4.2,0.4-6.1,1.2c-2.8,1.1-5.2,3-7,5.4c-0.2,0.3-0.4,0.6-0.6,0.9l-0.2,0.2c-3,4.2-6.6,8-10.7,11.2l0,0
				c-0.2,0.2-0.5,0.4-0.9,0.7l-1,0.7c-6.4,4.6-13.9,7.9-21.6,9.5L380,525z"/>
		</g>
		<g>
			<g>
				<path class="st1" d="M726.8,369.4c3.7,4.3,7.4,8.7,11.3,13.3c4.1-3.7,8.1-7.3,12.1-10.8c2.5-2.2,5.2-2.4,7.5-0.5
					c2.4,1.9,2.8,5.4,0.5,7.5c-5.6,5.3-11.4,10.5-17.2,15.5c-2.4,2-5.1,1.6-7.3-0.9c-2.7-2.9-5.3-5.9-8.2-9.2
					c-7.4,7.4-14,15.3-19.8,24.2c3.9,2.1,7.6,4.1,11.4,6.2c5.7,3.2,6.4,9.4,1.3,13.4c-8.1,6.4-16.2,12.7-24.4,18.9
					c-4,3.1-8.6,2.5-11.3-1.1c-2.6-3.5-1.6-8,2.1-11c5-3.9,9.9-7.7,15.5-12.1c-3.8-2-7.2-3.9-10.7-5.5c-0.6-0.3-2.1,0.5-2.7,1.3
					c-4.2,4.8-8,9.9-12.4,14.5c-3.8,3.9-8.1,7.3-12.2,11c-2.9,2.6-5.8,5.1-8.7,7.6c-2.5,2.2-6.2,2.5-8.7,0.9c-3-2-4.6-6.1-3-9.1
					c1.2-2.2,3.1-3.9,4.9-5.7c2.5-2.5,5.2-4.9,7.9-7.2c9.8-8.1,17.8-17.9,25.6-27.8c3.2-4,4.9-9.1,7.7-13.4
					c5.7-8.7,12.4-16.6,20.7-23.4c-1.7-1.8-3.3-3.8-5.2-5.5c-0.6-0.6-1.8-0.8-2.8-0.8c-5,0-10,0.1-15,0.1c-3.8,0-5.8-1.9-5.9-5.1
					c0-3.2,2.1-5.3,5.7-5.4c6-0.2,12-0.2,18-0.4c2.5-0.1,4.5,0.8,6.2,2.6c5.3,5.7,10.8,11.4,16.2,17
					C726.3,368.8,726.5,369.1,726.8,369.4z"/>
			</g>
			<g>
				<path class="st1" d="M726.8,369.4c-0.3-0.3-0.5-0.6-0.8-0.8c-1.1-3.2-2.8-6.3-3.1-9.6c-0.5-6,3.7-11.3,9.4-13
					c5.6-1.7,12,0.5,15.3,5.4c3.2,4.7,2.9,11.6-0.6,16c-3.9,4.9-10.2,6.5-15.9,4.1C729.7,370.8,728.2,370.1,726.8,369.4z"/>
			</g>
		</g>
		<g>
			<g>
				<path class="st0" d="M448.7,411.7c-2.3,0.6-4.2,1.1-6.6,1.7c3.5,3,3.9,6.4,3.3,10.4c-1.1,7.4-1.8,14.8-2.6,22.2
					c-0.5,4.8-4.2,8.1-8.5,7.6c-4.6-0.5-7.5-4.4-6.9-9.4c0.6-4.7,1.1-9.4,1.7-14.5c-3.6,0.6-6.8,1.2-10.4,1.8
					c0.9,3.4,1.7,6.4,2.4,9.5c1.7,6.7-1.2,10.6-8.1,11c-10.1,0.5-20.3,1.1-30.4,1.6c-4.5,0.2-8.2-3.1-8.4-7.4
					c-0.2-4.5,3-7.8,7.6-8.1c7.2-0.4,14.5-0.8,22.1-1.2c-1.3-5-2.4-9.9-3.8-14.7c-2-6.7,0.2-12,5.5-15.8c10.7-7.8,22.3-14,34.7-18.6
					c8.4-3.1,16,1.7,17.4,10.5c2.4,15.6,4.8,31.1,7.2,46.7c0.1,0.8,0.2,1.6,0.2,2.5c0.1,3.3-1.8,5.5-4.8,5.8c-3,0.3-5.4-1.4-5.9-4.6
					c-1.5-9.2-2.9-18.4-4.3-27.6C449.7,418.1,449.2,415.2,448.7,411.7z"/>
			</g>
			<g>
				<path class="st0" d="M469.8,401.7c-7.7-0.1-13.7-6.2-13.6-13.9c0.1-7.7,6.2-13.7,14-13.7c7.6,0,13.7,6.3,13.7,14
					C483.7,395.8,477.6,401.8,469.8,401.7z"/>
			</g>
		</g>
		<g>
			<g>
				<path class="st2" d="M598.3,412.5c-8.9,0.6-17.5,1-25.9,4.9c2.5,2.6,4.7,5.3,7.4,7.5c8.1,6.6,7.3,13.5-2.6,17.8
					c-5.7,2.5-11,5.8-16.5,8.8c-7.9,4.3-12.6,1.9-13.9-7.2c-8.9,2.4-17.8,4.8-26.7,7.2c-1.8,0.5-3.6,1-5.4,1.5
					c-5,1.2-9.1-1-10.2-5.5c-1-4.2,1.6-8.2,6.3-9.5c8.3-2.3,16.6-4.6,24.9-6.7c2.4-0.6,3.6-1.8,4.2-4.1c1.7-6,3.8-11.8,5.4-17.8
					c1.6-6,5.3-9.8,10.8-12c11.5-4.7,23.4-7.8,35.6-9.6c8.1-1.2,14.2,3.1,15.5,11.2c2.6,15.7,4.9,31.5,7.2,47.3
					c0.6,4.1-1.3,6.7-4.7,7.1c-3.1,0.3-5.5-1.7-6.1-5.6C601.8,436.1,600.1,424.5,598.3,412.5z M563.8,432.2c-2.4-2.5-4.7-4.9-7-7.2
					c-1.2,4.1-2.5,8.3-4,13.2C557.1,435.9,560.7,433.9,563.8,432.2z"/>
			</g>
			<g>
				<path class="st2" d="M621.5,380.7c7.8,0,13.8,6.1,13.8,13.8c0,7.8-6.2,13.9-14.2,13.8c-7.4-0.1-13.5-6.3-13.5-13.9
					C607.6,386.8,613.8,380.7,621.5,380.7z"/>
			</g>
		</g>
	</g>
	<g>
		<g>
			<path class="st0" d="M197.6,609.9v12.5c-5.5-5.3-11.5-8-18.1-8c-3.5,0-6.2,0.8-8.3,2.4c-2,1.6-3.1,3.8-3.1,6.5
				c0,1.7,0.3,3.3,0.8,4.6c0.5,1.3,1.7,2.8,3.6,4.5c1.8,1.7,4.6,3.6,8.3,5.7c5.5,3.2,9.6,6,12.4,8.4c2.8,2.4,4.8,5,5.8,7.5
				c1.1,2.6,1.6,5.7,1.6,9.4c0,3.8-0.9,7.2-2.8,10.2s-4.5,5.5-7.9,7.2s-7.3,2.7-11.7,2.7c-7.4,0-14.4-2.4-20.8-7.1v-14
				c2.7,3.6,5.9,6.4,9.5,8.4c3.6,2,7.4,2.9,11.4,2.9c3.2,0,5.9-1,8.1-2.9s3.2-4.3,3.2-7.3c0-2-0.4-3.7-1.1-5.2s-2.3-3.3-4.7-5.2
				c-2.4-2-6.1-4.4-11-7.3c-5.7-3.3-9.8-6.7-12.2-10.1c-2.4-3.4-3.6-7.5-3.6-12.2c0-3.6,1-6.9,3-9.8s4.7-5.2,8.1-6.9
				c3.4-1.7,7.3-2.5,11.7-2.5C186.2,604.5,192.1,606.3,197.6,609.9z"/>
		</g>
		<g>
			<path class="st0" d="M275.8,605.5h10.3v77.2H275v-60.1l-23.8,29.8h-2l-37.7-47h13.1l25.7,31.7L275.8,605.5z"/>
		</g>
		<g>
			<path class="st0" d="M358.8,682.7l-10.3-22.8l-32.8,0.2L320,650h24L324,605h11.6l34.5,77.6H358.8z"/>
		</g>
		<g>
			<path class="st0" d="M424.5,662c-3.6-5.4-6.2-9-7.9-10.9s-3.8-3.7-6.3-5.3c4.3-1.7,7.5-4.1,9.7-7.4c2.2-3.3,3.3-7.2,3.3-11.7
				c0-3.9-0.9-7.4-2.8-10.7c-1.8-3.3-4.5-5.9-8.1-7.9s-7.8-3-12.7-3h-21.4v34.1l11.1,0l0-24.3h9.4c4.2,0,7.4,1,9.6,3.1
				c2.2,2.1,3.4,5,3.4,8.8c0,4.8-1.4,8-4.1,9.8c-2.7,1.8-6.2,2.7-10.9,2.7l0,9.9c2.3,0.6,3.5,0.9,6.3,2.8c2.8,1.9,5.9,5.9,9.6,11.7
				l12.3,19.1h13.2L424.5,662z"/>
		</g>
		<g>
			<path class="st2" d="M467.5,615.2v67.5h-11.1v-67.5h-26.5v-9.7h64.5v9.7H467.5z"/>
		</g>
		<g>
			<path class="st1" d="M515.9,682.7h-11.1v-77.2l11.1-0.1V682.7z"/>
		</g>
		<g>
			<path class="st1" d="M542.9,651.3c0,0,4.3,5.5,7.8,10.9l13.6,20.6h-13.2l-12.2-19c-3.6-5.7-8.4-12.5-8.4-12.5H542.9z"/>
		</g>
		<g>
			<polygon class="st1" points="601.2,622 628.5,682.7 639.8,682.7 605.3,605 597.5,605 564.3,682.7 575.7,682.7 			"/>
		</g>
		<g>
			<path class="st1" d="M648.3,682.7v-77.2h11.1v77.2H648.3z"/>
		</g>
		<g>
			<path class="st1" d="M738.3,684.3L687,624.9v59.4h-10.6v-77.2h9.1l52.8,61.1V684.3z"/>
		</g>
		<g>
			<path class="st1" d="M764.8,682.1v-77.2h11.1v77.2H764.8z"/>
		</g>
		<g>
			<path class="st1" d="M853.7,604.9h10.7v77.2h-9.6l-36.8-42.7L802,620.9v-16.1l22.9,26.6l28.8,33.3v-26.9V604.9z"/>
		</g>
		<g>
			<path class="st1" d="M919.5,613.7c-5.5,0-10.6,1.3-15.1,3.9c-4.6,2.6-8.2,6.2-10.9,10.7c-2.7,4.5-4,9.6-4,15.2
				c0,5.6,1.3,10.7,3.9,15.3c2.6,4.5,6.2,8.1,10.9,10.7c4.6,2.6,9.9,3.9,15.7,3.9c2.9,0,5.4-0.2,7.6-0.7c2.2-0.4,5.5-1.3,9.8-2.7
				v-16.1h-14.8v-9.7h25.9v32.6c-9.2,4.2-18.6,6.3-28.3,6.3c-9.3,0-17.1-1.9-23.4-5.7c-6.3-3.8-11.1-8.7-14.1-14.6
				c-3.1-6-4.6-12.2-4.6-18.6c0-7.3,1.7-14,5.2-20.1c3.5-6.2,8.4-11.1,14.8-14.7c6.4-3.6,13.6-5.5,21.8-5.5c4.5,0,8.7,0.5,12.7,1.4
				c4,0.9,8.8,2.7,14.4,5.2v11.3c-4.3-2.5-8.9-4.5-13.6-5.9C928.4,614.4,923.9,613.7,919.5,613.7z"/>
		</g>
	</g>
</g>
</svg>
