<?xml version="1.0" encoding="utf-8"?>
<!-- Generator: Adobe Illustrator 25.0.0, SVG Export Plug-In . SVG Version: 6.00 Build 0)  -->
<svg version="1.1" id="Capa_1" xmlns="http://www.w3.org/2000/svg" xmlns:xlink="http://www.w3.org/1999/xlink" x="0px" y="0px"
	 viewBox="0 0 1080 1080" style="enable-background:new 0 0 1080 1080;" xml:space="preserve">
<style type="text/css">
	.st0{fill:#FFFFFF;}
</style>
<g>
	<g>
		<path class="st0" d="M904.8,0c58.2,0,116.5,0,174.7,0c0,360,0,720,0,1080c-360,0-720,0-1080,0c0-360,0-720,0-1080
			C294.3,0,589,0,883.7,0c-0.2,0.6-0.4,1.4-0.8,1.9c-47.2,59.8-94.4,119.6-141.7,179.3c-6.1,7.7-8.7,16.4-1.8,23.8
			c3.9,4.3,11.4,6.9,17.4,7.3c16.3,1,32.7,0.3,48.6,0.3c0.7,2.2,1,2.8,1.1,3.5c0.1,13.7,0.1,27.4,0.3,41.1c0.2,16.9,6.2,23,22.8,23
			c43.5,0.1,87,0.1,130.5,0c16.9,0,22.8-5.9,22.8-22.8c0.1-14.6,0-29.3,0-44.8c17.4,0,33.5,0,49.6,0c8.3,0,15.4-2.4,19.2-10.3
			c3.9-8,1.1-14.9-4.1-21.4C1000,120.7,952.4,60.3,904.8,0z M431,292.9c5.5,5.1,12.1,11.3,18.9,17.4c22.4,19.8,52.4,18.8,72.4-3.2
			c28.6-31.4,56.8-63.2,84.8-95.2c17.7-20.2,18.8-45.3,2.7-66.7c-30.5-40.3-61.4-80.4-92.2-120.4c-8.2-10.7-14.2-12.2-26.5-6.5
			C399,60.4,307,102.6,214.9,144.7c-13.6,6.2-22.3,16-26.3,30.8C143.5,341.6,97.6,507.7,53,674.1c-11.6,43.2-24.5,86.5-22.2,132.4
			c1.5,29.9,7.3,41.5,35.1,51.6c25.7,9.4,48.7,22.6,70.3,39.2c26.4,20.3,53.9,39.2,81.2,58.4c95.2,66.9,200.3,100.3,317.1,96.3
			c69.3-2.4,137.6-10.4,205.2-25.9c5.4-1.3,12.3-2.3,17-0.1c63.8,30.4,131.1,47.5,201.5,51c25.8,1.3,51.9-0.6,77.7-2
			c11.3-0.6,18.1-9,17.6-18.6c-0.6-10.2-8.8-16.9-20.5-16.4c-8.4,0.4-16.8,1.6-25.2,1.9c-85.4,3.4-166.4-14-243.3-51.6
			c-5-2.4-11.8-3.7-17.1-2.4c-62.9,15.2-126.6,24.7-191.2,27.6c-69.2,3.1-137.5-1.3-202.9-26.7c-54.7-21.2-103.5-52.8-151.2-86.4
			c-41.4-29.2-78.7-65-129.2-79.4c-0.7-0.2-1.6-0.3-1.9-0.8c-1.6-2.4-4.5-5-4.5-7.5c0.2-17.5-1.8-35.7,2.1-52.4
			c15.9-68.7,32.6-137.3,50.9-205.3c32.9-122.3,67.2-244.2,100.7-366.4c2.2-8.1,6.4-12.9,14.3-16.4c45.1-20.2,89.9-41,134.8-61.6
			c42-19.2,84-38.4,126.7-57.9c29,38,57.9,75.5,86.5,113.3c5,6.7,3.8,14-1.8,20.3c-27.7,31.2-55.4,62.6-83.4,93.6
			c-8.3,9.3-16,9.3-25.4,0.8c-10.1-9.2-20-18.8-30.3-27.8c-9.6-8.4-18.9-7.1-27.8,1.8c-4,4-9.4,8.2-14.6,9
			c-17.2,2.8-34.7,3.5-51.9,6.2c-5.9,0.9-13.5,4.2-16.1,8.8c-2.6,4.6-0.8,12.5,0.8,18.5c1.1,4.1,5.4,7.2,7.8,11.1
			c3.2,5.2,7.5,10.5,8.6,16.2c1.9,10.7,1.7,21.7,2.4,32.6c4.5,77.2,8.1,154.4,13.9,231.5c1.9,26-5.4,48.4-16.3,70.5
			c-2,4.1-6.2,7.4-9.9,10.4c-7.6,6.1-9.8,13.6-6,22.4c3.5,8.1,13.8,13,22.1,8.4c8.2-4.6,16.9-11.1,21.3-19.1
			c8.5-15.6,13.9-32.8,20.9-49.2c1.7-4,3.7-8.7,7-11c49.6-35.7,104.3-53.8,165.4-41c72.6,15.2,129.8,50,150.8,127.5
			c1.2,4.6,7.8,10.1,12.5,10.9c5.2,0.9,14-1.7,16.3-5.6c3.4-5.9,4.9-15.1,3-21.6c-4.1-14-9.7-27.9-17-40.5
			c-7.7-13.6-18-25.7-27.4-38.9c18.5-22.7,39.5-43.2,64.6-59.3c39.2-25.2,81.8-35.8,128.3-29.8c45.2,5.9,85.5,23.7,122.3,50
			c10.6,7.6,20.5,7,27-1.5c6.8-8.7,4.9-19.7-6.4-26.9c-18.3-11.7-36.5-24-56.1-32.9c-86.1-38.7-169.7-36.5-247.6,20.7
			c-21.9,16.1-40.6,36.3-61.6,55.3c-40.6-26.1-86.1-43.7-136.9-45.9c-51-2.2-97.4,12.2-141.6,39.2c-5.5-93.1-10.9-184.6-16.3-275.5
			C398.2,302.9,413.5,298.2,431,292.9z M536.6,961.8c17.9-2.4,47.8-6.1,77.6-10.5c11.7-1.8,17.9-10.9,15.9-20.8
			c-2.1-10.3-10.7-15.4-22.3-13.7c-19.1,2.8-38.1,6.6-57.2,7.9c-102.7,7.1-190.7-23.9-259.5-102.9c-6.2-7.1-11.2-15.3-17.1-22.7
			c-5.8-7.1-15.3-8.5-22.7-4c-7.8,4.8-10.7,14.5-6.2,23c2.6,4.9,5.9,9.6,9.4,14C323.2,919.6,414.8,959.4,536.6,961.8z M895.4,386.1
			c22.1,0,44.1,0.1,66.2,0c15-0.1,21.2-6.1,21.3-20.8c0.1-15.4,0.1-30.9,0-46.3c-0.1-14.8-6.4-21.1-21.2-21.2
			c-44.5-0.1-88.9-0.1-133.4,0c-14.8,0-21.3,6.3-21.5,21c-0.3,15.4-0.3,30.9,0,46.3c0.2,14.9,6.5,21,21.4,21
			C850.6,386.2,873,386.1,895.4,386.1z M895.1,439c22.1,0,44.1,0.1,66.2,0c14-0.1,21.4-6.2,21.5-17.4c0.1-11.1-7.6-17.6-21.4-17.7
			c-44.5-0.1-89-0.1-133.4,0c-13.5,0-21.3,7.1-21,18.1c0.3,10.6,8,17,20.9,17C850.3,439.1,872.7,439,895.1,439z M933.4,810
			c-16.6,0.4-23.9,13-19.1,27.2c4.7,13.7,14.7,22.8,26.5,30.3c28.5,18,60.7,24.8,93.1,30.7c2,0.4,4.2,0,6.2-0.5
			c8.4-2.4,12.9-8.3,13.3-16.9c0.4-8.8-6.2-15.3-16.2-17.9c-20.9-5.5-42.1-10.5-62.5-17.5c-12.9-4.4-24.3-11.7-29.8-26.1
			C943.1,814.6,935.9,811.9,933.4,810z"/>
		<path d="M904.8,0c47.6,60.3,95.2,120.7,142.9,181c5.1,6.5,8,13.4,4.1,21.4c-3.9,7.9-10.9,10.3-19.2,10.3c-16.1,0-32.2,0-49.6,0
			c0,15.5,0,30.2,0,44.8c-0.1,16.9-5.9,22.8-22.8,22.8c-43.5,0.1-87,0.1-130.5,0c-16.7,0-22.7-6.1-22.8-23
			c-0.2-13.7-0.2-27.4-0.3-41.1c0-0.7-0.4-1.3-1.1-3.5c-15.9,0-32.3,0.6-48.6-0.3c-6-0.4-13.5-3-17.4-7.3
			c-6.9-7.4-4.3-16.1,1.8-23.8C788.6,121.5,835.8,61.7,883,1.9c0.4-0.5,0.5-1.2,0.8-1.9C890.7,0,897.8,0,904.8,0z M789.5,177.1
			c11.6,0,20.4,0,29.2,0c17.6,0.1,23.2,5.6,23.2,23.3c0,14.6,0,29.2,0,43.6c36.1,0,70.7,0,105.8,0c0-15.1-0.1-29.5,0-43.9
			c0.1-17,6-22.9,22.7-23c8.9-0.1,17.9,0,29.1,0c-35.8-45.5-70.1-89-105.1-133.4C859.4,88.3,825.2,131.7,789.5,177.1z"/>
		<path d="M431,292.9c-17.5,5.3-32.8,9.9-47.8,14.5c5.4,90.9,10.8,182.4,16.3,275.5c44.2-27,90.7-41.4,141.6-39.2
			c50.8,2.2,96.3,19.9,136.9,45.9c21-19,39.8-39.3,61.6-55.3c77.9-57.2,161.5-59.4,247.6-20.7c19.7,8.8,37.9,21.2,56.1,32.9
			c11.3,7.2,13.1,18.2,6.4,26.9c-6.5,8.4-16.4,9-27,1.5c-36.8-26.4-77.1-44.1-122.3-50c-46.5-6.1-89.1,4.6-128.3,29.8
			c-25.1,16.1-46,36.6-64.6,59.3c9.5,13.2,19.7,25.3,27.4,38.9c7.2,12.7,12.8,26.5,17,40.5c1.9,6.5,0.4,15.7-3,21.6
			c-2.3,3.9-11.1,6.4-16.3,5.6c-4.8-0.8-11.3-6.2-12.5-10.9c-21-77.5-78.2-112.3-150.8-127.5c-61.1-12.8-115.8,5.2-165.4,41
			c-3.3,2.4-5.3,7-7,11c-7,16.4-12.4,33.6-20.9,49.2c-4.3,8-13.1,14.4-21.3,19.1c-8.3,4.7-18.6-0.2-22.1-8.4
			c-3.8-8.9-1.6-16.3,6-22.4c3.7-3,7.9-6.3,9.9-10.4c10.9-22.2,18.2-44.5,16.3-70.5c-5.8-77.1-9.4-154.3-13.9-231.5
			c-0.6-10.9-0.5-21.9-2.4-32.6c-1-5.7-5.3-11-8.6-16.2c-2.4-3.9-6.7-7-7.8-11.1c-1.6-6-3.4-13.8-0.8-18.5
			c2.6-4.6,10.2-7.9,16.1-8.8c17.2-2.7,34.7-3.4,51.9-6.2c5.3-0.8,10.6-5,14.6-9c8.9-8.9,18.2-10.2,27.8-1.8
			c10.3,9,20.1,18.6,30.3,27.8c9.4,8.5,17.1,8.5,25.4-0.8c27.9-31.1,55.6-62.4,83.4-93.6c5.6-6.3,6.8-13.6,1.8-20.3
			c-28.5-37.8-57.4-75.3-86.5-113.3c-42.7,19.5-84.7,38.7-126.7,57.9c-44.9,20.6-89.7,41.4-134.8,61.6c-7.9,3.5-12,8.2-14.3,16.4
			C187,312.8,152.6,434.7,119.8,557c-18.3,68.1-35,136.6-50.9,205.3c-3.9,16.8-1.9,34.9-2.1,52.4c0,2.5,2.8,5,4.5,7.5
			c0.3,0.5,1.2,0.6,1.9,0.8c50.4,14.4,87.8,50.2,129.2,79.4c47.7,33.6,96.6,65.1,151.2,86.4c65.4,25.4,133.7,29.8,202.9,26.7
			c64.6-2.9,128.3-12.4,191.2-27.6c5.2-1.3,12.1,0,17.1,2.4c76.8,37.5,157.8,54.9,243.3,51.6c8.4-0.3,16.8-1.6,25.2-1.9
			c11.7-0.5,19.9,6.3,20.5,16.4c0.6,9.6-6.3,18-17.6,18.6c-25.9,1.3-51.9,3.3-77.7,2c-70.4-3.5-137.7-20.6-201.5-51
			c-4.6-2.2-11.5-1.2-17,0.1c-67.5,15.5-135.9,23.6-205.2,25.9c-116.8,4-222-29.4-317.1-96.3c-27.3-19.2-54.8-38.1-81.2-58.4
			c-21.6-16.6-44.6-29.9-70.3-39.2c-27.8-10.1-33.7-21.7-35.1-51.6c-2.3-45.9,10.6-89.2,22.2-132.4
			c44.6-166.4,90.4-332.5,135.6-498.7c4-14.8,12.7-24.5,26.3-30.8C307,102.6,399,60.4,491.1,18.3c12.3-5.6,18.3-4.1,26.5,6.5
			c30.8,40.1,61.7,80.1,92.2,120.4c16.1,21.3,15.1,46.4-2.7,66.7c-28,32-56.2,63.7-84.8,95.2c-20,22-50.1,23-72.4,3.2
			C443.1,304.3,436.5,298,431,292.9z"/>
		<path d="M536.6,961.8c-121.8-2.4-213.4-42.2-282.3-129.6c-3.5-4.4-6.8-9-9.4-14c-4.5-8.5-1.6-18.2,6.2-23c7.3-4.6,16.9-3.2,22.7,4
			c6,7.3,10.9,15.5,17.1,22.7c68.8,79,156.8,109.9,259.5,102.9c19.2-1.3,38.2-5.1,57.2-7.9c11.6-1.7,20.2,3.4,22.3,13.7
			c2,9.9-4.1,19-15.9,20.8C584.4,955.7,554.5,959.4,536.6,961.8z"/>
		<path d="M895.4,386.1c-22.4,0-44.8,0.1-67.2,0c-14.9-0.1-21.1-6.1-21.4-21c-0.3-15.4-0.3-30.9,0-46.3c0.3-14.7,6.7-21,21.5-21
			c44.5-0.1,88.9-0.1,133.4,0c14.8,0,21.1,6.4,21.2,21.2c0.1,15.4,0.1,30.9,0,46.3c-0.1,14.8-6.3,20.8-21.3,20.8
			C939.5,386.2,917.4,386.1,895.4,386.1z M842.1,350.1c35.4,0,69.9,0,105,0c0-5.7,0-10.7,0-15.9c-35.3,0-70.1,0-105,0
			C842.1,339.6,842.1,344.1,842.1,350.1z"/>
		<path d="M895.1,439c-22.4,0-44.8,0.1-67.2,0c-12.9-0.1-20.6-6.5-20.9-17c-0.3-11,7.6-18,21-18.1c44.5-0.1,89-0.1,133.4,0
			c13.8,0,21.4,6.6,21.4,17.7c-0.1,11.2-7.5,17.4-21.5,17.4C939.3,439.1,917.2,439,895.1,439z"/>
		<path d="M933.4,810c2.5,1.9,9.7,4.5,11.5,9.3c5.6,14.4,17,21.7,29.8,26.1c20.5,6.9,41.6,12,62.5,17.5c10,2.6,16.6,9.1,16.2,17.9
			c-0.4,8.6-4.9,14.5-13.3,16.9c-2,0.6-4.2,0.9-6.2,0.5c-32.5-5.9-64.7-12.7-93.1-30.7c-11.8-7.4-21.9-16.6-26.5-30.3
			C909.4,823,916.8,810.5,933.4,810z"/>
		<path class="st0" d="M789.5,177.1c35.8-45.4,69.9-88.8,105-133.4c34.9,44.3,69.3,87.9,105.1,133.4c-11.3,0-20.2,0-29.1,0
			c-16.7,0.1-22.6,6-22.7,23c-0.1,14.4,0,28.8,0,43.9c-35.2,0-69.7,0-105.8,0c0-14.4,0-29,0-43.6c-0.1-17.7-5.6-23.2-23.2-23.3
			C809.9,177.1,801.1,177.1,789.5,177.1z"/>
		<path class="st0" d="M842.1,350.1c0-5.9,0-10.5,0-15.9c34.9,0,69.7,0,105,0c0,5.2,0,10.3,0,15.9
			C912,350.1,877.5,350.1,842.1,350.1z"/>
	</g>
</g>
</svg>
