<?xml version="1.0" encoding="utf-8"?>
<!-- Generator: Adobe Illustrator 25.0.0, SVG Export Plug-In . SVG Version: 6.00 Build 0)  -->
<svg version="1.1" id="Capa_1" xmlns="http://www.w3.org/2000/svg" xmlns:xlink="http://www.w3.org/1999/xlink" x="0px" y="0px"
	 viewBox="0 0 1080 1080" style="enable-background:new 0 0 1080 1080;" xml:space="preserve">
<style type="text/css">
	.st0{fill:#FFFFFF;}
</style>
<path class="st0" d="M629.5,538.9c-29.9-25.6-59.2-50.8-88.5-75.9c-61.4-52.6-122.7-105.3-184.2-157.8c-12.9-11-20.4-24.3-18.4-41.4
	c2-17.4,11.3-30.1,27.7-36.8c16.9-6.9,32.5-4,46.3,7.5c22.9,19.2,45.4,38.8,68.1,58.2c81.2,69.5,162.3,139.1,243.6,208.5
	c15.1,12.9,23.9,28.4,18,48.1c-2.7,9.2-8.6,18.9-15.9,25.2C621.3,665,516,755,410.7,845c-19.9,17-47.9,14.7-64.1-4.7
	c-16.6-19.9-13.7-46.9,7-64.7c89.1-76.4,178.3-152.8,267.5-229.2C623.8,544.2,626.3,541.8,629.5,538.9z"/>
</svg>
