<?xml version="1.0" encoding="utf-8"?>
<!-- Generator: Adobe Illustrator 25.0.0, SVG Export Plug-In . SVG Version: 6.00 Build 0)  -->
<svg version="1.1" id="Capa_1" xmlns="http://www.w3.org/2000/svg" xmlns:xlink="http://www.w3.org/1999/xlink" x="0px" y="0px"
	 viewBox="0 0 1080 1080" style="enable-background:new 0 0 1080 1080;" xml:space="preserve">
<style type="text/css">
	.st0{fill:#FFFFFF;}
</style>
<path class="st0" d="M450.2,539.1c19.8,17,38.9,33.4,58.1,49.8c72.4,62,144.7,123.9,217.1,185.9c21.8,18.6,24.8,46.1,7.2,66.1
	c-17.1,19.6-44.4,20.3-65.8,2C563.5,754.5,460.1,666,356.7,577.6c-28-23.9-28.2-52.8-0.1-76.9C459.4,412.6,562.2,324.6,665,236.6
	c21.5-18.4,48.7-17.3,65.8,2.5s14.6,46.9-6.9,65.4C637.3,379,550.4,453.2,463.7,527.6C459.4,531.1,455.2,534.8,450.2,539.1z"/>
</svg>
