<?xml version="1.0" encoding="utf-8"?>
<!-- Generator: Adobe Illustrator 25.0.0, SVG Export Plug-In . SVG Version: 6.00 Build 0)  -->
<svg version="1.1" id="Capa_1" xmlns="http://www.w3.org/2000/svg" xmlns:xlink="http://www.w3.org/1999/xlink" x="0px" y="0px"
	 viewBox="0 0 1080 1080" style="enable-background:new 0 0 1080 1080;" xml:space="preserve">
<style type="text/css">
	.st0{fill:#FFFFFF;}
</style>
<g>
	<g>
		<path class="st0" d="M757.3,0c107.5,0,215,0,322.7,0c0,360,0,720,0,1080c-102,0-203.9,0-305.8,0c8.6-1.6,17.1-3,25.7-4.7
			c116.5-22.6,202.8-126.1,204.2-244.7c1.4-120.6-81.4-225.2-198.9-250.8c-12.2-2.7-24.6-4.3-37.3-6.4c0-4.8,0-9,0-13.2
			c0-178.6-0.1-357.1,0.2-535.7C768.1,14.2,766,5.9,757.3,0z"/>
		<path d="M757.3,0c8.6,5.9,10.7,14.2,10.7,24.5c-0.3,178.6-0.2,357.1-0.2,535.7c0,4.2,0,8.4,0,13.2c12.7,2.2,25.2,3.8,37.3,6.4
			c117.4,25.6,200.3,130.2,198.9,250.8c-1.4,118.5-87.7,222-204.2,244.7c-8.5,1.7-17.1,3.1-25.7,4.7c-15.5,0-30.9,0-46.4,0
			c-2.3-0.7-4.6-1.6-6.9-1.9C617,1062.1,546.8,1004.7,511,906.1c-7.1-19.6-9.8-40.8-14.7-62.4c-2.8,0-7,0-11.2,0
			c-128.3,0-256.6,0-384.9,0c-19.4,0-24.2-4.9-24.2-24.3c0-265,0-530-0.2-795c0-10.3,2.1-18.5,10.7-24.4C310.1,0,533.7,0,757.3,0z
			 M160.7,759c2.6,0.2,4.3,0.4,6,0.4c110.7,0,221.4-0.1,332.1,0.2c7.6,0,9.1-3.7,11-9.4c27.8-81.5,82.4-136.5,164.1-164.1
			c7.9-2.7,9.7-6.1,9.7-14c-0.3-158.9-0.2-317.7-0.2-476.6c0-3.4,0-6.8,0-9.8c-1.7-0.7-2.3-1.2-2.9-1.2
			c-47.1-0.1-94.2-0.2-141.3,0.1c-2.8,0-6.5,3.2-8.1,5.8c-4.1,6.9-9.3,10.9-17.7,10.8c-61.2-0.1-122.3,0.2-183.5-0.5
			c-5.4-0.1-12.7-4.6-15.8-9.3c-3.7-5.6-6.9-7.3-13.2-7.3c-41.5,0.2-82.9,0.1-124.4,0.1c-5.2,0-10.3,0-15.9,0
			C160.7,309.7,160.7,533.8,160.7,759z M750.5,1046.2c120.9,0.2,219.7-98.1,219.9-218.9c0.2-120.9-98.1-219.6-218.9-219.8
			c-120.9-0.2-219.6,98.1-219.8,218.9C531.4,947.3,629.7,1046,750.5,1046.2z M500.1,793.1c-5.1,0-9.2,0-13.4,0
			c-112.5,0-225,0-337.5,0c-17.2,0-22.6-5.4-22.6-22.7c0-233.1,0-466.1,0-699.2c0-15.3,5.4-20.5,21.1-20.5c44.3,0,88.6,0,132.9,0
			c3.7,0,7.4,0,11.5,0c-2.6-12.6-8.1-17.5-21-17.2c-49.9,0.9-99.8,0.4-149.8,0.4c-3.7,0-7.4,0-11.1,0c0,259.4,0,517.3,0,775.7
			c129.4,0,258.3,0,387.9,0C498.7,804.3,499.3,799.2,500.1,793.1z M551.9,50.6c47.7,0,94.8,0,141.8,0c19.1,0,23.5,4.4,23.5,23.4
			c0,163,0,326,0,489.1c0,4.1,0,8.2,0,13.1c6.4-0.9,11.4-1.6,16.3-2.3c0-180.4,0-359.8,0-540.1c-4.4,0-8.1,0-11.9,0
			c-49.5,0-99.1,0.5-148.6-0.4C560.3,33.2,554.2,37.5,551.9,50.6z M323,34.3c5.3,10.6,9.8,20.4,15.2,29.8c1.1,2,5.1,3.3,7.8,3.3
			c50.6,0.2,101.2,0.2,151.8,0c2.5,0,6.4-0.7,7.3-2.4c5.5-9.8,10.3-20.1,15.6-30.7C454.1,34.3,389.2,34.3,323,34.3z"/>
		<path class="st0" d="M86.5,0c-8.7,5.9-10.7,14.2-10.7,24.4c0.2,265,0.2,530,0.2,795c0,19.4,4.9,24.3,24.2,24.3
			c128.3,0,256.6,0,384.9,0c4.2,0,8.4,0,11.2,0c5,21.6,7.6,42.8,14.7,62.4c35.8,98.5,106,156,209.9,171.9c2.4,0.4,4.6,1.3,6.9,1.9
			c-242.6,0-485.2,0-727.8,0C0,720,0,360,0,0C28.8,0,57.7,0,86.5,0z"/>
		<path class="st0" d="M160.7,759c0-225.2,0-449.3,0-674.6c5.5,0,10.7,0,15.9,0c41.5,0,82.9,0.1,124.4-0.1c6.3,0,9.5,1.7,13.2,7.3
			c3.1,4.7,10.3,9.2,15.8,9.3c61.1,0.6,122.3,0.3,183.5,0.5c8.4,0,13.6-3.9,17.7-10.8c1.6-2.7,5.3-5.8,8.1-5.8
			c47.1-0.3,94.2-0.2,141.3-0.1c0.6,0,1.2,0.5,2.9,1.2c0,3,0,6.4,0,9.8c0,158.9-0.1,317.7,0.2,476.6c0,7.9-1.8,11.3-9.7,14
			c-81.6,27.6-136.3,82.6-164.1,164.1c-1.9,5.7-3.5,9.4-11,9.4c-110.7-0.3-221.4-0.2-332.1-0.2C165,759.4,163.3,759.2,160.7,759z
			 M506.3,185.6c-35.5,0-71-0.1-106.5,0c-12.8,0-20.6,7.3-19.9,17.9c0.6,9.8,7.9,15.7,19.9,15.8c36.6,0.1,73.1,0,109.7,0
			c34.5,0,68.9,0.1,103.4,0c12.7,0,20.6-7.3,20-17.9c-0.6-9.8-7.9-15.8-19.9-15.8C577.3,185.6,541.8,185.6,506.3,185.6z
			 M506.6,489.4c34.8,0,69.6,0,104.4,0c14.1,0,22-6.4,21.7-17.2c-0.2-10.4-7.9-16.5-21.4-16.5c-70,0-139.9,0-209.9,0
			c-14.1,0-21.9,6.4-21.7,17.2c0.2,10.5,7.8,16.5,21.4,16.5C436.3,489.5,471.5,489.4,506.6,489.4z M506.3,354.4
			c35.2,0,70.3,0,105.5,0c13.4,0,21-6.2,21-16.8c0-10.5-7.8-16.9-21-16.9c-70.3-0.1-140.6-0.1-211,0c-13.3,0-21,6.4-21,16.9
			c0,10.6,7.6,16.7,21,16.8C436,354.5,471.1,354.4,506.3,354.4z M471.5,624.4c24.3,0,48.5,0,72.8,0c13.3,0,21-6.3,21-16.9
			c0-10.5-7.8-16.8-21.1-16.8c-47.8-0.1-95.6-0.1-143.4,0c-13.3,0-21,6.3-21,16.9c0,10.6,7.6,16.8,21,16.8
			C424.4,624.4,447.9,624.4,471.5,624.4z M262.6,363.7c-2.1-1.6-3-2.1-3.8-2.8c-9.6-7.9-18.1-8.3-25.2-1.2c-7,7.1-6.5,16.3,1.5,25.3
			c4.2,4.7,8.5,9.3,12.9,13.9c8.6,8.7,18,8.9,26.7,0.4c15.7-15.6,31.3-31.2,46.8-47c9.2-9.4,9.9-19.4,2.2-26.7
			c-7.5-7.1-16.9-6.2-26,2.8C286,339.8,274.5,351.6,262.6,363.7z M262.6,498.5c-1.8-1.3-3-2.1-4-2.9c-9.6-7.8-18.2-8-25.2-0.8
			c-6.9,7.2-6.2,16.3,2,25.3c4,4.4,8,8.8,12.2,13.1c9,9.4,18.4,9.7,27.4,0.7c15.7-15.6,31.3-31.2,46.8-47c8.9-9,9.6-18.6,2.5-26
			c-7.4-7.7-17.3-6.9-26.7,2.4C285.8,474.9,274.3,486.7,262.6,498.5z M262.5,228.6c-2.2-1.7-3-2.3-3.8-2.9
			c-9.5-7.9-18.1-8.2-25.2-1.1c-7,7.1-6.4,16.3,1.7,25.3c4.2,4.7,8.5,9.4,12.9,13.9c8.6,8.7,18,8.9,26.7,0.2
			c15.7-15.6,31.3-31.3,46.8-47c8.9-9.1,9.8-18.6,2.8-26c-7.3-7.8-17.4-7.1-26.7,2.2C286,204.8,274.5,216.6,262.5,228.6z
			 M262.6,633.8c-2.3-1.9-3.3-2.7-4.4-3.6c-9-7.4-17.5-7.7-24.4-0.9c-7.2,7-6.8,16.4,1.1,25.3c4.2,4.7,8.5,9.4,12.9,13.9
			c8.9,9.2,18.2,9.3,27.4,0.1c15.4-15.4,30.8-30.8,46.1-46.3c9.4-9.5,10.2-19.3,2.6-26.7c-7.6-7.4-17.2-6.4-26.7,3.1
			C285.8,610.1,274.6,621.7,262.6,633.8z M438.3,270c13.7,0,27.4,0.2,41.1-0.1c10.9-0.2,18-6.8,18.3-16.3
			c0.3-9.9-7.1-17.2-18.5-17.3c-27.1-0.2-54.1-0.2-81.2,0c-10.9,0.1-18,6.8-18.3,16.3c-0.3,10,7,17,18.4,17.3
			C411.6,270.2,424.9,270,438.3,270z M437.9,540.1c13.7,0,27.4,0.2,41.1-0.1c11.5-0.2,18.9-7.1,18.8-17c-0.1-9.8-7.5-16.6-19.1-16.7
			c-26.7-0.2-53.4-0.2-80.1,0c-11.5,0.1-18.8,7-18.7,17c0.1,9.9,7.4,16.5,19,16.7C411.8,540.2,424.8,540.1,437.9,540.1z M438.8,675
			c13.4,0,26.7,0.2,40.1,0c11.5-0.2,18.9-7,18.9-16.8c0-9.9-7.4-16.7-18.9-16.8c-26.7-0.2-53.4-0.2-80.1,0
			c-11.6,0.1-18.9,6.9-18.9,16.8c0,10,7.3,16.6,18.9,16.8C412.1,675.1,425.4,675,438.8,675z M439.2,371.3c-13.4,0-26.7-0.1-40.1,0
			c-11.7,0.2-19.1,6.6-19.3,16.4c-0.3,10.3,7.2,17.2,19.5,17.2c26.4,0.1,52.7,0.1,79.1,0c11.8-0.1,19.1-6.5,19.4-16.3
			c0.3-10.2-7.4-17.2-19.5-17.3C465.2,371.2,452.2,371.3,439.2,371.3z"/>
		<path class="st0" d="M750.5,1046.2c-120.8-0.2-219.1-99-218.9-219.9c0.2-120.8,98.9-219,219.8-218.9
			c120.8,0.2,219.1,98.9,218.9,219.8C970.2,948.1,871.4,1046.5,750.5,1046.2z M733.2,925.8c4.9,36.9,23.2,52.9,59.3,52.9
			c7.4,0,14.8,0,22.1,0c51.6-0.1,88.4-36.8,88.3-88.2c-0.1-46.7-1.7-93.5,0.4-140.2c1.8-39-33-72.8-78.8-52.7
			c-3.5,1.6-8.9,1.4-12.5,0c-18.2-7.3-36.1-7.3-54.3-0.2c-4,1.5-9.5,1.6-13.5,0.1c-17.9-7.1-35.4-7-53.4-0.5
			c-4.5,1.6-10.8,1.6-15.3-0.2c-46.2-18.5-78.7,15.9-76.9,51.3c2,37.5,0.3,75.2,0.5,112.8c0.2,24.2,16.1,44.7,40,48.6
			c11.5,1.9,23.8-0.9,37.4-1.6C689.8,924.9,709,931.9,733.2,925.8z"/>
		<path class="st0" d="M500.1,793.1c-0.7,6.1-1.3,11.2-2,16.4c-129.6,0-258.5,0-387.9,0c0-258.4,0-516.3,0-775.7c3.7,0,7.4,0,11.1,0
			c49.9,0,99.9,0.5,149.8-0.4c12.9-0.2,18.4,4.7,21,17.2c-4.1,0-7.8,0-11.5,0c-44.3,0-88.6,0-132.9,0c-15.7,0-21.1,5.2-21.1,20.5
			c0,233.1,0,466.1,0,699.2c0,17.3,5.4,22.7,22.6,22.7c112.5,0,225,0,337.5,0C490.8,793.1,495,793.1,500.1,793.1z"/>
		<path class="st0" d="M551.9,50.6c2.3-13.1,8.4-17.4,21.1-17.2c49.5,0.9,99.1,0.4,148.6,0.4c3.8,0,7.6,0,11.9,0
			c0,180.3,0,359.7,0,540.1c-4.9,0.7-9.9,1.4-16.3,2.3c0-4.9,0-9,0-13.1c0-163,0-326,0-489.1c0-19-4.4-23.4-23.5-23.4
			C646.7,50.6,599.6,50.6,551.9,50.6z"/>
		<path class="st0" d="M323,34.3c66.2,0,131.1,0,197.7,0C515.4,45,510.6,55.2,505.1,65c-0.9,1.7-4.8,2.4-7.3,2.4
			c-50.6,0.1-101.2,0.2-151.8,0c-2.7,0-6.7-1.3-7.8-3.3C332.8,54.7,328.3,44.9,323,34.3z"/>
		<path d="M506.3,185.6c35.5,0,71-0.1,106.5,0c12,0,19.3,6,19.9,15.8c0.7,10.6-7.2,17.8-20,17.9c-34.5,0.1-68.9,0-103.4,0
			c-36.6,0-73.1,0.1-109.7,0c-12,0-19.3-6-19.9-15.8c-0.7-10.6,7.2-17.8,19.9-17.9C435.3,185.6,470.8,185.6,506.3,185.6z"/>
		<path d="M506.6,489.4c-35.2,0-70.3,0-105.5,0c-13.6,0-21.1-6-21.4-16.5c-0.2-10.9,7.6-17.2,21.7-17.2c70,0,139.9,0,209.9,0
			c13.4,0,21.2,6.1,21.4,16.5c0.2,10.8-7.7,17.2-21.7,17.2C576.2,489.5,541.4,489.4,506.6,489.4z"/>
		<path d="M506.3,354.4c-35.2,0-70.3,0-105.5,0c-13.4,0-21-6.2-21-16.8c0-10.5,7.7-16.9,21-16.9c70.3-0.1,140.6-0.1,211,0
			c13.3,0,21,6.4,21,16.9c0,10.6-7.6,16.8-21,16.8C576.6,354.5,541.4,354.4,506.3,354.4z"/>
		<path d="M471.5,624.4c-23.6,0-47.1,0-70.7,0c-13.4,0-21-6.2-21-16.8c0-10.6,7.6-16.9,21-16.9c47.8-0.1,95.6-0.1,143.4,0
			c13.3,0,21,6.3,21.1,16.8c0,10.5-7.7,16.8-21,16.9C520,624.4,495.8,624.4,471.5,624.4z"/>
		<path d="M262.6,363.7c12-12.1,23.5-23.9,35.2-35.4c9.1-9,18.4-9.8,26-2.8c7.8,7.3,7.1,17.3-2.2,26.7c-15.5,15.8-31.1,31.4-46.8,47
			c-8.6,8.6-18.1,8.4-26.7-0.4c-4.4-4.5-8.7-9.2-12.9-13.9c-8-8.9-8.5-18.2-1.5-25.3c7.1-7.1,15.6-6.7,25.2,1.2
			C259.6,361.5,260.4,362.1,262.6,363.7z"/>
		<path d="M262.6,498.5c11.8-11.8,23.3-23.6,35-35.2c9.4-9.3,19.3-10.1,26.7-2.4c7.1,7.4,6.4,17-2.5,26
			c-15.5,15.8-31.1,31.4-46.8,47c-9,9-18.4,8.7-27.4-0.7c-4.1-4.3-8.2-8.7-12.2-13.1c-8.1-9-8.8-18.1-2-25.3
			c6.9-7.3,15.5-7,25.2,0.8C259.6,496.5,260.7,497.2,262.6,498.5z"/>
		<path d="M262.5,228.6c11.9-12.1,23.4-23.8,35.1-35.4c9.3-9.2,19.4-9.9,26.7-2.2c7,7.4,6.2,16.9-2.8,26
			c-15.5,15.8-31.1,31.5-46.8,47c-8.7,8.7-18.1,8.5-26.7-0.2c-4.4-4.5-8.7-9.2-12.9-13.9c-8.1-9-8.6-18.2-1.7-25.3
			c7-7.2,15.7-6.8,25.2,1.1C259.5,226.4,260.3,227,262.5,228.6z"/>
		<path d="M262.6,633.8c12-12.2,23.2-23.8,34.6-35.2c9.5-9.5,19.1-10.5,26.7-3.1c7.6,7.4,6.7,17.2-2.6,26.7
			c-15.3,15.5-30.7,30.9-46.1,46.3c-9.2,9.2-18.5,9.1-27.4-0.1c-4.4-4.5-8.7-9.2-12.9-13.9c-7.9-8.9-8.2-18.3-1.1-25.3
			c6.9-6.8,15.4-6.4,24.4,0.9C259.3,631.1,260.4,632,262.6,633.8z"/>
		<path d="M438.3,270c-13.4,0-26.7,0.2-40.1-0.1c-11.4-0.2-18.7-7.3-18.4-17.3c0.3-9.5,7.4-16.3,18.3-16.3c27.1-0.2,54.1-0.2,81.2,0
			c11.3,0.1,18.8,7.4,18.5,17.3c-0.3,9.5-7.4,16.1-18.3,16.3C465.7,270.2,452,270,438.3,270z"/>
		<path d="M437.9,540.1c-13,0-26,0.2-39,0c-11.7-0.2-18.9-6.7-19-16.7c-0.1-9.9,7.2-16.9,18.7-17c26.7-0.2,53.4-0.2,80.1,0
			c11.6,0.1,19,6.8,19.1,16.7c0.1,9.9-7.3,16.8-18.8,17C465.3,540.2,451.6,540.1,437.9,540.1z"/>
		<path d="M438.8,675c-13.4,0-26.7,0.2-40.1,0c-11.6-0.2-18.9-6.8-18.9-16.8c0-10,7.2-16.8,18.9-16.8c26.7-0.2,53.4-0.2,80.1,0
			c11.5,0.1,18.9,6.9,18.9,16.8c0,9.9-7.4,16.7-18.9,16.8C465.5,675.1,452.1,675,438.8,675z"/>
		<path d="M439.2,371.3c13,0,26-0.1,39,0c12.1,0.2,19.8,7.2,19.5,17.3c-0.3,9.9-7.6,16.2-19.4,16.3c-26.4,0.1-52.7,0.1-79.1,0
			c-12.3-0.1-19.8-6.9-19.5-17.2c0.3-9.8,7.6-16.3,19.3-16.4C412.5,371.2,425.9,371.3,439.2,371.3z"/>
		<path d="M733.2,925.8c-24.2,6.1-43.4-0.9-56.7-18c-13.6,0.7-25.9,3.5-37.4,1.6c-23.9-4-39.8-24.4-40-48.6
			c-0.2-37.6,1.5-75.3-0.5-112.8c-1.9-35.3,30.7-69.7,76.9-51.3c4.5,1.8,10.8,1.9,15.3,0.2c18-6.5,35.5-6.6,53.4,0.5
			c3.9,1.5,9.5,1.4,13.5-0.1c18.3-7.1,36.1-7.1,54.3,0.2c3.6,1.5,9,1.6,12.5,0c45.9-20.1,80.7,13.7,78.8,52.7
			c-2.2,46.6-0.5,93.4-0.4,140.2c0.1,51.4-36.7,88.2-88.3,88.2c-7.4,0-14.8,0-22.1,0C756.4,978.7,738.1,962.7,733.2,925.8z M869,810
			c0-21.8,0.2-43.6-0.1-65.4c-0.2-14.5-10-21.9-23.9-18.2c-4.6,1.2-9.4,3.4-13.1,6.4c-9.1,7.1-17.3,7.2-26.7,0.2
			c-13.6-10-27.4-10-40.9-0.1c-9.3,6.8-17.5,7.2-26.7,0c-9.1-7.1-21-11.2-30.5-4.9c-16.8,11.2-30.5,10.1-47.6,0
			c-14.3-8.5-26.4,1-26.5,17.6c-0.2,37.2-0.1,74.5,0,111.7c0,12.6,6.5,20,16.7,20c10.1,0,16.6-7.5,16.9-20.1
			c0.2-9.1,0-18.3,0.1-27.4c0.2-12.5,6.4-19.9,16.8-19.9c10.3,0,16.7,7.5,16.9,19.9c0.2,14.8,0,29.5,0.2,44.3
			c0.1,12.5,6.4,20,16.6,20c10.1,0,16.7-7.5,16.9-20c0.2-14.8,0-29.5,0.1-44.3c0.1-12.6,6.3-19.9,16.7-20c10.3-0.1,16.8,7.4,17,19.8
			c0.2,14.8,0,29.5,0.2,44.3c0.1,12.3,6.7,20.1,16.6,20.1c10.1,0.1,16.7-7.5,16.9-20c0.2-14.8,0-29.5,0.1-44.3
			c0.1-12.6,6.3-19.9,16.7-20c10.3-0.1,16.9,7.4,17,19.8c0.2,14.4,0,28.8,0.2,43.2c0.1,13.6,6,21.1,16.5,21.2
			c10.4,0.1,17-7.6,17.1-20.9C869.1,852.2,869,831.1,869,810z M855.3,931.1c-14.2-5.2-25.8-9.4-38.9-14.1
			c-13.1,10.4-29.9,13.9-48.4,8.8c-0.1,11,4.8,18.1,13.6,18.5c16.7,0.7,33.6,0.4,50.1-1.7C839.6,941.5,846.9,935.4,855.3,931.1z"/>
		<path class="st0" d="M869,810c0,21.1,0.1,42.2,0,63.2c-0.1,13.3-6.6,21.1-17.1,20.9c-10.5-0.1-16.4-7.6-16.5-21.2
			c-0.1-14.4,0-28.8-0.2-43.2c-0.2-12.4-6.7-19.9-17-19.8c-10.4,0.1-16.6,7.4-16.7,20c-0.1,14.8,0.1,29.5-0.1,44.3
			c-0.2,12.5-6.8,20-16.9,20c-9.9-0.1-16.5-7.9-16.6-20.1c-0.1-14.8,0-29.5-0.2-44.3c-0.2-12.4-6.7-19.9-17-19.8
			c-10.4,0.1-16.6,7.4-16.7,20c-0.1,14.8,0.1,29.5-0.1,44.3c-0.2,12.5-6.8,20-16.9,20c-10.2,0-16.5-7.5-16.6-20
			c-0.1-14.8,0-29.5-0.2-44.3c-0.2-12.5-6.6-19.9-16.9-19.9c-10.4,0-16.6,7.3-16.8,19.9c-0.1,9.1,0.1,18.3-0.1,27.4
			c-0.3,12.6-6.8,20.1-16.9,20.1c-10.2,0-16.6-7.4-16.7-20c-0.1-37.2-0.1-74.5,0-111.7c0.1-16.6,12.2-26.1,26.5-17.6
			c17.2,10.2,30.8,11.3,47.6,0c9.5-6.4,21.4-2.2,30.5,4.9c9.2,7.2,17.4,6.8,26.7,0c13.5-9.9,27.3-9.9,40.9,0.1
			c9.4,7,17.6,6.9,26.7-0.2c3.8-2.9,8.5-5.1,13.1-6.4c13.9-3.7,23.7,3.7,23.9,18.2C869.2,766.5,869,788.3,869,810z"/>
		<path class="st0" d="M855.3,931.1c-8.4,4.2-15.6,10.4-23.6,11.4c-16.5,2.1-33.4,2.5-50.1,1.7c-8.8-0.4-13.8-7.5-13.6-18.5
			c18.5,5.1,35.3,1.7,48.4-8.8C829.4,921.7,841.1,926,855.3,931.1z"/>
	</g>
</g>
</svg>
