<?xml version="1.0" encoding="utf-8"?>
<!-- Generator: Adobe Illustrator 25.0.0, SVG Export Plug-In . SVG Version: 6.00 Build 0)  -->
<svg version="1.1" id="Capa_1" xmlns="http://www.w3.org/2000/svg" xmlns:xlink="http://www.w3.org/1999/xlink" x="0px" y="0px"
	 viewBox="0 0 1080 1080" style="enable-background:new 0 0 1080 1080;" xml:space="preserve">
<style type="text/css">
	.st0{fill:#FFFFFF;}
</style>
<g>
	<g>
		<path class="st0" d="M833.2,0c82.1,0,164.2,0,246.3,0c0,360,0,720,0,1080c-360,0-720,0-1080,0c0-360,0-720,0-1080
			C262.7,0,525.8,0,789,0c-34.3,11.4-59.4,34.2-75.8,65.7c-6.7,12.9-8.4,28.5-12.6,43.2c-4.5-0.5-10-1.5-15.5-1.5
			c-35.8-0.3-71.6-0.6-107.3-0.6c-69.6-0.1-136.3,14-200.4,41.4c-29,12.4-58,24.8-87.8,35.1c-65.5,22.6-133.3,32.3-202.5,33.7
			c-20.6,0.4-28.4,10.1-25.5,30.2c1.9,12.9,3.4,25.8,5.2,38.6c14.2,106.1,63.4,191.5,150.5,254.1c15,10.7,31.2,19.7,47.9,30.2
			c-3.5,3.3-6.5,6.6-9.9,9.4c-16.6,13-33.3,25.8-49.9,38.8C168.8,647,131.5,675,95.5,704.8c-25.3,21-30.9,59.3-15.4,87.5
			c22.8,41.5,73.4,52.1,111.7,22.7c55.1-42.3,110.2-84.7,164.8-127.7c10-7.9,18.9-17.9,26.1-28.5c33-48,65.3-96.5,97.9-144.9
			c2.1-3.1,4.4-6.2,7.1-10c10.1,7.1,19.8,14,29.5,20.8c12.3,8.7,12.5,11,1.9,21.7c-33.5,33.6-66.9,67.2-100.5,100.6
			c-17,17-26.8,37-24.6,61.4c2.7,30,18.5,51.7,46.2,62.6c29.1,11.5,56.4,5.5,78.7-16.4c40.6-39.9,81.6-79.4,120.1-121.2
			c39.1-42.5,49.6-93.8,32.7-149.1c-6.1-20-18-38.3-28.5-59.7c1-0.8,4.7-3.1,7.6-6c38.4-38.6,77.2-76.7,114.7-116.2
			c8.6-9,16.4-12.9,28.4-13.4c48.7-2,93.5-17.1,134.2-43.8c53.8-35.2,90.8-86.8,127.5-137.4c28.3-38.9-3.8-95.5-52-98.1
			c-24.4-1.3-43.3,8.9-58.5,27.5c-13.2,16.2-26.7,32.2-41.7,50.3c-1.7-21.1-7.8-37.8-18.9-52.8C871.3,17.1,853.2,7.3,833.2,0z
			 M988.9,623.3c-18.5-10.2-23.9-9.5-38.4,5.1C833.1,746,715.8,863.5,598.5,981.1c-3,3-5.9,6.1-8.2,9.6c-5.7,8.5-4.5,19.1,2.4,26.1
			c7.1,7.1,17.3,8.2,26,2.4c4-2.7,7.5-6.3,11-9.7c110.9-111.1,221.8-222.2,332.7-333.3c2.9-2.9,5.9-5.6,10.5-10
			c3.5,4.4,6.1,8.2,9.2,11.6c6.4,7.1,13.9,11.9,24.1,8.9c10.1-2.9,14-10.9,16.1-20.2c13.8-60.6,27.8-121.1,41.6-181.7
			c4.5-20-8-32.5-27.9-28.1c-16.8,3.8-33.5,7.7-50.2,11.6c-44,10.1-88.1,20.1-132.1,30.4c-21.4,5-26.9,23-11.9,38.4
			c3.9,4,8.9,6.8,15.8,12c-6.2,4.5-9.7,6.5-12.4,9.2C686.6,717,528,875.8,369.5,1034.7c-3.2,3.2-6.5,6.5-9.1,10.2
			c-5.6,8.1-4.6,19.4,1.9,26.2c6.8,7.1,17.3,8.6,25.9,3c4.1-2.6,7.6-6.1,11.1-9.6c164-164.3,328-328.6,492-492.9
			c15.7-15.7,16.3-19.2,6.7-39.8c38.9-8.9,77.6-17.8,118.1-27.1C1006.8,545.4,997.8,584.2,988.9,623.3z M257.6,814.7
			c-7.9,5.4-14.8,8.8-20,13.9c-50.8,50.5-101.3,101.2-151.9,152c-2.7,2.7-5.3,5.6-7.4,8.8c-4.6,7.2-4.5,14.6,0,21.8
			c4.8,7.6,12.1,11.7,20.5,9.2c6.3-1.9,12.6-6.1,17.3-10.9c50.3-50,100.3-100.2,150.4-150.5c3-3,7.1-6,7.9-9.6
			c1.4-6.8,2.9-15,0.3-20.7C272.1,823.3,264.4,820.1,257.6,814.7z M429.2,837.1c-5.4-6.2-9.5-13.6-15.7-17.2
			c-8.2-4.8-17.1-1.8-23.9,5.1c-34,34-68.1,68-101.9,102.2c-9.9,10-10,22.3-1.3,31c8.5,8.5,21.1,8.4,31-1.4
			c33.9-33.6,67.7-67.4,101.1-101.5C422.6,851,424.8,844.7,429.2,837.1z M553,1077.6c10.9-0.1,20.9-10.3,20.8-21.1
			c-0.1-11-10.1-20.8-21.1-20.7c-11.3,0.1-20.7,9.7-20.6,21C532.2,1068.1,541.9,1077.7,553,1077.6z M40,1077.7
			c11-0.3,20.7-10.5,20.4-21.4c-0.3-11-10.5-20.7-21.4-20.4c-11,0.3-20.7,10.5-20.4,21.4C18.9,1068.3,29.1,1078,40,1077.7z"/>
		<path d="M833.2,0c20,7.3,38.1,17.1,51.2,34.8c11.1,15,17.2,31.7,18.9,52.8c15-18.1,28.5-34.1,41.7-50.3
			c15.2-18.5,34.1-28.8,58.5-27.5c48.2,2.6,80.3,59.2,52,98.1c-36.8,50.6-73.8,102.2-127.5,137.4c-40.8,26.7-85.5,41.9-134.2,43.8
			c-11.9,0.5-19.8,4.3-28.4,13.4C728,342,689.2,380.1,650.8,418.7c-2.9,3-6.6,5.2-7.6,6c10.5,21.5,22.4,39.7,28.5,59.7
			c16.9,55.2,6.4,106.5-32.7,149.1c-38.5,41.8-79.5,81.3-120.1,121.2c-22.3,21.9-49.6,27.9-78.7,16.4
			c-27.7-10.9-43.4-32.6-46.2-62.6c-2.2-24.4,7.6-44.4,24.6-61.4c33.6-33.5,67-67.1,100.5-100.6c10.6-10.7,10.4-13-1.9-21.7
			c-9.7-6.9-19.4-13.7-29.5-20.8c-2.7,3.8-5,6.8-7.1,10c-32.6,48.3-64.8,96.9-97.9,144.9c-7.2,10.5-16.1,20.6-26.1,28.5
			c-54.6,43-109.6,85.4-164.8,127.7c-38.2,29.3-88.8,18.8-111.7-22.7c-15.5-28.2-9.9-66.5,15.4-87.5c35.9-29.8,73.3-57.8,110.1-86.5
			c16.6-13,33.3-25.7,49.9-38.8c3.5-2.7,6.4-6,9.9-9.4c-16.7-10.5-32.9-19.5-47.9-30.2C130.3,477.3,81.2,391.8,67,285.8
			c-1.7-12.9-3.3-25.8-5.2-38.6c-3-20.2,4.8-29.8,25.5-30.2c69.1-1.4,137-11.1,202.5-33.7c29.7-10.2,58.8-22.7,87.8-35.1
			c64-27.4,130.7-41.5,200.4-41.4c35.8,0,71.6,0.3,107.3,0.6c5.5,0.1,11,1,15.5,1.5c4.1-14.8,5.8-30.3,12.6-43.2
			C729.6,34.2,754.7,11.4,789,0C803.7,0,818.5,0,833.2,0z M288.6,532.3c1.2-1.5,2.2-2.5,3-3.7c33-51,65.9-102,98.8-153
			c1.9-2.9,3.5-6.2,4.1-9.6c4.2-24.2,17-43.3,34.1-60.3c49-48.8,97.8-97.8,146.6-146.8c2.6-2.6,4.9-5.4,7.4-8.1
			c-0.3-1.1-0.7-2.2-1-3.3c-26.7,2.5-53.5,4-80,7.8c-47.5,6.9-91.8,24.5-135.5,43.9c-78.3,34.8-160.4,54.2-246,58.4
			c-4.4,0.2-8.7,1-13,1.4C113,380.7,186.8,486.1,288.6,532.3z M474.3,317.5c-7.2,8.1-12.6,14.6-18.5,20.7
			c-31.2,32.1-27.7,72.1,9,98.2c27.5,19.5,55.5,38.3,82.3,58.7c7.9,6,14.9,15.3,18.4,24.6c7.8,20.8,1.1,39.1-14.4,54.6
			c-34.6,34.5-69,69.1-103.5,103.6c-8.7,8.7-14,18.6-11.3,31.2c2.6,11.9,9.6,20.1,21.4,23.8c13.2,4.1,24.1-0.2,33.5-9.6
			c36.7-36.8,73.6-73.4,110.1-110.4c48.2-48.8,47.7-117.8-0.8-166.3c-39.2-39.2-78.5-78.5-117.6-117.8
			C480.1,325.9,478.1,322.5,474.3,317.5z M402.5,434.9c-0.7,1-2.9,4.1-5,7.3c-29,44.8-58.3,89.3-86.6,134.6
			c-11.6,18.5-25.7,33.6-43,46.8c-46.7,35.4-92.7,71.7-139.1,107.5c-10.5,8.1-16.9,18-14.8,31.6c3.9,25.3,31,35,52.5,18.5
			c55.9-43,111.7-86.1,167.3-129.5c5.1-4,9.3-9.5,13-15c33.3-49.1,66.3-98.3,99.5-147.5c2.1-3.1,3.9-6.3,4.8-7.7
			C434.5,465.4,418.7,450.3,402.5,434.9z M723.3,284.3c-33.2-5.1-62.6-16.8-71.1-53.4c-8.5-36.4,7.6-62,41.8-79.5
			c-4.4-0.9-6.3-1.4-8.2-1.7c-26.2-2.7-48,6-66.5,24.6c-36,36.4-72.3,72.6-108.5,108.8c-2.2,2.2-4.1,4.5-4.6,5.1
			c35.9,36.3,71.2,72.1,106,107.3C648.5,359.1,685.4,322.2,723.3,284.3z M777.1,250c52.3-1.6,105.1-20.2,145.2-53
			c37.6-30.8,64.8-70.8,95.5-107.7c3.8-4.6,4.5-13.2,3.7-19.7c-1-9-7.8-14.8-16.6-16.9c-10.7-2.6-19.2,1.6-26,9.8
			c-18.4,22.1-36.8,44.2-55.1,66.5c-21.8,26.5-48.1,46.9-80.5,59c-38.3,14.4-77.2,15.8-116.6,5c-17.2-4.7-30.1,1.5-33.9,15.5
			c-3.9,14,4.1,26.5,21.5,30.3C735,243.4,756.1,246.4,777.1,250z M863.6,91.5c-0.9-0.4-1.7-0.8-2.6-1.1
			c-0.2-33.4-31.6-57.2-63.8-48.1c-19.5,5.5-31.7,20.6-43.1,35.6c-13.1,17.1-11.3,41.9,2,58.9c13.5,17.3,36,23.4,56.7,16.1
			c16.5-5.8,27.4-18.4,37.2-31.5C856.4,112.8,859.2,101.5,863.6,91.5z"/>
		<path d="M988.9,623.3c9-39.1,17.9-77.9,27.2-118.7c-40.4,9.3-79.2,18.1-118.1,27.1c9.5,20.6,8.9,24.1-6.7,39.8
			c-164,164.3-328,328.6-492,492.9c-3.5,3.5-7,7-11.1,9.6c-8.6,5.6-19.1,4.1-25.9-3c-6.5-6.9-7.5-18.1-1.9-26.2
			c2.6-3.7,5.9-6.9,9.1-10.2C528,875.8,686.6,717,845.2,558.2c2.7-2.7,6.2-4.6,12.4-9.2c-6.9-5.2-11.9-8.1-15.8-12
			c-15-15.4-9.5-33.3,11.9-38.4c44-10.4,88.1-20.3,132.1-30.4c16.7-3.8,33.4-7.8,50.2-11.6c19.8-4.4,32.4,8.1,27.9,28.1
			c-13.8,60.6-27.7,121.1-41.6,181.7c-2.1,9.4-6,17.3-16.1,20.2c-10.2,3-17.7-1.8-24.1-8.9c-3.1-3.4-5.7-7.1-9.2-11.6
			c-4.6,4.4-7.6,7.1-10.5,10c-110.9,111.1-221.8,222.2-332.7,333.3c-3.5,3.5-7,7-11,9.7c-8.6,5.8-18.9,4.7-26-2.4
			c-6.9-6.9-8.1-17.5-2.4-26.1c2.3-3.5,5.2-6.6,8.2-9.6c117.3-117.6,234.7-235.2,352-352.7C965,613.9,970.4,613.1,988.9,623.3z"/>
		<path d="M257.6,814.7c6.8,5.3,14.5,8.6,17.1,14.2c2.6,5.7,1.1,13.9-0.3,20.7c-0.8,3.6-4.9,6.6-7.9,9.6
			c-50.1,50.2-100.1,100.5-150.4,150.5c-4.8,4.7-11,9-17.3,10.9c-8.4,2.5-15.8-1.6-20.5-9.2c-4.5-7.2-4.5-14.7,0-21.8
			c2.1-3.2,4.7-6.1,7.4-8.8c50.5-50.7,101.1-101.5,151.9-152C242.8,823.5,249.7,820.1,257.6,814.7z"/>
		<path d="M429.2,837.1c-4.4,7.7-6.6,13.9-10.8,18.2c-33.5,34.1-67.2,67.9-101.1,101.5c-9.9,9.8-22.5,9.9-31,1.4
			c-8.6-8.7-8.5-21,1.3-31c33.8-34.2,67.9-68.2,101.9-102.2c6.8-6.8,15.8-9.8,23.9-5.1C419.7,823.5,423.8,830.9,429.2,837.1z"/>
		<path d="M553,1077.6c-11.1,0.1-20.8-9.5-20.9-20.8c-0.1-11.4,9.3-20.9,20.6-21c11.1-0.1,21,9.7,21.1,20.7
			C573.9,1067.4,563.9,1077.5,553,1077.6z"/>
		<path d="M40,1077.7c-10.9,0.3-21.1-9.4-21.4-20.4c-0.3-10.9,9.3-21.1,20.4-21.4c10.9-0.3,21.1,9.4,21.4,20.4
			C60.7,1067.2,51,1077.4,40,1077.7z"/>
		<path class="st0" d="M288.6,532.3C186.8,486.1,113,380.7,107.1,259.1c4.3-0.5,8.6-1.2,13-1.4c85.6-4.3,167.7-23.6,246-58.4
			c43.7-19.4,87.9-37,135.5-43.9c26.5-3.8,53.3-5.3,80-7.8c0.3,1.1,0.7,2.2,1,3.3c-2.4,2.7-4.8,5.5-7.4,8.1
			c-48.8,49-97.6,98-146.6,146.8c-17.1,17-29.9,36.1-34.1,60.3c-0.6,3.3-2.2,6.7-4.1,9.6c-32.9,51.1-65.8,102-98.8,153
			C290.8,529.8,289.8,530.8,288.6,532.3z"/>
		<path class="st0" d="M474.3,317.5c3.8,5,5.8,8.4,8.5,11.1c39.2,39.3,78.4,78.6,117.6,117.8c48.6,48.6,49.1,117.5,0.8,166.3
			c-36.5,37-73.4,73.6-110.1,110.4c-9.4,9.4-20.3,13.6-33.5,9.6c-11.8-3.6-18.9-11.9-21.4-23.8c-2.7-12.6,2.6-22.5,11.3-31.2
			c34.6-34.5,69-69.1,103.5-103.6c15.5-15.5,22.2-33.8,14.4-54.6C562,510.3,555,501,547.1,495c-26.8-20.3-54.8-39.1-82.3-58.7
			c-36.7-26.1-40.2-66.1-9-98.2C461.7,332.1,467.1,325.6,474.3,317.5z"/>
		<path class="st0" d="M402.5,434.9c16.1,15.4,31.9,30.5,48.7,46.5c-0.9,1.4-2.8,4.6-4.8,7.7c-33.1,49.2-66.2,98.4-99.5,147.5
			c-3.7,5.4-7.9,11-13,15c-55.6,43.4-111.4,86.5-167.3,129.5c-21.5,16.5-48.6,6.8-52.5-18.5c-2.1-13.6,4.2-23.5,14.8-31.6
			c46.4-35.8,92.3-72.2,139.1-107.5c17.3-13.1,31.4-28.3,43-46.8c28.3-45.2,57.7-89.8,86.6-134.6C399.6,439,401.8,435.9,402.5,434.9
			z"/>
		<path class="st0" d="M723.3,284.3c-37.9,37.9-74.8,74.8-111.2,111.2c-34.7-35.2-70.1-71-106-107.3c0.5-0.5,2.4-2.9,4.6-5.1
			c36.2-36.3,72.5-72.4,108.5-108.8c18.5-18.7,40.3-27.3,66.5-24.6c2,0.2,3.9,0.8,8.2,1.7c-34.2,17.5-50.3,43.1-41.8,79.5
			C660.7,267.4,690.1,279.2,723.3,284.3z"/>
		<path class="st0" d="M777.1,250c-21-3.7-42.1-6.6-62.9-11.2c-17.3-3.8-25.4-16.3-21.5-30.3c3.9-14,16.8-20.2,33.9-15.5
			c39.5,10.8,78.3,9.3,116.6-5c32.4-12.1,58.6-32.5,80.5-59c18.3-22.2,36.7-44.4,55.1-66.5c6.8-8.2,15.3-12.4,26-9.8
			c8.9,2.2,15.6,8,16.6,16.9c0.7,6.4,0,15.1-3.7,19.7c-30.7,36.9-57.9,76.9-95.5,107.7C882.2,229.9,829.4,248.4,777.1,250z"/>
		<path class="st0" d="M863.6,91.5c-4.4,10-7.2,21.3-13.6,29.8c-9.8,13.1-20.7,25.7-37.2,31.5c-20.7,7.3-43.1,1.2-56.7-16.1
			c-13.3-17-15.1-41.8-2-58.9c11.4-15,23.6-30,43.1-35.6c32.1-9.1,63.6,14.8,63.8,48.1C861.9,90.7,862.8,91.1,863.6,91.5z"/>
	</g>
</g>
</svg>
