<?xml version="1.0" encoding="utf-8"?>
<!-- Generator: Adobe Illustrator 25.0.0, SVG Export Plug-In . SVG Version: 6.00 Build 0)  -->
<svg version="1.1" id="Capa_1" xmlns="http://www.w3.org/2000/svg" xmlns:xlink="http://www.w3.org/1999/xlink" x="0px" y="0px"
	 viewBox="0 0 1080 1080" style="enable-background:new 0 0 1080 1080;" xml:space="preserve">
<style type="text/css">
	.st0{fill:#FFFFFF;}
</style>
<g>
	<g>
		<path class="st0" d="M1079.8,772c0,102.7,0,205.3,0,308c-360,0-720,0-1080,0c0-360,0-720,0-1080c360,0,720,0,1080,0
			c0,253.1,0,506.2,0,759.4c-19.5-20.1-38.7-40.5-58.6-60.1c-7.8-7.6-18-7.3-26-1.4c-11.1,8.1-11.5,22.4-0.5,33.8
			c14.2,14.6,28.8,28.8,43.3,43.1C1054.8,791.4,1065.8,790.7,1079.8,772z M836.9,190.4c0.3-2.3,0.6-4.7,1-7c6-31-2.5-57.3-26.6-77.6
			c-24-20.2-51.5-24.3-80.7-12.7c-6.4,2.5-9.9,1.5-14.4-3c-25-24.7-55.1-39.1-90.2-39.8c-56.5-1.1-113-0.8-169.4-0.7
			c-17,0-25,8.5-24.8,25.8c0.3,17.7,1.7,35.4,2.6,53.7c-30.1-9.5-58.1-4.9-81.7,17c-24.1,22.4-29.1,50.9-21.8,82.6
			c-23.6,5.4-41.8,17.6-53.9,38c-12.1,20.4-13.7,42.2-7.6,65.2c-25.6,5.7-44.5,19.3-56.3,41.6c-12,22.7-11.7,46.3-2.3,69.8
			c-64.4,19.4-82.4,96-30.4,141.8c12,10.6,23.2,22.2,36.6,35.2c-4.6,3.4-8,5.4-10.7,8.1C142.3,692,78.6,755.9,14.9,819.9
			c-3.5,3.5-6.9,7.1-9.6,11.1c-5.3,8.3-3.9,18.2,2.9,25.1c6.8,6.9,16.8,8.4,25,3.2c4.1-2.6,7.7-6.1,11.1-9.6
			c65-65.1,130.1-130.2,194.9-195.4c5-5,8.6-6.4,15.9-3.3c49.4,21.3,105.3-12.8,108.8-66.5c0.7-10,6.1-9.9,12.9-10.7
			c26.7-2.8,47.3-16,59.6-39.5c6.7-12.7,9.3-27.4,13.9-41.6c42.8-1.9,77-30.9,80.7-82.9c32.5-1.2,58.1-15,72.8-44.9
			c14.7-29.9,9.8-58.5-10.2-86.7c3.2-2.4,6.4-4.3,8.8-6.7c42-41.9,83.9-84,125.8-126c2.7-2.7,5.4-5.5,8.4-8
			c20.9-17.3,51.5-7.9,59.2,18.1c4.6,15.5-0.6,28.2-11.6,39.2c-29.3,29.3-58.6,58.6-87.8,88c-3.2,3.2-6.4,6.6-8.5,10.6
			c-4.2,7.8-3.3,15.8,2.4,22.6c5.3,6.4,12.6,9.6,20.6,6.6c5.3-2,10.5-5.5,14.6-9.6c22.8-22.4,45.3-45.1,67.8-67.7
			c9.7-9.8,21.1-15.3,35-12.7c14.2,2.7,24.3,10.9,28.8,24.8c4.7,14.6,1.4,27.8-9.4,38.8c-22.7,22.9-45.6,45.7-68.4,68.7
			c-3.2,3.2-6.5,6.6-8.7,10.5c-5,8.6-3.5,17,3,24.3c6.3,7,16.8,8.6,25,3.7c3.6-2.1,6.7-5.1,9.7-8c16-15.8,31.8-31.8,47.7-47.7
			c9.8-9.7,21.4-14.8,35.3-11.8c29.1,6.2,39.7,40.4,19,62.6c-16.5,17.7-34.2,34.3-51.2,51.6c-11.1,11.3-11.9,23.4-2.7,32.6
			c9.1,9.1,21.2,8.2,32.5-2.8c8.6-8.3,16.7-17.1,25.6-25c11.6-10.2,27.9-11.4,41.3-4.2c13.5,7.3,22.1,21.7,18.4,36.9
			c-2.3,9.6-7.9,19.7-14.9,26.7C895.6,579.9,830.8,644.2,766.5,709c-52.5,52.9-115.1,84-189.9,88.7c-11.5,0.7-20.4,5.1-28.6,13.3
			c-58.7,59.5-117.8,118.7-176.6,178c-3.2,3.2-6.4,6.6-8.7,10.5c-5,8.3-3.4,18.6,3.8,25c7.3,6.5,15.7,7.6,24.3,2.8
			c3.9-2.2,7.2-5.5,10.4-8.7c42.2-42.3,84.4-84.5,126.3-127c4.9-5,8.3-6.3,15-2.4c31.2,18.4,65.1,27.3,101.4,26.2
			c6.9-0.2,11.7,1.9,16.5,6.8c31.8,32.3,63.9,64.3,95.9,96.3c3.2,3.2,6.6,6.4,10.4,8.7c7.9,4.9,19,3.3,25-3.5
			c6.4-7.2,8.2-15.6,3.1-24.3c-2.3-3.9-5.5-7.3-8.7-10.5c-30.9-31.1-62.8-61.4-92.6-93.6c-15.6-16.8-31.8-24.5-55.1-22.6
			c-25.5,2.1-49.7-6.1-72.6-18.9c6.8-7.4,12.2-13.8,23.4-14.8c71.7-6.7,135.9-32.9,188-82.8c73.7-70.8,145.6-143.5,217.2-216.3
			c31.2-31.7,31.8-77.5,2.2-109.2c-10.3-11.1-25-18.1-38.4-27.5c12.1-60.1-1.9-87-58.7-109.2C902.2,230.2,891.2,211.9,836.9,190.4z
			 M934.3,662.1c-0.1,11.4,9.2,21,20.5,21.1c11,0.1,20.9-9.8,21-20.9c0.1-11.1-9.6-21-20.7-21.1
			C943.9,641.2,934.4,650.7,934.3,662.1z"/>
		<path d="M1079.8,772c-14,18.6-25,19.4-41.8,2.7c-14.5-14.3-29.1-28.5-43.3-43.1c-11-11.3-10.6-25.7,0.5-33.8
			c8-5.9,18.3-6.2,26,1.4c19.9,19.6,39.1,40,58.6,60.1C1079.8,763.6,1079.8,767.8,1079.8,772z"/>
		<path d="M836.9,190.4c54.4,21.5,65.4,39.8,62.4,103.5c56.8,22.2,70.8,49,58.7,109.2c13.4,9.4,28.1,16.4,38.4,27.5
			c29.6,31.8,29.1,77.5-2.2,109.2C922.6,612.6,850.7,685.3,777,756.1c-52,50-116.3,76.1-188,82.8c-11.1,1-16.5,7.4-23.4,14.8
			c23,12.9,47.1,21.1,72.6,18.9c23.3-1.9,39.5,5.8,55.1,22.6c29.8,32.2,61.7,62.5,92.6,93.6c3.2,3.2,6.5,6.6,8.7,10.5
			c5.1,8.7,3.3,17-3.1,24.3c-6.1,6.8-17.1,8.4-25,3.5c-3.8-2.4-7.2-5.5-10.4-8.7c-32.1-32-64.1-64-95.9-96.3
			c-4.8-4.9-9.6-7-16.5-6.8c-36.3,1.1-70.2-7.8-101.4-26.2c-6.7-3.9-10-2.6-15,2.4c-41.9,42.5-84.1,84.8-126.3,127
			c-3.2,3.2-6.5,6.6-10.4,8.7c-8.5,4.7-17,3.7-24.3-2.8c-7.2-6.4-8.8-16.7-3.8-25c2.3-3.9,5.5-7.3,8.7-10.5
			c58.9-59.3,117.9-118.5,176.6-178c8.2-8.3,17.1-12.6,28.6-13.3c74.8-4.7,137.4-35.8,189.9-88.7c64.4-64.8,129.2-129.1,193.2-194.2
			c7-7.1,12.6-17.1,14.9-26.7c3.7-15.2-4.9-29.5-18.4-36.9c-13.4-7.3-29.6-6-41.3,4.2c-9,7.8-17,16.7-25.6,25
			c-11.4,10.9-23.4,11.9-32.5,2.8c-9.2-9.2-8.3-21.3,2.7-32.6c17-17.3,34.7-33.9,51.2-51.6c20.7-22.2,10.1-56.4-19-62.6
			c-13.9-3-25.5,2-35.3,11.8c-15.9,15.9-31.7,31.8-47.7,47.7c-3,2.9-6.1,5.9-9.7,8c-8.2,4.9-18.7,3.3-25-3.7
			c-6.5-7.3-7.9-15.7-3-24.3c2.2-3.9,5.5-7.3,8.7-10.5c22.8-22.9,45.7-45.7,68.4-68.7c10.9-11,14.1-24.2,9.4-38.8
			c-4.4-13.9-14.6-22.2-28.8-24.8c-14-2.6-25.3,2.9-35,12.7c-22.5,22.7-45,45.4-67.8,67.7c-4.1,4-9.3,7.6-14.6,9.6
			c-8,3-15.2-0.2-20.6-6.6c-5.7-6.8-6.6-14.8-2.4-22.6c2.1-3.9,5.4-7.4,8.5-10.6c29.2-29.4,58.5-58.7,87.8-88
			c11-11,16.2-23.7,11.6-39.2c-7.7-26.1-38.3-35.4-59.2-18.1c-3,2.4-5.7,5.2-8.4,8c-41.9,42-83.9,84-125.8,126
			c-2.5,2.5-5.6,4.3-8.8,6.7c20,28.2,24.9,56.8,10.2,86.7c-14.7,29.8-40.3,43.6-72.8,44.9c-3.7,51.9-37.9,81-80.7,82.9
			c-4.6,14.2-7.3,28.9-13.9,41.6c-12.3,23.5-33,36.7-59.6,39.5c-6.8,0.7-12.2,0.6-12.9,10.7c-3.5,53.7-59.4,87.8-108.8,66.5
			c-7.3-3.1-10.9-1.8-15.9,3.3c-64.9,65.3-129.9,130.4-194.9,195.4c-3.5,3.5-7.1,7-11.1,9.6c-8.2,5.2-18.2,3.6-25-3.2
			C1.4,849.2,0,839.3,5.3,831c2.6-4.1,6.1-7.7,9.6-11.1C78.6,755.9,142.3,692,206.2,628.2c2.7-2.7,6.2-4.7,10.7-8.1
			c-13.4-12.9-24.5-24.6-36.6-35.2c-52-45.8-34-122.4,30.4-141.8c-9.4-23.5-9.7-47.1,2.3-69.8c11.8-22.4,30.8-35.9,56.3-41.6
			c-6.1-23-4.5-44.8,7.6-65.2c12.1-20.4,30.3-32.6,53.9-38c-7.3-31.7-2.3-60.2,21.8-82.6c23.6-21.9,51.6-26.5,81.7-17
			c-0.9-18.3-2.4-36-2.6-53.7c-0.3-17.3,7.7-25.7,24.8-25.8c56.5-0.1,113-0.4,169.4,0.7c35.1,0.7,65.2,15.1,90.2,39.8
			c4.6,4.5,8,5.6,14.4,3c29.2-11.6,56.7-7.5,80.7,12.7c24,20.2,32.6,46.6,26.6,77.6C837.4,185.7,837.2,188.1,836.9,190.4z
			 M531.1,369.9c0.5-0.9,1-1.7,1.5-2.6c15,0.2,28.3-8.2,34.4-21.6c6.6-14.4,3.9-30.1-8.5-42.5c-41.5-41.9-83.1-83.6-124.9-125.1
			c-15.6-15.4-38-15.4-52.8-0.9c-14.9,14.6-15.1,37.8,0.6,53.7c41.1,41.7,82.4,83.3,124.3,124.2
			C512.5,361.8,522.6,365.1,531.1,369.9z M474.6,91.6c-3.1,33.3,20.4,59.4,53.1,60.1c19.3,0.4,38.6-0.3,57.9,0.1
			c11.5,0.3,19.6,8.2,20.5,18.8c1,11.2-5.8,20.1-17.6,22.5c-3.4,0.7-7,0.7-10.5,0.7c-22.6,0.1-45.1,0-65,0
			c16.7,16.8,35.1,35.2,51.7,51.8c40.6-40.7,82.1-82.2,123.9-124.1c-16.7-16.8-37.9-28.3-63-29.1c-38.6-1.2-77.2-0.7-115.7-0.9
			C498.4,91.6,486.8,91.6,474.6,91.6z M350.7,269.5c-21.2,0.8-32.9,7.9-39.6,22.4c-6.7,14.5-3.7,29.9,8.7,42.5
			c34.3,34.7,68.8,69.3,103.4,103.6c15.9,15.7,39,15.9,53.7,1.1c14.9-15,14.8-37.6-1.2-53.8C441.6,350.7,407.2,316,372.2,282
			C365.4,275.4,355.3,272.1,350.7,269.5z M288.8,372.9c-21.5,0.7-33.3,8-39.6,22.5c-6.8,15.4-3.5,29.8,8.2,41.6
			c27.8,28.2,55.7,56.4,84,84.1c15.7,15.4,38.2,15.3,52.9,0.9c15-14.7,15.1-37.6-0.6-53.7c-27.5-28.1-55.1-56.1-83.4-83.2
			C303.4,378.5,293.3,375.3,288.8,372.9z M324.6,577c-3.2-7.2-4.7-16-9.8-21.4c-20.4-21.7-41.2-43.1-63.1-63.3
			c-13.7-12.7-35.4-10.7-48.8,2.3c-13.1,12.8-16.2,34.2-3.9,47.8c20.6,22.9,42.6,44.6,65.2,65.5c10.9,10.1,25.2,10.1,38.5,3.2
			C316,604.2,322.6,592.8,324.6,577z"/>
		<path d="M934.3,662.1c0.1-11.4,9.6-20.9,20.8-20.8c11.1,0.1,20.8,10,20.7,21.1c-0.1,11.1-10.1,20.9-21,20.9
			C943.5,683.2,934.2,673.5,934.3,662.1z"/>
		<path class="st0" d="M531.1,369.9c-8.6-4.8-18.6-8.1-25.4-14.8c-41.9-41-83.1-82.5-124.3-124.2c-15.7-15.9-15.5-39.2-0.6-53.7
			c14.8-14.5,37.2-14.5,52.8,0.9c41.9,41.5,83.4,83.2,124.9,125.1c12.3,12.4,15,28.1,8.5,42.5c-6.1,13.5-19.4,21.8-34.4,21.6
			C532.1,368.2,531.6,369.1,531.1,369.9z"/>
		<path class="st0" d="M474.6,91.6c12.2,0,23.7,0,35.3,0c38.6,0.2,77.2-0.4,115.7,0.9c25.1,0.8,46.3,12.3,63,29.1
			c-41.8,41.8-83.3,83.4-123.9,124.1c-16.6-16.6-35-35-51.7-51.8c19.8,0,42.4,0,65,0c3.5,0,7.1,0,10.5-0.7
			c11.8-2.4,18.6-11.3,17.6-22.5c-0.9-10.6-9-18.5-20.5-18.8c-19.3-0.4-38.6,0.3-57.9-0.1C495,151,471.6,124.9,474.6,91.6z"/>
		<path class="st0" d="M350.7,269.5c4.6,2.6,14.7,5.9,21.5,12.5c35,34,69.4,68.7,103.6,103.4c16,16.2,16.1,38.8,1.2,53.8
			c-14.7,14.7-37.8,14.6-53.7-1.1c-34.7-34.3-69.1-68.9-103.4-103.6c-12.5-12.6-15.4-27.9-8.7-42.5
			C317.8,277.4,329.5,270.4,350.7,269.5z"/>
		<path class="st0" d="M288.8,372.9c4.4,2.5,14.5,5.7,21.4,12.3c28.4,27.2,56,55.1,83.4,83.2c15.8,16.1,15.7,39,0.6,53.7
			c-14.7,14.4-37.2,14.4-52.9-0.9c-28.3-27.7-56.2-55.9-84-84.1c-11.7-11.9-14.9-26.2-8.2-41.6C255.6,380.9,267.4,373.6,288.8,372.9
			z"/>
		<path class="st0" d="M324.6,577c-2,15.7-8.6,27.2-21.8,34.1c-13.3,6.9-27.6,6.9-38.5-3.2c-22.6-20.9-44.6-42.7-65.2-65.5
			c-12.3-13.6-9.2-35,3.9-47.8c13.3-13,35-15.1,48.8-2.3c21.8,20.3,42.7,41.6,63.1,63.3C319.9,561,321.5,569.8,324.6,577z"/>
	</g>
</g>
</svg>
