<?xml version="1.0" encoding="utf-8"?>
<!-- Generator: Adobe Illustrator 25.0.0, SVG Export Plug-In . SVG Version: 6.00 Build 0)  -->
<svg version="1.1" id="Capa_1" xmlns="http://www.w3.org/2000/svg" xmlns:xlink="http://www.w3.org/1999/xlink" x="0px" y="0px"
	 viewBox="0 0 1080 1080" style="enable-background:new 0 0 1080 1080;" xml:space="preserve">
<style type="text/css">
	.st0{fill:#FFFFFF;}
</style>
<g>
	<g>
		<path class="st0" d="M573.8,0c100.5,0,201.1,0,301.6,0c-8,6.1-16.7,11.4-23.8,18.4C815.5,53.9,780.1,90,744,125.5
			c-9.6,9.4-14.6,20-15.9,33.2c-4.7,50.4-10.1,100.6-14.7,151c-0.7,7.7-3.5,12.9-8.7,18.1C650.1,382.1,595.8,436.6,541.3,491
			c-8.7,8.7-17.6,17.2-26,26.2c-8.8,9.5-11.3,20.8-7.3,33.3c4.1,12.4,12.9,20.1,25.5,22.6c13.2,2.7,23.8-2.6,33.1-11.9
			c62-62.2,124.1-124.3,186.4-186.3c3.5-3.4,8.4-7,13-7.4c51-5.5,102-10.5,153.1-15.2c14.3-1.3,25.9-6.3,36.1-16.8
			c34.9-35.7,70.6-70.6,105.6-106.1c7.2-7.3,12.8-16.3,19.1-24.6c0,100.5,0,201.1,0,301.6c-0.7-4.5-1.3-9-2.1-13.4
			c-6.6-35.1-12.6-70.4-20-105.4c-3.2-15.1-16-24.1-30.4-24.9c-25-1.2-40.8,20.6-33.3,46.9c18.6,65.2,23.7,131.4,13.4,198.2
			C988,734.7,927.3,838.4,825,916.1c-104.7,79.5-223.4,109.4-353.4,91.2c-92.8-13-175.5-50.7-244.5-114.2
			C95.3,771.6,44.1,621.2,77.8,445c23.8-124.3,91.7-222.1,195.3-294.5c65.8-46,139.3-72.3,219-80.6c61.1-6.4,121.3-0.5,180.5,16.4
			c20,5.7,38.2-3.9,43.6-22.3c5.6-18.7-5.1-37.2-25.7-42.6c-19-5-38.1-9.5-57.5-13C613.4,4.8,593.5,2.7,573.8,0z M540.5,166
			c-25.7,3.2-51.9,4.6-77.2,9.9C237.7,223.1,109.4,462.5,194,677.1c66.1,167.6,245.9,264.6,421.8,227.5
			c173.2-36.5,297-189.4,296.4-366.1c-0.1-33.2-4.2-65.9-13.5-97.8c-4.3-14.8-17.4-24.1-32.3-24c-15.1,0.1-28.8,9.4-31.8,24.2
			c-1.7,8.2-0.5,17.5,1.4,25.8c10.7,44.5,12,89.2,2.6,133.8C804.4,764,651,867.9,486,839.8c-185.7-31.6-298.9-230.9-231.2-407.1
			C310.9,286.7,463.1,207.3,615,244.4c7.9,1.9,16.9,2.6,24.7,0.8c14.6-3.4,23.4-16.6,23.6-31.2c0.1-15.5-9-28.1-24.7-32.8
			C606.6,171.8,573.9,167.9,540.5,166z M544.8,405.7c5.3,0,10.5,0.2,15.8,0c16.1-0.9,28.9-12.7,31.5-29c2.4-14.8-7.1-30.9-21.7-35.9
			c-5.2-1.8-11-2.5-16.5-2.9c-129.1-9.5-236,107-213.4,234.6C354.8,654,403,709.7,482.3,733.4c80.3,24,150.9,2.7,208.1-58.5
			c35-37.4,51.6-83.1,52-134.4c0.1-17.8-12.8-32.1-29.7-34.1c-17-2-33,9.2-36.8,26.3c-1,4.4-0.8,9.1-1,13.6
			c-3.1,82.5-83.6,144.1-164,125.4c-67.5-15.7-113.9-80.1-105.2-146.2C415.1,453.7,473.2,403.5,544.8,405.7z"/>
		<path d="M573.8,0c19.8,2.7,39.7,4.8,59.3,8.4c19.3,3.5,38.5,8,57.5,13c20.6,5.4,31.3,23.9,25.7,42.6c-5.4,18.4-23.6,28-43.6,22.3
			c-59.1-16.9-119.3-22.7-180.5-16.4c-79.8,8.3-153.3,34.7-219,80.6C169.5,222.9,101.5,320.7,77.8,445
			C44.1,621.2,95.3,771.6,227.1,893.1c69,63.6,151.7,101.2,244.5,114.2c130,18.2,248.8-11.7,353.4-91.2
			c102.3-77.7,163-181.4,182.5-308.4c10.3-66.9,5.2-133.1-13.4-198.2c-7.5-26.3,8.3-48.1,33.3-46.9c14.4,0.7,27.2,9.7,30.4,24.9
			c7.4,35,13.4,70.2,20,105.4c0.8,4.4,1.4,8.9,2.1,13.4c0,22.5,0,45,0,67.5c-0.6,2.7-1.4,5.4-1.8,8.2c-3.7,25-6,50.2-11.1,74.9
			c-43.5,209.5-222.3,380.7-433.1,414.8c-20,3.2-40.2,5.6-60.3,8.3c-22.5,0-45,0-67.5,0c-2.4-0.6-4.7-1.3-7.1-1.7
			c-24.6-3.6-49.5-6-73.9-10.9c-209.4-41.9-382.8-222-416.9-432.3c-3.3-20.4-5.6-40.9-8.4-61.4c0-22.5,0-45,0-67.5
			c3.4-23.9,6-48,10.5-71.7C50.8,219.3,230.2,43.8,445.9,8.3c20-3.3,40.2-5.6,60.4-8.3C528.8,0,551.2,0,573.8,0z"/>
		<path d="M1080,204.6c-6.3,8.2-11.9,17.2-19.1,24.6c-35,35.6-70.7,70.4-105.6,106.1c-10.3,10.5-21.8,15.5-36.1,16.8
			c-51.1,4.7-102.1,9.8-153.1,15.2c-4.6,0.5-9.5,4-13,7.4c-62.3,62-124.4,124.1-186.4,186.3c-9.3,9.4-19.9,14.6-33.1,11.9
			c-12.6-2.6-21.4-10.2-25.5-22.6c-4.1-12.4-1.5-23.8,7.3-33.3c8.3-9,17.3-17.5,26-26.2c54.4-54.4,108.8-108.9,163.3-163.2
			c5.2-5.2,8.1-10.4,8.7-18.1c4.6-50.4,10-100.7,14.7-151c1.2-13.3,6.3-23.8,15.9-33.2C780.1,90,815.5,53.9,851.6,18.4
			c7.1-7,15.8-12.3,23.8-18.4c5.6,0,11.2,0,16.9,0c18.1,7.9,25.1,21.8,26,41.4c1.6,34.7,5.3,69.2,7.8,103.8c0.4,6.2,2.6,8.3,8.8,8.8
			c34.6,2.5,69.2,6.2,103.8,7.8c19.6,0.9,33.4,8,41.4,26C1080,193.4,1080,199,1080,204.6z M855.8,111.4c-1.8,0.8-2.9,1-3.6,1.7
			c-17.9,17.8-35.9,35.6-53.6,53.7c-2.4,2.4-3.6,6.7-4,10.3c-2.9,26.2-5.4,52.4-8,78.5c-1.4,13.8-2.7,27.5-4.2,42.1
			c33-3.3,64.3-8,95.8-8.9c24.2-0.7,41.7-10,56.4-28.2c7.5-9.2,16.7-17,25.2-25.5c3.1-3.1,6-6.3,10.3-10.7
			c-4.9-0.4-7.7-0.6-10.4-0.9c-22.7-1.9-45.5-3.3-68.2-5.9c-16.9-1.9-26.9-12.6-29.4-29.5c-0.8-5.5-1.1-11.2-1.6-16.8
			C859,151.6,857.4,131.8,855.8,111.4z"/>
		<path class="st0" d="M0,573.8c2.8,20.5,5.1,41,8.4,61.4c34,210.3,207.5,390.4,416.9,432.3c24.4,4.9,49.3,7.3,73.9,10.9
			c2.4,0.3,4.7,1.1,7.1,1.7c-168.8,0-337.5,0-506.2,0C0,911.2,0,742.5,0,573.8z"/>
		<path class="st0" d="M573.8,1080c20.1-2.8,40.3-5.1,60.3-8.3c210.7-34.2,389.6-205.3,433.1-414.8c5.1-24.7,7.4-49.9,11.1-74.9
			c0.4-2.7,1.2-5.4,1.8-8.2c0,168.8,0,337.5,0,506.2C911.2,1080,742.5,1080,573.8,1080z"/>
		<path class="st0" d="M506.2,0c-20.1,2.7-40.3,5-60.4,8.3C230.2,43.8,50.8,219.3,10.5,434.5C6,458.2,3.4,482.3,0,506.2
			C0,337.7,0,169.1,0,0C168.7,0,337.5,0,506.2,0z"/>
		<path class="st0" d="M1080,187.7c-7.9-18-21.8-25.1-41.4-26c-34.7-1.6-69.2-5.3-103.8-7.8c-6.2-0.4-8.3-2.6-8.8-8.8
			c-2.5-34.6-6.2-69.2-7.8-103.8c-0.9-19.5-7.9-33.5-26-41.4c62.6,0,125.2,0,187.7,0C1080,62.6,1080,125.2,1080,187.7z"/>
		<path d="M540.5,166c33.4,2,66.1,5.8,98,15.2c15.7,4.6,24.9,17.3,24.7,32.8c-0.1,14.6-9,27.8-23.6,31.2c-7.8,1.8-16.8,1.1-24.7-0.8
			c-151.8-37.1-304,42.4-360.1,188.3C187.1,608.9,300.3,808.2,486,839.8C651,867.9,804.4,764,838.6,600.6
			c9.3-44.6,8.1-89.3-2.6-133.8c-2-8.3-3.1-17.6-1.4-25.8c3-14.8,16.8-24.2,31.8-24.2c14.9-0.1,27.9,9.1,32.3,24
			c9.3,31.9,13.4,64.6,13.5,97.8c0.6,176.7-123.2,329.6-296.4,366.1C439.9,941.7,260.1,844.7,194,677.1
			c-84.6-214.6,43.7-453.9,269.3-501.2C488.6,170.6,514.7,169.2,540.5,166z"/>
		<path d="M544.8,405.7c-71.6-2.3-129.7,48-139.1,119.8c-8.7,66.1,37.7,130.5,105.2,146.2c80.4,18.7,160.9-42.9,164-125.4
			c0.2-4.6,0-9.2,1-13.6c3.8-17.1,19.8-28.3,36.8-26.3c16.9,2,29.9,16.3,29.7,34.1c-0.4,51.3-17,97-52,134.4
			c-57.2,61.1-127.8,82.5-208.1,58.5C403,709.7,354.8,654,340.4,572.6c-22.6-127.6,84.3-244.2,213.4-234.6
			c5.6,0.4,11.3,1.1,16.5,2.9c14.6,5,24.1,21.1,21.7,35.9c-2.6,16.3-15.4,28.1-31.5,29C555.3,406,550,405.7,544.8,405.7z"/>
		<path class="st0" d="M855.8,111.4c1.6,20.4,3.2,40.2,4.8,60c0.5,5.6,0.8,11.2,1.6,16.8c2.5,16.9,12.5,27.6,29.4,29.5
			c22.7,2.5,45.4,4,68.2,5.9c2.7,0.2,5.4,0.5,10.4,0.9c-4.2,4.4-7.2,7.6-10.3,10.7c-8.4,8.5-17.7,16.2-25.2,25.5
			c-14.7,18.1-32.2,27.5-56.4,28.2c-31.5,0.9-62.8,5.7-95.8,8.9c1.4-14.5,2.8-28.3,4.2-42.1c2.6-26.2,5.1-52.4,8-78.5
			c0.4-3.6,1.6-7.8,4-10.3c17.6-18.1,35.6-35.9,53.6-53.7C852.9,112.4,854,112.2,855.8,111.4z"/>
	</g>
</g>
</svg>
