<?xml version="1.0" encoding="utf-8"?>
<!-- Generator: Adobe Illustrator 25.0.0, SVG Export Plug-In . SVG Version: 6.00 Build 0)  -->
<svg version="1.1" id="Capa_1" xmlns="http://www.w3.org/2000/svg" xmlns:xlink="http://www.w3.org/1999/xlink" x="0px" y="0px"
	 viewBox="0 0 1080 1080" style="enable-background:new 0 0 1080 1080;" xml:space="preserve">
<style type="text/css">
	.st0{fill:#FFFFFF;}
</style>
<path d="M1079.5,668.7c-7.6,18.7-13.7,38.3-23.1,56c-20.1,37.8-50.8,65.1-89.7,82.6c-8.8,4-11.5,8.6-11.3,18
	c0.6,28.8,0.7,57.7,0,86.5c-1.4,57.5-49.4,106.5-106.6,107c-109.8,0.9-251.3,0.5-361.1,0.5c-11.4,0-11.5-31.4,0-31.6
	c15.1-0.3,61.8-0.2,76.9-0.2c91.2,0,182.4,0.1,273.7,0c52.2-0.1,85.5-33.5,85.7-85.6c0.1-26,0-51.9,0-79.6
	c-75.8,12.3-140.9-7.9-190.7-66c-49.6-57.8-60.5-124.8-36.8-198.4c-3.9-0.2-7.2-0.6-10.4-0.6c-28.8,0-57.5-0.4-86.3,0.1
	c-17.9,0.3-30.5-6.6-40.3-21.6c-40.6-62.3-120.7-62.5-161.1-0.4c-10,15.4-22.9,22.2-41.2,22c-53.7-0.5-107.4-0.1-161-0.2
	c-57.6-0.1-91.6-50.2-70.5-103.8c48.4-122.6,136.1-203.4,263.7-234.1c141.1-33.9,264.1,5,365.6,109.3c27.9,28.6,49.4,62,65.8,98.5
	c2.7,6.1,5.5,8.1,12.7,6.2c29.5-8.1,59.4-9,90.6-2.7c0-4.4,0-7.9,0-11.3c0-79.1,0-158.2,0-237.3c0-53.4-33.5-86.9-86.8-86.9
	c-238.9,0-477.9,0-716.8,0c-53.2,0-87,33.7-87,86.8c0,239.7,0,479.5,0,719.2c0,52.7,33.6,86.3,86.3,86.3
	c104.6,0.1,269.1,0.1,373.7,0.2c4.9,0,11-0.7,14.2,1.8c4.7,3.6,5.4,28.1-2.6,29.5c-3.4,0.6-7,0.4-10.5,0.4
	c-104.9,0-269.8,0-374.7-0.1c-70.8,0-118.1-47.5-118.1-118.5c0-240.4,0-480.9,0-721.3c0-55.9,33.8-100.2,86.2-112.7
	c9.8-2.3,20.1-3.2,30.2-3.2c240.7-0.2,481.4-0.2,722-0.1c67.2,0,115.3,48.1,115.5,115.7c0.2,83.7,0.1,167.3-0.1,251
	c0,6.2,1,10.1,7.5,13c58.6,26.3,96.4,70.8,113.6,132.8c0.6,2.2,1.9,4.2,2.9,6.4c0,4.2,0,8.4,0,12.7c-5.3,5.6-10.3,11.5-19.3,9.3
	c-9.1-2.2-11.5-9.4-13.3-17.1c-0.3-1-0.5-2-0.8-3.1c-17.8-70.8-81.4-122.7-154.6-125.9c-110.2-4.8-195,96.8-171,204.7
	c19.4,87,103.8,144.6,191.3,128.5c70.4-13,115.1-55.7,134.6-124.8c2.3-8.2,4.3-16.7,14.4-18.8c9-1.8,14.2,3.9,18.8,10.4
	C1079.5,661.6,1079.5,665.2,1079.5,668.7z M792.6,444.2c0.6,0.7,1.2,1.4,1.8,2.1c0-0.3,0.1-0.7-0.1-1
	c-61.7-139.7-212.4-228-369.1-201.4c-130.9,22.2-221.3,97.9-270.4,221.9c-12.7,32.1,6.2,59.3,40.8,59.4c32.3,0.1,64.5-0.3,96.8,0.3
	c8.6,0.2,11.7-3.1,15.1-10.5c28.8-63.7,78-101.1,146.9-112.4c24.9-4.1,49.5-1.3,74.3,4.7c1.6-3.7,3-6.8,4.3-10
	c11.7-30.1,23.4-60.1,35.1-90.2c1.1-2.9,2.3-5.9,3.9-8.6c4.6-8,11.9-10,19.8-6.7c7.5,3.2,10.9,9.7,8.7,18.1c-1.1,4.1-2.7,8-4.2,11.9
	c-12.4,32-24.8,64-37.2,96.1c1.7,1.2,2.7,2.2,3.9,2.8c42.2,21.8,72.4,54.5,90.8,98.5c1.2,2.8,5.9,5.7,9.1,5.8
	c14,0.6,28.1,0.7,42.1,0c3.7-0.2,7.9-3.2,10.5-6.2c6.7-7.6,11.5-17,18.9-23.8C753.2,477.5,773.1,461.1,792.6,444.2z M338.5,524.6
	c25.9,2.5,25.4,2.1,40.2-17c24.2-31.5,56.4-48.6,96.3-49.7c11.1-0.3,22.2,1.2,33.7,1.9c2.8-7.3,5.5-14.4,8.2-21.6
	C450.2,416.8,361.5,459.6,338.5,524.6z M537.9,472.2c21.4,12.2,37.8,28.2,49.9,48.6c1.2,2.1,4.3,4.2,6.6,4.3
	c8.5,0.5,17.1,0.2,27.1,0.2c-16.5-35.2-40.6-59.9-74.3-76.7C544,456.8,541.2,464,537.9,472.2z"/>
<path class="st0" d="M1079.5,658.1c-4.6-6.4-9.8-12.2-18.8-10.4c-10.1,2-12,10.5-14.4,18.8c-19.5,69-64.2,111.8-134.6,124.8
	c-87.5,16.1-172-41.5-191.3-128.5c-24-108,60.8-209.5,171-204.7c73.2,3.2,136.8,55,154.6,125.9c0.3,1,0.6,2,0.8,3.1
	c1.9,7.7,4.3,14.9,13.3,17.1c9.1,2.2,14.1-3.7,19.3-9.3C1079.5,615.9,1079.5,637,1079.5,658.1z M868.1,636.7
	c-13.6,0-25.8,0.2-37.9-0.1c-9-0.2-16.7,2-21.4,10.4c-4.9,8.8-2.5,16.8,3,24.5c17.9,25.1,35.6,50.5,53.6,75.5
	c10.9,15.2,26.1,15.2,37-0.1c17.8-24.8,35.3-49.8,53-74.7c5.4-7.6,8.5-15.4,4-24.5c-4.8-9.6-13.2-11.5-23-11.3
	c-11.8,0.3-23.6,0.1-36.6,0.1c0-5.1,0-8.9,0-12.7c0-35.1,0-70.3-0.1-105.4c0-4.5,0.8-10.2-1.5-13.3c-3.6-4.8-9.2-9.9-14.7-10.9
	c-7.3-1.3-13.2,4-14.7,12c-0.8,4.1-0.8,8.4-0.8,12.6c-0.1,35.1,0,70.3,0,105.4C868.1,628.1,868.1,631.9,868.1,636.7z"/>
<path d="M530.7,578.7c0.1,28.4-23,51.9-51.3,51.8c-28.3,0-51.4-23.4-51.2-51.9c0.2-28.1,22.8-51,50.7-51.2
	C507.2,527.1,530.5,550.2,530.7,578.7z M498.8,578.5c-0.2-10.7-9-19.4-19.5-19.3c-10.5,0.1-19.3,9-19.3,19.6
	c-0.1,11,9.4,20.3,20.1,19.9C490.7,598.2,499,589.3,498.8,578.5z"/>
<path class="st0" d="M792.6,444.2c-19.5,16.9-39.4,33.3-58.3,50.8c-7.4,6.8-12.2,16.2-18.9,23.8c-2.6,3-6.9,6-10.5,6.2
	c-14,0.7-28.1,0.7-42.1,0c-3.2-0.1-8-3-9.1-5.8c-18.3-44-48.6-76.7-90.8-98.5c-1.2-0.6-2.2-1.6-3.9-2.8
	c12.5-32.1,24.9-64.1,37.2-96.1c1.5-3.9,3.1-7.8,4.2-11.9c2.2-8.4-1.2-14.9-8.7-18.1c-7.9-3.3-15.2-1.3-19.8,6.7
	c-1.6,2.7-2.7,5.7-3.9,8.6c-11.7,30.1-23.4,60.1-35.1,90.2c-1.2,3.2-2.7,6.3-4.3,10c-24.8-6-49.4-8.8-74.3-4.7
	c-68.9,11.3-118.1,48.7-146.9,112.4c-3.4,7.4-6.5,10.6-15.1,10.5c-32.3-0.6-64.5-0.1-96.8-0.3c-34.6-0.2-53.5-27.3-40.8-59.4
	c49.2-124,139.5-199.7,270.4-221.9c156.8-26.6,307.4,61.7,369.1,201.4c0.1,0.3,0,0.6,0.1,1C793.8,445.6,793.2,444.9,792.6,444.2z"/>
<path class="st0" d="M338.5,524.6c23-65,111.7-107.9,178.4-86.5c-2.7,7.2-5.4,14.3-8.2,21.6c-11.6-0.7-22.7-2.2-33.7-1.9
	c-39.9,1.1-72.1,18.3-96.3,49.7C363.9,526.7,364.4,527.2,338.5,524.6z"/>
<path class="st0" d="M537.9,472.2c3.2-8.2,6-15.3,9.3-23.6c33.7,16.8,57.9,41.5,74.3,76.7c-10,0-18.6,0.3-27.1-0.2
	c-2.3-0.1-5.4-2.2-6.6-4.3C575.7,500.4,559.3,484.4,537.9,472.2z"/>
<path d="M868.1,636.7c0-4.8,0-8.6,0-12.3c0-35.1,0-70.3,0-105.4c0-4.2,0-8.5,0.8-12.6c1.5-8,7.4-13.3,14.7-12
	c5.5,1,11,6.1,14.7,10.9c2.3,3.1,1.5,8.8,1.5,13.3c0.1,35.1,0.1,70.3,0.1,105.4c0,3.8,0,7.6,0,12.7c12.9,0,24.7,0.2,36.6-0.1
	c9.7-0.2,18.2,1.7,23,11.3c4.6,9.1,1.5,16.8-4,24.5c-17.8,24.8-35.2,49.9-53,74.7c-11,15.3-26.1,15.3-37,0.1
	c-18-25.1-35.7-50.4-53.6-75.5c-5.5-7.7-7.9-15.7-3-24.5c4.7-8.4,12.4-10.6,21.4-10.4C842.3,636.9,854.5,636.7,868.1,636.7z
	 M918.9,669.1c-24.1,0-46.1,0-70,0c12.1,17,23.2,32.7,35,49.3C895.8,701.5,906.7,686.2,918.9,669.1z"/>
<path class="st0" d="M498.8,578.5c0.2,10.7-8.2,19.7-18.7,20.2c-10.7,0.4-20.2-8.9-20.1-19.9c0.1-10.6,8.8-19.5,19.3-19.6
	C489.8,559.1,498.6,567.8,498.8,578.5z"/>
<path class="st0" d="M918.9,669.1c-12.2,17.1-23.1,32.5-35,49.3c-11.7-16.5-22.9-32.2-35-49.3C872.8,669.1,894.8,669.1,918.9,669.1z
	"/>
</svg>
