<?xml version="1.0" encoding="utf-8"?>
<!-- Generator: Adobe Illustrator 25.0.0, SVG Export Plug-In . SVG Version: 6.00 Build 0)  -->
<svg version="1.1" id="Capa_1" xmlns="http://www.w3.org/2000/svg" xmlns:xlink="http://www.w3.org/1999/xlink" x="0px" y="0px"
	 viewBox="0 0 1080 1080" style="enable-background:new 0 0 1080 1080;" xml:space="preserve">
<style type="text/css">
	.st0{fill:#32BA46;}
	.st1{fill:none;}
	.st2{fill:#FFFFFF;}
</style>
<g>
	<g>
		<g>
			<path class="st0" d="M540,1056.3c-90.3,0-178.9-23.9-257.4-69.3l-201,69.3l41.3-212.9C58.1,754.6,24,650.2,24,540.3
				c0-284.5,231.5-516,516-516c284.6,0,516,231.5,516,516C1056,824.8,824.5,1056.3,540,1056.3z"/>
		</g>
	</g>
	<g>
		<g>
			<path class="st1" d="M540,228.3c-172.3,0-312,139.7-312,312c0,72.4,24.9,138.9,66.3,191.8l-20.8,107.4l101.3-34.9
				c48,30.1,104.5,47.7,165.2,47.7c172.3,0,312.1-139.7,312.1-312C852,368,712.3,228.3,540,228.3z"/>
			<path class="st2" d="M540,877.4c-59,0-116.9-15.6-168.1-45.3l-131.3,45.3l27-139.1c-42.3-58-64.6-126.2-64.6-198
				c0-185.9,151.2-337.1,337.1-337.1c185.9,0,337.1,151.2,337.1,337.1C877.1,726.2,725.9,877.4,540,877.4z M377.9,777l10.2,6.4
				c45.8,28.7,98.3,43.9,151.9,43.9c158.2,0,287-128.7,287-286.9c0-158.2-128.7-286.9-287-286.9c-158.2,0-286.9,128.7-286.9,286.9
				c0,64.4,21.1,125.4,60.9,176.4l7,9l-14.8,76L377.9,777z"/>
		</g>
		<path class="st2" d="M369.8,410.8c0,0,19.8-34.6,35.9-36.5c16.1-2,36.9-2,42.5,8.6c5.6,10.5,30.6,71.8,30.6,71.8
			s4.3,10.5-2.3,20.7c-6.6,10.2-21.4,25-21.4,25s-8.2,10.5,0,21.7c8.2,11.2,21,31.8,47.4,58.2c26.4,26.4,77,45.2,77,45.2
			s7.3,1,11.9-3.6c4.6-4.6,29.6-35.9,29.6-35.9s8-10.4,21.4-4.3c13.3,6.1,71.1,34.9,71.1,34.9s6.8,2.5,6.8,12.7
			c0,10.2-4.1,35.2-12.6,43.6c-8.4,8.5-33.1,34.5-70.3,34.5c-37.1,0-125.5-30.2-172.6-77.3c-47.1-47.1-88.9-94.9-98.8-138.3
			C356.3,448.3,357.7,428.7,369.8,410.8z"/>
	</g>
</g>
</svg>
