<?xml version="1.0" encoding="utf-8"?>
<!-- Generator: Adobe Illustrator 25.0.0, SVG Export Plug-In . SVG Version: 6.00 Build 0)  -->
<svg version="1.1" id="Capa_1" xmlns="http://www.w3.org/2000/svg" xmlns:xlink="http://www.w3.org/1999/xlink" x="0px" y="0px"
	 viewBox="0 0 1080 1080" style="enable-background:new 0 0 1080 1080;" xml:space="preserve">
<style type="text/css">
	.st0{fill:#FFFFFF;}
</style>
<g>
	<g>
		<path class="st0" d="M0,1080C0,720.4,0,360.3,0,0c359.9,0,719.8,0,1080,0c0,359.7,0,719.6,0,1080C720.2,1080,360.1,1080,0,1080z
			 M269.8,1012.9c5.7,0,9.8,0,14,0c194.8,0,389.7,0,584.5,0c3.9,0,7.7,0.1,11.6-0.1c22.3-1,41.1-16.1,46.5-37.8
			c1.6-6.6,1.9-13.5,3.4-24c36.4,36.8,70.9,71.6,104.2,105.2c8-7.2,15.8-14.2,24-21.7c-3-3.2-5.6-6-8.3-8.7
			c-58.7-58.7-117.4-117.4-176.1-176.1c-42.4-42.4-35.8-39.1-94.5-40c-14.2-0.2-30.6-2.9-42.2-10.3c-29.8-19.1-57.7-41.3-86-62.7
			c-7-5.3-8.8-13.4-5.6-21.9c3.2-8.5,9.6-13.4,18.4-13.2c4.9,0.1,10.2,2.4,14.7,4.8c23.3,13,46.3,26.6,69.7,39.5
			c19.5,10.7,42.6,7,57.2-8.4c15.2-16.1,17.2-38.7,5.1-58.4c-3-4.8-6.5-9.2-9.1-14.2c-1-1.9-1.4-5.9-0.2-7.1
			c12.6-13.1,25.5-25.8,38.9-39.2c23.9,37.6,46.8,73.8,69.9,109.8c3.4,5.3,7.4,10.3,11.8,14.7c34.7,34.9,69.6,69.7,104.4,104.5
			c2.6,2.6,5.4,5.1,8,7.5c8.3-8,15.8-15.4,25.7-25c-3.6-2.4-7.3-4.1-10-6.8c-34.7-34.5-69.4-68.9-103.7-103.7
			c-11.5-11.7-18.8-24.7-18.3-42.8c1.2-45.3,0.6-90.7,0.2-136.1c-0.1-7.8,2.3-13,7.8-18.3c16-15.3,31.8-30.9,47-47
			c14.5-15.3,18.9-33.6,12-53.7c-6.7-19.6-21.1-31.4-41.4-34.8c-8-1.3-16.4-0.2-25.2-0.2c0-3.6,0-7.4,0-11.2c0-95,0-190,0-284.9
			c0-36.8-20.1-57-56.6-57c-221.2,0-442.4,0-663.6,0c-35.9,0-56.3,20.4-56.3,56.2c0,96-1.1,192.1,0.7,288.1
			c0.5,26.3-5.9,43.5-28.8,57.4c-28.3,17.1-39.6,44.7-39.6,77.9c0.3,173.8,0.2,347.5,0.2,521.3c0,3.8,0,7.5,0,11.5
			c11.8,0,22.5,0,33.8,0c0-4.9,0-9,0-13.2c0-174.1,0.1-348.2-0.1-522.4c0-25,12.1-41.2,33.9-53.6c0,5.1,0,8.9,0,12.7
			c0,68.6,0,137.2,0,205.8c0,4.6-0.2,9.3,0.8,13.6c2.9,13.1,11,22.1,23.9,25.6c13.7,3.7,25.6-0.4,35.2-11
			c36.4-40.1,72.7-80.3,109.4-120.1c4.7-5.1,11.6-9.6,18.2-11.2c11-2.7,19.8,3.1,25.7,12.5c6.1,9.7,5.4,20.6-2.5,30.4
			c-14.8,18.3-30,36.4-45.2,54.4c-9.2,10.9-14.2,23.2-13.8,37.7c0.8,29.7-9.6,54.8-30.3,76.1c-25.1,26-37.2,57.4-37.2,93.5
			c0,53.1,0,106.2,0,159.3c0,3.4,0.3,6.7,0.5,10.1c11.4,0,21.8,0,33,0C269.8,1035.3,269.8,1024.9,269.8,1012.9z"/>
		<path d="M269.8,1012.9c0,12,0,22.4,0,33.3c-11.2,0-21.6,0-33,0c-0.2-3.4-0.5-6.8-0.5-10.1c0-53.1,0-106.2,0-159.3
			c0-36.1,12.1-67.6,37.2-93.5c20.7-21.3,31.1-46.4,30.3-76.1c-0.4-14.4,4.5-26.7,13.8-37.7c15.2-18,30.4-36.1,45.2-54.4
			c7.9-9.8,8.6-20.7,2.5-30.4c-5.9-9.4-14.8-15.1-25.7-12.5c-6.6,1.6-13.5,6.1-18.2,11.2c-36.8,39.8-73,80-109.4,120.1
			c-9.6,10.6-21.5,14.7-35.2,11c-12.9-3.5-21-12.5-23.9-25.6c-1-4.4-0.8-9.1-0.8-13.6c0-68.6,0-137.2,0-205.8c0-3.8,0-7.6,0-12.7
			c-21.8,12.4-33.9,28.6-33.9,53.6c0.2,174.1,0.1,348.2,0.1,522.4c0,4.2,0,8.3,0,13.2c-11.3,0-22,0-33.8,0c0-4,0-7.7,0-11.5
			c0-173.8,0.2-347.5-0.2-521.3c-0.1-33.2,11.3-60.8,39.6-77.9c22.9-13.9,29.3-31,28.8-57.4c-1.8-96-0.7-192-0.7-288.1
			c0-35.8,20.4-56.2,56.3-56.2c221.2,0,442.4,0,663.6,0c36.5,0,56.6,20.2,56.6,57c0,95,0,190,0,284.9c0,3.8,0,7.7,0,11.2
			c8.8,0,17.2-1.1,25.2,0.2c20.3,3.4,34.6,15.2,41.4,34.8c6.9,20.1,2.5,38.4-12,53.7c-15.2,16.1-31,31.7-47,47
			c-5.5,5.3-7.8,10.5-7.8,18.3c0.4,45.4,1,90.8-0.2,136.1c-0.5,18.1,6.9,31.2,18.3,42.8c34.3,34.8,69,69.3,103.7,103.7
			c2.7,2.7,6.4,4.4,10,6.8c-9.9,9.6-17.4,16.9-25.7,25c-2.5-2.4-5.3-4.9-8-7.5c-34.8-34.8-69.7-69.6-104.4-104.5
			c-4.4-4.4-8.4-9.5-11.8-14.7c-23.1-36.1-46.1-72.3-69.9-109.8c-13.4,13.4-26.4,26.1-38.9,39.2c-1.2,1.2-0.8,5.2,0.2,7.1
			c2.6,4.9,6.2,9.4,9.1,14.2c12.1,19.6,10.1,42.3-5.1,58.4c-14.6,15.4-37.7,19.2-57.2,8.4c-23.4-12.9-46.4-26.5-69.7-39.5
			c-4.5-2.5-9.8-4.8-14.7-4.8c-8.8-0.1-15.3,4.7-18.4,13.2c-3.2,8.6-1.4,16.6,5.6,21.9c28.3,21.4,56.2,43.6,86,62.7
			c11.6,7.4,27.9,10.1,42.2,10.3c58.7,0.9,52.1-2.4,94.5,40c58.6,58.8,117.4,117.4,176.1,176.1c2.7,2.7,5.3,5.5,8.3,8.7
			c-8.2,7.4-16,14.4-24,21.7c-33.3-33.7-67.8-68.5-104.2-105.2c-1.4,10.5-1.7,17.4-3.4,24c-5.4,21.7-24.2,36.7-46.5,37.8
			c-3.9,0.2-7.7,0.1-11.6,0.1c-194.8,0-389.7,0-584.5,0C279.6,1012.9,275.4,1012.9,269.8,1012.9z M827.1,911.1c0-17.7,0-34.6,0-51.4
			c0-11.1-3.8-15.2-14.8-15.6c-9.5-0.3-19-0.3-28.5,0c-31.5,1-59.4-8.5-84.1-28c-10.4-8.2-21.2-16-34.5-26c-2.2,3.4-3.8,7.2-6.5,9.9
			c-23.7,24-47.6,47.9-71.6,71.6c-2.6,2.6-6.1,5.8-9.2,5.9c-23.5,0.5-46.9,0.3-71.4,0.3c0-24.5-0.2-47.9,0.2-71.4
			c0.1-2.9,2.9-6.2,5.2-8.5c14-14.3,28.1-28.5,42.5-42.5c9-8.7,18.4-17,27.2-25.1c-3.8-5.7-6.8-8.6-8-12.1c-2.7-8.2-8.1-9.9-16-9.4
			c-11.1,0.6-22.3,0.2-33.6,0.2c0-11.8,0-22.5,0-33.7c15.4,0,30.1,0,45.1,0c1.8-4.3,3.4-8.1,5-12c14.1-35.2,28.2-70.4,42.2-105.6
			c7.8-19.7,22-33.2,43.1-33.7c38.9-0.9,78,0.9,116.9,1.2c4,0,9-1.4,11.8-4c11.1-10.2,21.3-21.4,32.4-31.8c5-4.7,6.9-9.7,6.9-16.5
			c-0.2-109-0.1-218.1-0.2-327.1c0-3.4-0.3-6.8-0.5-10.1c-191.5,0-382.2,0-572.6,0c0,156.9,0,313.1,0,470.2
			c21.3-22.4,41.7-44,60.9-64.1c-3.5-10.4-9.8-21.3-10.5-32.6c-1.7-24.2-1-48.5-0.4-72.8c0.5-21.7,15.7-41.6,36.9-45.8
			c15.2-3,31.1-2.2,46.8-3.1c0,12.6,0,23,0,34.5c-10.6,0-20.7-0.1-30.8,0c-13.1,0.2-19.2,6.4-19.3,19.6c-0.2,20.8-0.2,41.5,0,62.3
			c0.1,13.1,6.4,19.2,19.6,19.3c20.7,0.2,41.5,0.2,62.2,0c13-0.1,19.1-6.4,19.3-19.6c0.2-10.1,0-20.2,0-30.2c12,0,22.6,0,33.8,0
			c0,10.6,0.1,20.4,0,30.2c-0.2,32.1-21.5,53.2-53.8,53.4c-9.9,0.1-19.9,0-27.3,0c5,16.9,9.8,33,15,50.7c2.5,0,7.7,0,12.9,0
			c31.6,0.2,53,21.4,53.3,52.9c0.1,21.5,0.2,42.9,0,64.4c-0.3,29.6-21.8,51.2-51.4,51.6c-17.6,0.2-35.2,0.7-52.7-0.2
			c-14.4-0.7-28.7-3.2-43.9-5.1c-6.2,8.4-12.7,20.6-22.1,29.6c-32.1,30.8-35.5,69.1-31.5,110.3C456,911.1,640.8,911.1,827.1,911.1z
			 M860.7,445.7c0.9,0.5,1.9,1,2.8,1.5c8.5-8.9,17.3-17.4,25.2-26.7c3.1-3.6,5.7-9,5.7-13.5c0.3-105.9,0.3-211.7,0.2-317.6
			c0-16.4-5.7-22-22.3-22c-221.5,0-443.1,0-664.6,0c-16.5,0-22.1,5.6-22.1,22.2c0,193.8,0,387.6,0,581.4c0,2.9,0.4,5.8,0.8,10.3
			c9.1-10,16.6-18.8,24.8-27c6.2-6.1,8.4-12.6,8.4-21.4c-0.3-173-0.2-346.1-0.2-519.1c0-4,0-8.1,0-12c214.6,0,427.5,0,641.3,0
			C860.7,216.7,860.7,331.2,860.7,445.7z M270.5,979.1c4,0,6.8,0,9.6,0c197.2,0,394.4,0,591.6,0c1.4,0,2.8,0,4.2,0
			c11.9-0.5,18.3-6.5,18.6-18.3c0.3-12.3,0.2-24.6,0-36.9c0-2.6-0.8-5.8-2.4-7.6c-9.3-10.3-19.1-20.2-28.6-30.2
			c-0.9,0.5-1.8,1-2.7,1.5c0,19.1,0,38.1,0,58.2c-197.5,0-393.8,0-590.2,0C270.5,957.2,270.5,967.6,270.5,979.1z M878.7,481.3
			c-63.9,63.9-127.4,127.4-191.1,191.1c7.4,4.2,15.9,8.4,23.6,13.7c6.5,4.5,10.5,3.3,15.9-2.1c56.7-57.1,113.7-114,170.6-170.9
			c2.1-2.1,4-4.6,6.1-7C895,497.5,886.8,489.4,878.7,481.3z M438.8,692.4C438.8,692.4,438.8,692.4,438.8,692.4
			c0-11.2,0.3-22.5-0.1-33.7c-0.3-10.1-6.5-16.2-16.4-17.1c-34.2-3.2-35.1-2.8-56.8,23.2c-4.3,5.1-8,10.8-12.9,15.2
			c-13.2,11.9-16.8,26.6-15.2,43.7c1.2,12.4,6.6,18.9,19,19c21.1,0.2,42.1,0.2,63.2,0c12.9-0.1,19-6.5,19.2-19.8
			C439,712.7,438.8,702.6,438.8,692.4z M749.8,557c-28.5,0-56.7,0-84.8,0c-8.4,0-13.9,4.3-17,11.8c-15.5,38.8-31.3,77.5-46.2,116.5
			c-2,5.2,0,12,0.2,19.5C652.6,654.4,700.9,606,749.8,557z M541.8,844.8c8.8-0.9,21,1.6,26.5-3.4c24.7-22.1,47.5-46.4,70.2-69.2
			c-8.8-9.5-16.9-18.4-25.7-27.9c-18.8,18.9-37.1,38.8-57.1,56.9C542.8,812.9,536.3,825.2,541.8,844.8z M902.9,453.9
			c9.4,10,17.5,18.6,26.2,27.8c10.2-10.2,20.6-20,30.2-30.6c7.2-7.8,6.4-18.5-0.7-25.6c-7.1-7.2-17.7-7.9-25.6-0.8
			C922.4,434.3,912.5,444.6,902.9,453.9z M865.5,595.5c8.6,13.6,17.9,28.1,28.6,44.9c0-26.6,0-50.1,0-72.9
			C884.8,576.6,875.4,585.7,865.5,595.5z M773.8,686.6c-7.5,7.1-14.9,14.3-22.4,21.4c15.3,11.3,23.5,12.9,29.8,5.9
			C787.6,706.8,785.3,698.7,773.8,686.6z"/>
		<path class="st0" d="M827.1,911.1c-186.3,0-371.1,0-556.1,0c-4-41.2-0.5-79.5,31.5-110.3c9.4-9.1,15.9-21.2,22.1-29.6
			c15.2,1.8,29.5,4.4,43.9,5.1c17.5,0.9,35.2,0.4,52.7,0.2c29.6-0.4,51-21.9,51.4-51.6c0.2-21.5,0.2-42.9,0-64.4
			c-0.2-31.4-21.7-52.6-53.3-52.9c-5.2,0-10.4,0-12.9,0c-5.2-17.7-10-33.7-15-50.7c7.5,0,17.4,0.1,27.3,0
			c32.3-0.2,53.6-21.3,53.8-53.4c0.1-9.8,0-19.6,0-30.2c-11.1,0-21.8,0-33.8,0c0,10,0.1,20.1,0,30.2c-0.2,13.2-6.3,19.5-19.3,19.6
			c-20.7,0.2-41.5,0.2-62.2,0c-13.2-0.1-19.5-6.3-19.6-19.3c-0.2-20.7-0.2-41.5,0-62.3c0.1-13.2,6.3-19.4,19.3-19.6
			c10.1-0.2,20.2,0,30.8,0c0-11.5,0-21.9,0-34.5c-15.7,0.9-31.6,0.1-46.8,3.1c-21.2,4.2-36.4,24.1-36.9,45.8
			c-0.6,24.3-1.3,48.6,0.4,72.8c0.8,11.3,7,22.2,10.5,32.6c-19.1,20.2-39.6,41.7-60.9,64.1c0-157.1,0-313.2,0-470.2
			c190.3,0,381,0,572.6,0c0.2,3.3,0.5,6.7,0.5,10.1c0,109,0,218.1,0.2,327.1c0,6.9-1.8,11.8-6.9,16.5c-11,10.3-21.2,21.5-32.4,31.8
			c-2.8,2.6-7.8,4-11.8,4c-39-0.3-78-2.1-116.9-1.2c-21.1,0.5-35.3,14-43.1,33.7c-14,35.2-28.1,70.4-42.2,105.6
			c-1.6,3.9-3.2,7.7-5,12c-15,0-29.7,0-45.1,0c0,11.3,0,21.9,0,33.7c11.3,0,22.5,0.5,33.6-0.2c7.9-0.5,13.3,1.2,16,9.4
			c1.1,3.5,4.1,6.4,8,12.1c-8.8,8.1-18.2,16.3-27.2,25.1c-14.4,14-28.5,28.2-42.5,42.5c-2.3,2.4-5.1,5.6-5.2,8.5
			c-0.4,23.5-0.2,46.9-0.2,71.4c24.4,0,47.9,0.2,71.4-0.3c3.1-0.1,6.7-3.4,9.2-5.9c24-23.8,47.9-47.6,71.6-71.6
			c2.7-2.7,4.3-6.5,6.5-9.9c13.3,10,24.1,17.8,34.5,26c24.7,19.5,52.6,29.1,84.1,28c9.5-0.3,19-0.3,28.5,0
			c11.1,0.4,14.8,4.5,14.8,15.6C827.1,876.6,827.1,893.4,827.1,911.1z M438.8,253.5c0,11,0.1,20.8,0,30.7
			c-0.2,13.1-6.4,19.4-19.5,19.5c-20.7,0.2-41.5,0.2-62.2,0c-13.2-0.1-19.4-6.3-19.5-19.4c-0.2-20.7-0.2-41.5,0-62.2
			c0.1-13.2,6.3-19.3,19.4-19.6c10.1-0.2,20.2,0,30.5,0c0-11.8,0-22.4,0-33.5c-13.3,0-25.9-0.9-38.4,0.2
			c-25.1,2.1-44.7,23.4-45.2,48.8c-0.5,23.5-0.5,47.1,0,70.7c0.6,26.6,22,48.1,48.6,48.8c23.5,0.6,47.1,0.5,70.6,0
			c23.3-0.4,43.2-16,47.5-38.9c2.7-14.5,1.8-29.7,2.5-44.9C460.8,253.5,450.4,253.5,438.8,253.5z M523.7,201.7
			c84.7,0,168.4,0,252.2,0c0-11.2,0-21.6,0-32.5c-84.3,0-168,0-252.2,0C523.7,180.2,523.7,190.6,523.7,201.7z M524,388.7
			c0,11.4,0,22,0,32.5c84.5,0,168.2,0,252,0c0-11.2,0-21.6,0-32.5C691.9,388.7,608.4,388.7,524,388.7z M523.7,269.4
			c67.9,0,134.5,0,201.4,0c0-11.2,0-21.9,0-32.5c-67.5,0-134.4,0-201.4,0C523.7,248.1,523.7,258.5,523.7,269.4z M691.6,456.4
			c-56.5,0-112.1,0-167.5,0c0,11.4,0,22.1,0,32.5c56.2,0,111.6,0,167.5,0C691.6,478,691.6,467.6,691.6,456.4z M445,175.3
			c-28.1,28.2-55.9,55.9-82.5,82.6c6.5,7.2,13.8,15.1,19.5,21.3c28-28,55.6-55.7,82.8-83C458.6,189.7,451.4,182.1,445,175.3z
			 M382.1,499.7c28-28,55.8-55.8,82.8-82.8c-6.5-7.1-13.7-15-19.6-21.5c-28.4,28-56.3,55.5-84.2,82.9
			C368.1,485.4,375.5,492.9,382.1,499.7z"/>
		<path class="st0" d="M860.7,445.7c0-114.5,0-229,0-344c-213.8,0-426.7,0-641.3,0c0,3.9,0,8,0,12c0,173-0.1,346.1,0.2,519.1
			c0,8.8-2.2,15.3-8.4,21.4c-8.2,8.1-15.7,17-24.8,27c-0.4-4.5-0.8-7.4-0.8-10.3c0-193.8,0-387.6,0-581.4c0-16.6,5.6-22.2,22.1-22.2
			c221.5,0,443.1,0,664.6,0c16.6,0,22.3,5.6,22.3,22c0,105.9,0.1,211.7-0.2,317.6c0,4.6-2.7,9.9-5.7,13.5
			c-7.9,9.3-16.7,17.9-25.2,26.7C862.5,446.7,861.6,446.2,860.7,445.7z"/>
		<path class="st0" d="M270.5,979.1c0-11.5,0-21.9,0-33.4c196.4,0,392.7,0,590.2,0c0-20.1,0-39.1,0-58.2c0.9-0.5,1.8-1,2.7-1.5
			c9.6,10,19.3,20,28.6,30.2c1.6,1.8,2.3,5,2.4,7.6c0.2,12.3,0.3,24.6,0,36.9c-0.3,11.7-6.7,17.8-18.6,18.3c-1.4,0.1-2.8,0-4.2,0
			c-197.2,0-394.4,0-591.6,0C277.3,979.1,274.5,979.1,270.5,979.1z"/>
		<path class="st0" d="M878.7,481.3c8.1,8,16.4,16.1,25.2,24.8c-2.1,2.4-4,4.8-6.1,7C840.8,570.1,783.8,626.9,727.1,684
			c-5.4,5.4-9.4,6.6-15.9,2.1c-7.7-5.3-16.2-9.4-23.6-13.7C751.2,608.8,814.8,545.2,878.7,481.3z"/>
		<path class="st0" d="M438.8,692.4c0,10.2,0.1,20.4,0,30.6c-0.2,13.2-6.3,19.6-19.2,19.8c-21.1,0.2-42.1,0.2-63.2,0
			c-12.4-0.1-17.8-6.6-19-19c-1.6-17.1,1.9-31.8,15.2-43.7c4.9-4.4,8.7-10.1,12.9-15.2c21.7-26.1,22.6-26.5,56.8-23.2
			c9.9,0.9,16.1,7,16.4,17.1C439.1,669.9,438.8,681.1,438.8,692.4C438.8,692.4,438.8,692.4,438.8,692.4z"/>
		<path class="st0" d="M749.8,557c-48.9,49-97.3,97.3-147.8,147.9c-0.2-7.5-2.2-14.3-0.2-19.5c15-39,30.7-77.7,46.2-116.5
			c3-7.6,8.6-11.8,17-11.8C693.2,557,721.3,557,749.8,557z"/>
		<path class="st0" d="M541.8,844.8c-5.5-19.6,1-31.9,14-43.6c20-18,38.3-38,57.1-56.9c8.8,9.6,17,18.4,25.7,27.9
			c-22.8,22.8-45.5,47.1-70.2,69.2C562.8,846.4,550.5,843.9,541.8,844.8z"/>
		<path class="st0" d="M902.9,453.9c9.5-9.3,19.5-19.6,30.1-29.2c7.8-7.1,18.5-6.3,25.6,0.8c7.1,7.1,7.9,17.8,0.7,25.6
			c-9.6,10.5-20,20.4-30.2,30.6C920.4,472.5,912.3,463.9,902.9,453.9z"/>
		<path class="st0" d="M865.5,595.5c10-9.8,19.3-18.9,28.6-28c0,22.8,0,46.3,0,72.9C883.3,623.5,874.1,609,865.5,595.5z"/>
		<path class="st0" d="M773.8,686.6c11.5,12.1,13.7,20.2,7.4,27.3c-6.3,7-14.5,5.4-29.8-5.9C758.9,700.8,766.4,693.7,773.8,686.6z"
			/>
		<path d="M438.8,253.5c11.6,0,22,0,34.3,0c-0.7,15.2,0.2,30.4-2.5,44.9c-4.2,23-24.1,38.5-47.5,38.9c-23.5,0.4-47.1,0.5-70.6,0
			c-26.6-0.7-48-22.2-48.6-48.8c-0.5-23.5-0.5-47.1,0-70.7c0.5-25.4,20.1-46.7,45.2-48.8c12.5-1.1,25.2-0.2,38.4-0.2
			c0,11.1,0,21.8,0,33.5c-10.4,0-20.5-0.1-30.5,0c-13.1,0.2-19.3,6.4-19.4,19.6c-0.2,20.7-0.2,41.5,0,62.2
			c0.1,13.1,6.4,19.3,19.5,19.4c20.7,0.2,41.5,0.2,62.2,0c13.1-0.1,19.2-6.4,19.5-19.5C439,274.4,438.8,264.5,438.8,253.5z"/>
		<path d="M523.7,201.7c0-11.1,0-21.5,0-32.5c84.2,0,168,0,252.2,0c0,10.9,0,21.3,0,32.5C692.2,201.7,608.4,201.7,523.7,201.7z"/>
		<path d="M524,388.7c84.4,0,167.9,0,252,0c0,10.9,0,21.3,0,32.5c-83.7,0-167.5,0-252,0C524,410.7,524,400,524,388.7z"/>
		<path d="M523.7,269.4c0-11,0-21.4,0-32.5c67,0,133.9,0,201.4,0c0,10.7,0,21.3,0,32.5C658.2,269.4,591.6,269.4,523.7,269.4z"/>
		<path d="M691.6,456.4c0,11.2,0,21.6,0,32.5c-55.9,0-111.2,0-167.5,0c0-10.4,0-21.1,0-32.5C579.5,456.4,635.1,456.4,691.6,456.4z"
			/>
		<path d="M445,175.3c6.4,6.8,13.6,14.4,19.7,20.9c-27.2,27.2-54.8,54.9-82.8,83c-5.7-6.2-12.9-14.2-19.5-21.3
			C389.1,231.2,416.8,203.4,445,175.3z"/>
		<path d="M382.1,499.7c-6.6-6.8-14-14.3-21-21.4c27.9-27.5,55.8-55,84.2-82.9c5.9,6.5,13.1,14.4,19.6,21.5
			C437.9,443.9,410.1,471.7,382.1,499.7z"/>
	</g>
</g>
</svg>
